<svg width="330" height="158" viewBox="0 0 330 158" fill="none" xmlns="http://www.w3.org/2000/svg">
<rect width="330" height="158" rx="16" fill="url(#paint0_linear_103_219)"/>
<path d="M79.656 70V47.6H90.6C93.416 47.6 95.528 48.1333 96.936 49.2C98.3653 50.2667 99.08 51.6747 99.08 53.424C99.08 54.5973 98.792 55.6213 98.216 56.496C97.64 57.3493 96.8507 58.0107 95.848 58.48C94.8453 58.9493 93.6933 59.184 92.392 59.184L93 57.872C94.408 57.872 95.656 58.1067 96.744 58.576C97.832 59.024 98.6747 59.696 99.272 60.592C99.8907 61.488 100.2 62.5867 100.2 63.888C100.2 65.808 99.4427 67.312 97.928 68.4C96.4133 69.4667 94.184 70 91.24 70H79.656ZM84.808 66.096H90.856C92.2 66.096 93.2133 65.8827 93.896 65.456C94.6 65.008 94.952 64.304 94.952 63.344C94.952 62.4053 94.6 61.712 93.896 61.264C93.2133 60.7947 92.2 60.56 90.856 60.56H84.424V56.784H89.96C91.2187 56.784 92.1787 56.5707 92.84 56.144C93.5227 55.696 93.864 55.024 93.864 54.128C93.864 53.2533 93.5227 52.6027 92.84 52.176C92.1787 51.728 91.2187 51.504 89.96 51.504H84.808V66.096ZM112.317 70.256C110.354 70.256 108.626 69.872 107.133 69.104C105.661 68.336 104.519 67.2907 103.709 65.968C102.898 64.624 102.493 63.0987 102.493 61.392C102.493 59.664 102.887 58.1387 103.677 56.816C104.487 55.472 105.586 54.4267 106.973 53.68C108.359 52.912 109.927 52.528 111.677 52.528C113.362 52.528 114.877 52.8907 116.221 53.616C117.586 54.32 118.663 55.344 119.453 56.688C120.242 58.0107 120.637 59.6 120.637 61.456C120.637 61.648 120.626 61.872 120.605 62.128C120.583 62.3627 120.562 62.5867 120.541 62.8H106.557V59.888H117.917L115.997 60.752C115.997 59.856 115.815 59.0773 115.453 58.416C115.09 57.7547 114.589 57.2427 113.949 56.88C113.309 56.496 112.562 56.304 111.709 56.304C110.855 56.304 110.098 56.496 109.437 56.88C108.797 57.2427 108.295 57.7653 107.933 58.448C107.57 59.1093 107.389 59.8987 107.389 60.816V61.584C107.389 62.5227 107.591 63.3547 107.997 64.08C108.423 64.784 109.01 65.328 109.757 65.712C110.525 66.0747 111.421 66.256 112.445 66.256C113.362 66.256 114.162 66.1173 114.845 65.84C115.549 65.5627 116.189 65.1467 116.765 64.592L119.421 67.472C118.631 68.368 117.639 69.0613 116.445 69.552C115.25 70.0213 113.874 70.256 112.317 70.256ZM132.28 70.256C130.424 70.256 128.771 69.8827 127.32 69.136C125.87 68.368 124.728 67.312 123.896 65.968C123.086 64.624 122.68 63.0987 122.68 61.392C122.68 59.664 123.086 58.1387 123.896 56.816C124.728 55.472 125.87 54.4267 127.32 53.68C128.771 52.912 130.424 52.528 132.28 52.528C134.094 52.528 135.672 52.912 137.016 53.68C138.36 54.4267 139.352 55.504 139.992 56.912L136.12 58.992C135.672 58.1813 135.107 57.584 134.424 57.2C133.763 56.816 133.038 56.624 132.248 56.624C131.395 56.624 130.627 56.816 129.944 57.2C129.262 57.584 128.718 58.128 128.312 58.832C127.928 59.536 127.736 60.3893 127.736 61.392C127.736 62.3947 127.928 63.248 128.312 63.952C128.718 64.656 129.262 65.2 129.944 65.584C130.627 65.968 131.395 66.16 132.248 66.16C133.038 66.16 133.763 65.9787 134.424 65.616C135.107 65.232 135.672 64.624 136.12 63.792L139.992 65.904C139.352 67.2907 138.36 68.368 137.016 69.136C135.672 69.8827 134.094 70.256 132.28 70.256ZM150.84 70.256C149.005 70.256 147.373 69.872 145.944 69.104C144.536 68.336 143.416 67.2907 142.584 65.968C141.773 64.624 141.368 63.0987 141.368 61.392C141.368 59.664 141.773 58.1387 142.584 56.816C143.416 55.472 144.536 54.4267 145.944 53.68C147.373 52.912 149.005 52.528 150.84 52.528C152.653 52.528 154.274 52.912 155.704 53.68C157.133 54.4267 158.253 55.4613 159.064 56.784C159.874 58.1067 160.28 59.6427 160.28 61.392C160.28 63.0987 159.874 64.624 159.064 65.968C158.253 67.2907 157.133 68.336 155.704 69.104C154.274 69.872 152.653 70.256 150.84 70.256ZM150.84 66.16C151.672 66.16 152.418 65.968 153.08 65.584C153.741 65.2 154.264 64.656 154.648 63.952C155.032 63.2267 155.224 62.3733 155.224 61.392C155.224 60.3893 155.032 59.536 154.648 58.832C154.264 58.128 153.741 57.584 153.08 57.2C152.418 56.816 151.672 56.624 150.84 56.624C150.008 56.624 149.261 56.816 148.6 57.2C147.938 57.584 147.405 58.128 147 58.832C146.616 59.536 146.424 60.3893 146.424 61.392C146.424 62.3733 146.616 63.2267 147 63.952C147.405 64.656 147.938 65.2 148.6 65.584C149.261 65.968 150.008 66.16 150.84 66.16ZM163.617 70V52.784H168.385V57.488L167.489 56.112C168.086 54.9387 168.929 54.0533 170.017 53.456C171.126 52.8373 172.385 52.528 173.793 52.528C175.371 52.528 176.747 52.9333 177.921 53.744C179.115 54.5333 179.905 55.7493 180.289 57.392L178.529 56.912C179.105 55.568 180.022 54.5013 181.281 53.712C182.561 52.9227 184.022 52.528 185.665 52.528C187.03 52.528 188.235 52.8053 189.281 53.36C190.347 53.8933 191.179 54.7253 191.777 55.856C192.395 56.9653 192.705 58.3947 192.705 60.144V70H187.713V60.912C187.713 59.5253 187.425 58.5013 186.849 57.84C186.273 57.1787 185.462 56.848 184.417 56.848C183.691 56.848 183.041 57.0187 182.465 57.36C181.889 57.68 181.441 58.1707 181.121 58.832C180.801 59.4933 180.641 60.336 180.641 61.36V70H175.649V60.912C175.649 59.5253 175.361 58.5013 174.785 57.84C174.23 57.1787 173.43 56.848 172.385 56.848C171.659 56.848 171.009 57.0187 170.433 57.36C169.857 57.68 169.409 58.1707 169.089 58.832C168.769 59.4933 168.609 60.336 168.609 61.36V70H163.617ZM205.848 70.256C203.885 70.256 202.157 69.872 200.664 69.104C199.192 68.336 198.051 67.2907 197.24 65.968C196.429 64.624 196.024 63.0987 196.024 61.392C196.024 59.664 196.419 58.1387 197.208 56.816C198.019 55.472 199.117 54.4267 200.504 53.68C201.891 52.912 203.459 52.528 205.208 52.528C206.893 52.528 208.408 52.8907 209.752 53.616C211.117 54.32 212.195 55.344 212.984 56.688C213.773 58.0107 214.168 59.6 214.168 61.456C214.168 61.648 214.157 61.872 214.136 62.128C214.115 62.3627 214.093 62.5867 214.072 62.8H200.088V59.888H211.448L209.528 60.752C209.528 59.856 209.347 59.0773 208.984 58.416C208.621 57.7547 208.12 57.2427 207.48 56.88C206.84 56.496 206.093 56.304 205.24 56.304C204.387 56.304 203.629 56.496 202.968 56.88C202.328 57.2427 201.827 57.7653 201.464 58.448C201.101 59.1093 200.92 59.8987 200.92 60.816V61.584C200.92 62.5227 201.123 63.3547 201.528 64.08C201.955 64.784 202.541 65.328 203.288 65.712C204.056 66.0747 204.952 66.256 205.976 66.256C206.893 66.256 207.693 66.1173 208.376 65.84C209.08 65.5627 209.72 65.1467 210.296 64.592L212.952 67.472C212.163 68.368 211.171 69.0613 209.976 69.552C208.781 70.0213 207.405 70.256 205.848 70.256ZM234.746 70.256C232.911 70.256 231.279 69.872 229.85 69.104C228.442 68.336 227.322 67.2907 226.49 65.968C225.679 64.624 225.274 63.0987 225.274 61.392C225.274 59.664 225.679 58.1387 226.49 56.816C227.322 55.472 228.442 54.4267 229.85 53.68C231.279 52.912 232.911 52.528 234.746 52.528C236.559 52.528 238.181 52.912 239.61 53.68C241.039 54.4267 242.159 55.4613 242.97 56.784C243.781 58.1067 244.186 59.6427 244.186 61.392C244.186 63.0987 243.781 64.624 242.97 65.968C242.159 67.2907 241.039 68.336 239.61 69.104C238.181 69.872 236.559 70.256 234.746 70.256ZM234.746 66.16C235.578 66.16 236.325 65.968 236.986 65.584C237.647 65.2 238.17 64.656 238.554 63.952C238.938 63.2267 239.13 62.3733 239.13 61.392C239.13 60.3893 238.938 59.536 238.554 58.832C238.17 58.128 237.647 57.584 236.986 57.2C236.325 56.816 235.578 56.624 234.746 56.624C233.914 56.624 233.167 56.816 232.506 57.2C231.845 57.584 231.311 58.128 230.906 58.832C230.522 59.536 230.33 60.3893 230.33 61.392C230.33 62.3733 230.522 63.2267 230.906 63.952C231.311 64.656 231.845 65.2 232.506 65.584C233.167 65.968 233.914 66.16 234.746 66.16ZM254.787 70.256C253.357 70.256 252.077 69.9787 250.947 69.424C249.837 68.8693 248.973 68.0267 248.355 66.896C247.736 65.744 247.427 64.2827 247.427 62.512V52.784H252.419V61.776C252.419 63.2053 252.717 64.2613 253.315 64.944C253.933 65.6053 254.797 65.936 255.907 65.936C256.675 65.936 257.357 65.776 257.955 65.456C258.552 65.1147 259.021 64.6027 259.363 63.92C259.704 63.216 259.875 62.3413 259.875 61.296V52.784H264.867V70H260.131V65.264L260.995 66.64C260.419 67.8347 259.565 68.7413 258.435 69.36C257.325 69.9573 256.109 70.256 254.787 70.256ZM269.492 70V52.784H274.26V57.648L273.588 56.24C274.1 55.024 274.921 54.1067 276.052 53.488C277.182 52.848 278.558 52.528 280.18 52.528V57.136C279.966 57.1147 279.774 57.104 279.604 57.104C279.433 57.0827 279.252 57.072 279.06 57.072C277.694 57.072 276.585 57.4667 275.732 58.256C274.9 59.024 274.484 60.2293 274.484 61.872V70H269.492Z" fill="#01295C"/>
<path d="M78.16 113L83.76 85H95.08C98.5733 85 101.267 85.7733 103.16 87.32C105.08 88.84 106.04 90.9733 106.04 93.72C106.04 96.0667 105.493 98.12 104.4 99.88C103.307 101.613 101.733 102.947 99.68 103.88C97.6533 104.813 95.24 105.28 92.44 105.28H83.36L86.8 102.32L84.68 113H78.16ZM86.64 103.08L84.36 100H92.72C94.8533 100 96.5067 99.52 97.68 98.56C98.88 97.5733 99.48 96.1467 99.48 94.28C99.48 92.92 99.0267 91.92 98.12 91.28C97.2133 90.6133 95.9333 90.28 94.28 90.28H86.4L89.84 87.12L86.64 103.08ZM116.347 113.32C114.694 113.32 113.161 112.947 111.747 112.2C110.334 111.427 109.201 110.32 108.347 108.88C107.494 107.44 107.067 105.707 107.067 103.68C107.067 101.867 107.361 100.2 107.947 98.68C108.561 97.16 109.414 95.84 110.507 94.72C111.601 93.6 112.867 92.7333 114.307 92.12C115.747 91.48 117.294 91.16 118.947 91.16C120.734 91.16 122.267 91.4933 123.547 92.16C124.827 92.8267 125.774 93.8667 126.387 95.28C127.027 96.6667 127.254 98.4667 127.067 100.68C126.934 103.213 126.414 105.44 125.507 107.36C124.601 109.253 123.374 110.72 121.827 111.76C120.307 112.8 118.481 113.32 116.347 113.32ZM118.267 108.16C119.494 108.16 120.574 107.867 121.507 107.28C122.467 106.667 123.214 105.84 123.747 104.8C124.307 103.733 124.587 102.493 124.587 101.08C124.587 99.6133 124.147 98.4533 123.267 97.6C122.414 96.7467 121.214 96.32 119.667 96.32C118.467 96.32 117.387 96.6267 116.427 97.24C115.467 97.8267 114.707 98.6533 114.147 99.72C113.614 100.76 113.347 101.987 113.347 103.4C113.347 104.867 113.774 106.027 114.627 106.88C115.507 107.733 116.721 108.16 118.267 108.16ZM122.547 113L123.387 108.72L124.787 102.32L125.627 95.92L126.507 91.48H132.747L128.467 113H122.547ZM134.244 113L138.524 91.48H144.444L143.204 97.6L142.644 95.84C143.604 94.1067 144.858 92.8933 146.404 92.2C147.951 91.5067 149.804 91.16 151.964 91.16L150.844 96.92C150.578 96.8933 150.324 96.88 150.084 96.88C149.871 96.8533 149.644 96.84 149.404 96.84C147.564 96.84 146.058 97.2933 144.884 98.2C143.738 99.1067 142.964 100.573 142.564 102.6L140.484 113H134.244ZM160.817 113.32C159.27 113.32 157.95 113.013 156.857 112.4C155.764 111.76 154.977 110.853 154.497 109.68C154.044 108.48 153.977 107.067 154.297 105.44L158.017 86.72H164.257L160.537 105.4C160.377 106.307 160.47 107.027 160.817 107.56C161.164 108.093 161.804 108.36 162.737 108.36C163.164 108.36 163.59 108.293 164.017 108.16C164.47 108.027 164.884 107.84 165.257 107.6L166.177 112.04C165.404 112.52 164.55 112.853 163.617 113.04C162.684 113.227 161.75 113.32 160.817 113.32ZM152.697 96.76L153.657 91.96H168.577L167.617 96.76H152.697ZM186.24 91.16C188.08 91.16 189.64 91.5467 190.92 92.32C192.2 93.0667 193.106 94.1733 193.64 95.64C194.173 97.1067 194.226 98.92 193.8 101.08L191.4 113H185.16L187.48 101.48C187.8 99.9067 187.666 98.6933 187.08 97.84C186.52 96.9867 185.48 96.56 183.96 96.56C182.386 96.56 181.066 97.0133 180 97.92C178.96 98.8267 178.24 100.213 177.84 102.08L175.68 113H169.44L173.72 91.48H179.64L178.4 97.56L177.52 95.72C178.56 94.1467 179.84 93 181.36 92.28C182.906 91.5333 184.533 91.16 186.24 91.16ZM208.614 113.32C206.374 113.32 204.427 112.92 202.774 112.12C201.147 111.32 199.881 110.2 198.974 108.76C198.067 107.32 197.614 105.627 197.614 103.68C197.614 101.28 198.147 99.1467 199.214 97.28C200.307 95.3867 201.801 93.8933 203.694 92.8C205.614 91.7067 207.814 91.16 210.294 91.16C212.401 91.16 214.214 91.56 215.734 92.36C217.254 93.1333 218.427 94.2267 219.254 95.64C220.107 97.0267 220.534 98.6933 220.534 100.64C220.534 101.2 220.494 101.76 220.414 102.32C220.361 102.88 220.281 103.413 220.174 103.92H202.374L203.014 100.28H217.254L214.694 101.4C214.907 100.2 214.841 99.2 214.494 98.4C214.147 97.5733 213.587 96.9467 212.814 96.52C212.041 96.0667 211.107 95.84 210.014 95.84C208.654 95.84 207.494 96.1733 206.534 96.84C205.601 97.48 204.894 98.3733 204.414 99.52C203.934 100.667 203.694 101.96 203.694 103.4C203.694 105.053 204.147 106.293 205.054 107.12C205.987 107.92 207.387 108.32 209.254 108.32C210.347 108.32 211.401 108.147 212.414 107.8C213.427 107.453 214.294 106.96 215.014 106.32L217.614 110.44C216.361 111.427 214.947 112.16 213.374 112.64C211.827 113.093 210.241 113.32 208.614 113.32ZM222.291 113L226.571 91.48H232.491L231.251 97.6L230.691 95.84C231.651 94.1067 232.905 92.8933 234.451 92.2C235.998 91.5067 237.851 91.16 240.011 91.16L238.891 96.92C238.625 96.8933 238.371 96.88 238.131 96.88C237.918 96.8533 237.691 96.84 237.451 96.84C235.611 96.84 234.105 97.2933 232.931 98.2C231.785 99.1067 231.011 100.573 230.611 102.6L228.531 113H222.291Z" fill="url(#paint1_linear_103_219)"/>
<path d="M255.463 100.5H273.547" stroke="#2D7EE8" stroke-width="4" stroke-linecap="round" stroke-linejoin="round"/>
<path d="M264.5 91.4583L273.542 100.5L264.5 109.542" stroke="#2D7EE8" stroke-width="4" stroke-linecap="round" stroke-linejoin="round"/>
<defs>
<linearGradient id="paint0_linear_103_219" x1="0" y1="0" x2="285" y2="173" gradientUnits="userSpaceOnUse">
<stop stop-color="white"/>
<stop offset="1" stop-color="#B1D3FF"/>
</linearGradient>
<linearGradient id="paint1_linear_103_219" x1="77" y1="78.5" x2="320" y2="78.5" gradientUnits="userSpaceOnUse">
<stop stop-color="#006FFF"/>
<stop offset="1" stop-color="#8EC0FF"/>
</linearGradient>
</defs>
</svg>
