<svg width="248" height="48" viewBox="0 0 248 48" fill="none" xmlns="http://www.w3.org/2000/svg">
<path d="M-2.74181e-06 47.488L8.96 2.68803H30.592C35.456 2.68803 39.168 3.5627 41.728 5.31203C44.3307 7.06137 45.632 9.60004 45.632 12.928C45.632 15.744 44.8853 18.112 43.392 20.032C41.9413 21.952 40 23.4027 37.568 24.384C35.136 25.3654 32.4907 25.856 29.632 25.856L31.296 23.296C35.0507 23.296 38.0373 24.1707 40.256 25.92C42.5173 27.6267 43.648 30.1014 43.648 33.344C43.648 36.5014 42.7733 39.1467 41.024 41.28C39.3173 43.3707 36.9493 44.928 33.92 45.952C30.8907 46.976 27.4133 47.488 23.488 47.488H-2.74181e-06ZM11.904 39.68H24.128C26.9867 39.68 29.2267 39.1467 30.848 38.08C32.512 36.9707 33.344 35.3494 33.344 33.216C33.344 31.552 32.7253 30.3787 31.488 29.696C30.2933 28.9707 28.672 28.608 26.624 28.608H12.928L14.464 21.056H26.112C27.904 21.056 29.44 20.8214 30.72 20.352C32.0427 19.8827 33.0453 19.1787 33.728 18.24C34.4107 17.2587 34.752 16.0854 34.752 14.72C34.752 13.2267 34.176 12.16 33.024 11.52C31.872 10.8374 30.2507 10.496 28.16 10.496H17.664L11.904 39.68ZM75.1775 12.544C78.0788 12.544 80.5535 13.1627 82.6015 14.4C84.6495 15.5947 86.1002 17.3654 86.9535 19.712C87.8495 22.0587 87.9562 24.96 87.2735 28.416L83.4335 47.488H73.4495L77.1615 29.056C77.6735 26.5387 77.4602 24.5974 76.5215 23.232C75.6255 21.8667 73.9615 21.184 71.5295 21.184C69.0122 21.184 66.9002 21.9094 65.1935 23.36C63.5295 24.8107 62.3775 27.0294 61.7375 30.016L58.2815 47.488H48.2975L57.7695 3.43323e-05H67.7535L63.2095 22.784L61.2255 19.84C62.8895 17.3227 64.9375 15.488 67.3695 14.336C69.8442 13.1414 72.4468 12.544 75.1775 12.544ZM108.224 48C105.579 48 103.126 47.4027 100.864 46.208C98.6032 44.9707 96.7898 43.2 95.4245 40.896C94.0592 38.592 93.3765 35.8187 93.3765 32.576C93.3765 29.6747 93.8458 27.008 94.7845 24.576C95.7658 22.144 97.1312 20.032 98.8805 18.24C100.63 16.448 102.656 15.0614 104.96 14.08C107.264 13.056 109.739 12.544 112.384 12.544C115.243 12.544 117.696 13.0774 119.744 14.144C121.792 15.2107 123.307 16.8747 124.288 19.136C125.312 21.3547 125.675 24.2347 125.376 27.776C125.163 31.8294 124.331 35.392 122.88 38.464C121.43 41.4934 119.467 43.84 116.992 45.504C114.56 47.168 111.638 48 108.224 48ZM111.296 39.744C113.259 39.744 114.987 39.2747 116.48 38.336C118.016 37.3547 119.211 36.032 120.064 34.368C120.96 32.6614 121.408 30.6774 121.408 28.416C121.408 26.0694 120.704 24.2134 119.296 22.848C117.931 21.4827 116.011 20.8 113.536 20.8C111.616 20.8 109.888 21.2907 108.352 22.272C106.816 23.2107 105.6 24.5334 104.704 26.24C103.851 27.904 103.424 29.8667 103.424 32.128C103.424 34.4747 104.107 36.3307 105.472 37.696C106.88 39.0614 108.822 39.744 111.296 39.744ZM118.144 47.488L119.488 40.64L121.728 30.4L123.072 20.16L124.48 13.056H134.465L127.616 47.488H118.144ZM136.86 47.488L143.708 13.056H153.18L151.196 22.848L150.3 20.032C151.836 17.2587 153.841 15.3174 156.316 14.208C158.791 13.0987 161.756 12.544 165.212 12.544L163.42 21.76C162.993 21.7174 162.588 21.696 162.204 21.696C161.863 21.6534 161.5 21.632 161.116 21.632C158.172 21.632 155.761 22.3574 153.884 23.808C152.049 25.2587 150.812 27.6054 150.172 30.848L146.844 47.488H136.86ZM179.474 48C176.829 48 174.376 47.4027 172.114 46.208C169.853 44.9707 168.04 43.2 166.674 40.896C165.309 38.592 164.626 35.8187 164.626 32.576C164.626 29.6747 165.096 27.008 166.034 24.576C167.016 22.144 168.381 20.032 170.13 18.24C171.88 16.448 173.906 15.0614 176.21 14.08C178.514 13.056 180.989 12.544 183.634 12.544C186.493 12.544 188.946 13.0774 190.994 14.144C193.042 15.2107 194.557 16.8747 195.538 19.136C196.562 21.3547 196.925 24.2347 196.626 27.776C196.413 31.8294 195.581 35.392 194.13 38.464C192.68 41.4934 190.717 43.84 188.242 45.504C185.81 47.168 182.888 48 179.474 48ZM182.546 39.744C184.509 39.744 186.237 39.2747 187.73 38.336C189.266 37.3547 190.461 36.032 191.314 34.368C192.21 32.6614 192.658 30.6774 192.658 28.416C192.658 26.0694 191.954 24.2134 190.546 22.848C189.181 21.4827 187.261 20.8 184.786 20.8C182.866 20.8 181.138 21.2907 179.602 22.272C178.066 23.2107 176.85 24.5334 175.954 26.24C175.101 27.904 174.674 29.8667 174.674 32.128C174.674 34.4747 175.357 36.3307 176.722 37.696C178.13 39.0614 180.072 39.744 182.546 39.744ZM189.394 47.488L190.738 40.64L192.978 30.4L194.322 20.16L195.73 13.056H205.715L198.866 47.488H189.394ZM222.126 48C219.651 48 217.539 47.5094 215.79 46.528C214.041 45.504 212.782 44.0534 212.014 42.176C211.289 40.256 211.182 37.9947 211.694 35.392L217.646 5.44004H227.63L221.678 35.328C221.422 36.7787 221.571 37.9307 222.126 38.784C222.681 39.6374 223.705 40.064 225.198 40.064C225.881 40.064 226.563 39.9574 227.246 39.744C227.971 39.5307 228.633 39.232 229.23 38.848L230.702 45.952C229.465 46.72 228.099 47.2534 226.606 47.552C225.113 47.8507 223.619 48 222.126 48ZM209.134 21.504L210.67 13.824H234.542L233.006 21.504H209.134ZM241.091 48C239.385 48 237.977 47.4667 236.867 46.4C235.758 45.2907 235.203 43.904 235.203 42.24C235.203 40.2347 235.843 38.6347 237.123 37.44C238.446 36.2027 240.025 35.584 241.859 35.584C243.566 35.584 244.953 36.1174 246.019 37.184C247.129 38.2507 247.683 39.6374 247.683 41.344C247.683 42.6667 247.363 43.84 246.723 44.864C246.126 45.8454 245.337 46.6134 244.355 47.168C243.374 47.7227 242.286 48 241.091 48Z" fill="url(#paint0_linear_1_537)"/>
<defs>
<linearGradient id="paint0_linear_1_537" x1="-1.856" y1="24.488" x2="266.144" y2="24.488" gradientUnits="userSpaceOnUse">
<stop stop-color="#FF671F"/>
<stop offset="0.519231" stop-color="white"/>
<stop offset="1" stop-color="#046A38"/>
</linearGradient>
</defs>
</svg>
