<svg width="1440" height="358" viewBox="0 0 1440 358" fill="none" xmlns="http://www.w3.org/2000/svg">
<rect width="1440" height="358" fill="url(#paint0_linear_1_2145)"/>
<path d="M205 125.008C205 72.5431 161.805 30 108.5 30C55.1962 30 12 72.5277 12 125.008C12 177.472 55.1962 220 108.5 220C161.805 220 205 177.472 205 125.008Z" stroke="#153660" stroke-miterlimit="10" stroke-linecap="round" stroke-linejoin="round"/>
<path d="M0.5 356.716V256.839H51.6237C64.7616 256.839 74.5674 259.264 81.0412 264.116C87.515 268.872 90.7518 275.15 90.7518 282.95C90.7518 288.086 89.3714 292.604 86.6105 296.504C83.9449 300.309 80.1368 303.353 75.1863 305.636C70.3309 307.824 64.5236 308.918 57.7642 308.918L60.6203 302.069C67.6653 302.069 73.8058 303.163 79.0419 305.351C84.2781 307.443 88.3242 310.535 91.1802 314.625C94.1315 318.62 95.6072 323.519 95.6072 329.321C95.6072 337.977 92.0847 344.731 85.0397 349.582C78.0899 354.338 67.9033 356.716 54.4797 356.716H0.5ZM28.4895 336.312H52.1949C57.0502 336.312 60.7155 335.504 63.1908 333.887C65.7612 332.175 67.0464 329.606 67.0464 326.182C67.0464 322.758 65.7612 320.237 63.1908 318.62C60.7155 316.908 57.0502 316.052 52.1949 316.052H26.4902V296.504H47.9108C52.6709 296.504 56.241 295.696 58.621 294.079C61.0011 292.462 62.1911 290.036 62.1911 286.802C62.1911 283.568 61.0011 281.19 58.621 279.668C56.241 278.051 52.6709 277.242 47.9108 277.242H28.4895V336.312Z" fill="#021D41"/>
<path d="M154.664 356.716V342.305L152.808 338.738V312.199C152.808 307.919 151.475 304.637 148.809 302.354C146.239 299.976 142.097 298.787 136.385 298.787C132.672 298.787 128.912 299.405 125.104 300.642C121.296 301.784 118.059 303.401 115.393 305.493L106.254 287.087C110.633 284.234 115.869 282.046 121.962 280.524C128.15 278.907 134.291 278.098 140.384 278.098C152.951 278.098 162.661 281 169.516 286.802C176.466 292.509 179.94 301.498 179.94 313.769V356.716H154.664ZM131.816 358C125.627 358 120.391 356.954 116.107 354.861C111.823 352.768 108.539 349.915 106.254 346.3C104.064 342.686 102.969 338.643 102.969 334.172C102.969 329.416 104.159 325.326 106.539 321.902C109.015 318.382 112.775 315.719 117.821 313.911C122.867 312.009 129.388 311.058 137.385 311.058H155.664V325.183H141.098C136.719 325.183 133.624 325.897 131.816 327.323C130.102 328.75 129.245 330.653 129.245 333.031C129.245 335.409 130.15 337.311 131.958 338.738C133.767 340.165 136.243 340.878 139.384 340.878C142.335 340.878 145.001 340.165 147.381 338.738C149.856 337.216 151.665 334.933 152.808 331.889L156.521 341.877C155.093 347.204 152.284 351.246 148.095 354.005C144.002 356.668 138.575 358 131.816 358Z" fill="#021D41"/>
<path d="M230.174 358C223.129 358 216.703 356.383 210.895 353.149C205.183 349.82 200.613 345.206 197.186 339.309C193.759 333.316 192.045 326.182 192.045 317.907C192.045 309.726 193.759 302.687 197.186 296.79C200.613 290.797 205.183 286.184 210.895 282.95C216.703 279.715 223.129 278.098 230.174 278.098C236.838 278.098 242.455 279.525 247.025 282.379C251.69 285.232 255.212 289.608 257.592 295.506C259.972 301.403 261.162 308.87 261.162 317.907C261.162 327.133 260.02 334.695 257.735 340.593C255.45 346.49 252.023 350.866 247.453 353.72C242.883 356.573 237.124 358 230.174 358ZM235.886 336.455C238.932 336.455 241.646 335.742 244.026 334.315C246.501 332.888 248.453 330.795 249.881 328.037C251.309 325.183 252.023 321.806 252.023 317.907C252.023 314.007 251.309 310.725 249.881 308.061C248.453 305.303 246.501 303.21 244.026 301.784C241.646 300.357 238.932 299.643 235.886 299.643C232.744 299.643 229.936 300.357 227.461 301.784C225.08 303.21 223.176 305.303 221.748 308.061C220.32 310.725 219.606 314.007 219.606 317.907C219.606 321.806 220.32 325.183 221.748 328.037C223.176 330.795 225.08 332.888 227.461 334.315C229.936 335.742 232.744 336.455 235.886 336.455ZM252.88 356.716V343.446L253.022 317.907L251.594 292.367V250.846H278.727V356.716H252.88Z" fill="#021D41"/>
<path d="M345.022 278.098C351.02 278.098 356.447 279.335 361.302 281.808C366.157 284.186 369.966 287.896 372.726 292.937C375.582 297.979 377.01 304.494 377.01 312.485V356.716H349.878V316.908C349.878 311.391 348.735 307.396 346.451 304.923C344.261 302.354 341.167 301.07 337.168 301.07C334.312 301.07 331.694 301.736 329.314 303.068C326.934 304.304 325.078 306.254 323.745 308.918C322.412 311.581 321.746 315.053 321.746 319.333V356.716H294.613V250.846H321.746V301.355L315.462 294.935C318.413 289.323 322.46 285.137 327.6 282.379C332.741 279.525 338.549 278.098 345.022 278.098Z" fill="#021D41"/>
<path d="M442.884 278.098C448.882 278.098 454.308 279.335 459.164 281.808C464.019 284.186 467.827 287.896 470.588 292.937C473.444 297.979 474.872 304.494 474.872 312.485V356.716H447.739V316.908C447.739 311.391 446.597 307.396 444.312 304.923C442.123 302.354 439.028 301.07 435.03 301.07C432.174 301.07 429.556 301.736 427.176 303.068C424.796 304.304 422.939 306.254 421.606 308.918C420.274 311.581 419.607 315.053 419.607 319.333V356.716H392.474V279.383H418.322V301.355L413.324 294.935C416.275 289.323 420.321 285.137 425.462 282.379C430.603 279.525 436.41 278.098 442.884 278.098Z" fill="#021D41"/>
<path d="M537.604 356.716V342.305L535.748 338.738V312.199C535.748 307.919 534.415 304.637 531.749 302.354C529.179 299.976 525.037 298.787 519.325 298.787C515.612 298.787 511.852 299.405 508.044 300.642C504.236 301.784 500.999 303.401 498.333 305.493L489.194 287.087C493.573 284.234 498.809 282.046 504.902 280.524C511.09 278.907 517.231 278.098 523.324 278.098C535.89 278.098 545.601 281 552.456 286.802C559.405 292.509 562.88 301.498 562.88 313.769V356.716H537.604ZM514.756 358C508.567 358 503.331 356.954 499.047 354.861C494.763 352.768 491.479 349.915 489.194 346.3C487.004 342.686 485.909 338.643 485.909 334.172C485.909 329.416 487.099 325.326 489.479 321.902C491.955 318.382 495.715 315.719 500.761 313.911C505.807 312.009 512.328 311.058 520.325 311.058H538.604V325.183H524.038C519.658 325.183 516.564 325.897 514.756 327.323C513.042 328.75 512.185 330.653 512.185 333.031C512.185 335.409 513.09 337.311 514.898 338.738C516.707 340.165 519.182 340.878 522.324 340.878C525.275 340.878 527.941 340.165 530.321 338.738C532.796 337.216 534.605 334.933 535.748 331.889L539.461 341.877C538.033 347.204 535.224 351.246 531.035 354.005C526.941 356.668 521.515 358 514.756 358Z" fill="#021D41"/>
<path d="M607.713 356.716L651.839 256.839H679.686L723.955 356.716H694.538L659.979 270.679H671.118L636.559 356.716H607.713ZM631.847 337.311L639.13 316.48H687.969L695.251 337.311H631.847Z" fill="#021D41"/>
<path d="M776.383 356.716V342.305L774.526 338.738V312.199C774.526 307.919 773.194 304.637 770.528 302.354C767.957 299.976 763.816 298.787 758.104 298.787C754.391 298.787 750.631 299.405 746.823 300.642C743.014 301.784 739.778 303.401 737.112 305.493L727.972 287.087C732.352 284.234 737.588 282.046 743.681 280.524C749.869 278.907 756.01 278.098 762.102 278.098C774.669 278.098 784.38 281 791.234 286.802C798.184 292.509 801.659 301.498 801.659 313.769V356.716H776.383ZM753.534 358C747.346 358 742.11 356.954 737.826 354.861C733.542 352.768 730.257 349.915 727.972 346.3C725.783 342.686 724.688 338.643 724.688 334.172C724.688 329.416 725.878 325.326 728.258 321.902C730.733 318.382 734.494 315.719 739.54 313.911C744.585 312.009 751.107 311.058 759.104 311.058H777.382V325.183H762.816C758.437 325.183 755.343 325.897 753.534 327.323C751.821 328.75 750.964 330.653 750.964 333.031C750.964 335.409 751.868 337.311 753.677 338.738C755.486 340.165 757.961 340.878 761.103 340.878C764.054 340.878 766.72 340.165 769.1 338.738C771.575 337.216 773.384 334.933 774.526 331.889L778.239 341.877C776.811 347.204 774.003 351.246 769.814 354.005C765.72 356.668 760.294 358 753.534 358Z" fill="#021D41"/>
<path d="M845.347 358C838.778 358 832.352 357.239 826.068 355.717C819.88 354.195 814.882 352.293 811.074 350.01L819.214 331.461C822.831 333.649 827.068 335.409 831.923 336.74C836.779 337.977 841.539 338.595 846.204 338.595C850.773 338.595 853.915 338.12 855.629 337.169C857.438 336.217 858.342 334.933 858.342 333.316C858.342 331.794 857.485 330.7 855.772 330.034C854.153 329.273 851.963 328.703 849.203 328.322C846.537 327.942 843.586 327.514 840.349 327.038C837.112 326.563 833.827 325.944 830.495 325.183C827.258 324.327 824.26 323.091 821.499 321.474C818.833 319.761 816.691 317.478 815.072 314.625C813.454 311.771 812.645 308.157 812.645 303.781C812.645 298.835 814.073 294.459 816.929 290.654C819.88 286.754 824.164 283.711 829.781 281.523C835.398 279.24 842.253 278.098 850.345 278.098C855.772 278.098 861.246 278.669 866.767 279.811C872.384 280.857 877.097 282.474 880.905 284.662L872.765 303.068C868.957 300.88 865.149 299.405 861.341 298.645C857.533 297.788 853.915 297.36 850.488 297.36C845.918 297.36 842.681 297.884 840.777 298.93C838.968 299.976 838.064 301.26 838.064 302.782C838.064 304.304 838.873 305.493 840.492 306.349C842.11 307.11 844.252 307.729 846.918 308.204C849.679 308.585 852.677 309.013 855.914 309.488C859.151 309.869 862.388 310.487 865.625 311.343C868.957 312.199 871.956 313.483 874.622 315.196C877.382 316.813 879.572 319.048 881.191 321.902C882.809 324.66 883.618 328.227 883.618 332.603C883.618 337.359 882.143 341.639 879.191 345.444C876.335 349.249 872.051 352.293 866.339 354.576C860.722 356.859 853.725 358 845.347 358Z" fill="#021D41"/>
<path d="M941.007 356.716V342.305L939.151 338.738V312.199C939.151 307.919 937.818 304.637 935.152 302.354C932.582 299.976 928.441 298.787 922.729 298.787C919.016 298.787 915.255 299.405 911.447 300.642C907.639 301.784 904.402 303.401 901.736 305.493L892.597 287.087C896.976 284.234 902.212 282.046 908.305 280.524C914.493 278.907 920.634 278.098 926.727 278.098C939.294 278.098 949.004 281 955.859 286.802C962.809 292.509 966.284 301.498 966.284 313.769V356.716H941.007ZM918.159 358C911.971 358 906.734 356.954 902.45 354.861C898.166 352.768 894.882 349.915 892.597 346.3C890.407 342.686 889.312 338.643 889.312 334.172C889.312 329.416 890.502 325.326 892.883 321.902C895.358 318.382 899.118 315.719 904.164 313.911C909.21 312.009 915.731 311.058 923.728 311.058H942.007V325.183H927.441C923.062 325.183 919.968 325.897 918.159 327.323C916.445 328.75 915.588 330.653 915.588 333.031C915.588 335.409 916.493 337.311 918.302 338.738C920.11 340.165 922.586 340.878 925.727 340.878C928.679 340.878 931.344 340.165 933.724 338.738C936.2 337.216 938.008 334.933 939.151 331.889L942.864 341.877C941.436 347.204 938.627 351.246 934.438 354.005C930.345 356.668 924.918 358 918.159 358Z" fill="#021D41"/>
<path d="M1029.11 356.716V342.305L1027.25 338.738V312.199C1027.25 307.919 1025.92 304.637 1023.25 302.354C1020.68 299.976 1016.54 298.787 1010.83 298.787C1007.12 298.787 1003.35 299.405 999.547 300.642C995.739 301.784 992.502 303.401 989.836 305.493L980.697 287.087C985.076 284.234 990.312 282.046 996.405 280.524C1002.59 278.907 1008.73 278.098 1014.83 278.098C1027.39 278.098 1037.1 281 1043.96 286.802C1050.91 292.509 1054.38 301.498 1054.38 313.769V356.716H1029.11ZM1006.26 358C1000.07 358 994.834 356.954 990.55 354.861C986.266 352.768 982.982 349.915 980.697 346.3C978.507 342.686 977.412 338.643 977.412 334.172C977.412 329.416 978.602 325.326 980.982 321.902C983.458 318.382 987.218 315.719 992.264 313.911C997.31 312.009 1003.83 311.058 1011.83 311.058H1030.11V325.183H1015.54C1011.16 325.183 1008.07 325.897 1006.26 327.323C1004.54 328.75 1003.69 330.653 1003.69 333.031C1003.69 335.409 1004.59 337.311 1006.4 338.738C1008.21 340.165 1010.69 340.878 1013.83 340.878C1016.78 340.878 1019.44 340.165 1021.82 338.738C1024.3 337.216 1026.11 334.933 1027.25 331.889L1030.96 341.877C1029.54 347.204 1026.73 351.246 1022.54 354.005C1018.44 356.668 1013.02 358 1006.26 358Z" fill="#021D41"/>
<path d="M1120.35 278.098C1126.35 278.098 1131.77 279.335 1136.63 281.808C1141.48 284.186 1145.29 287.896 1148.05 292.937C1150.91 297.979 1152.34 304.494 1152.34 312.485V356.716H1125.2V316.908C1125.2 311.391 1124.06 307.396 1121.78 304.923C1119.59 302.354 1116.49 301.07 1112.49 301.07C1109.64 301.07 1107.02 301.736 1104.64 303.068C1102.26 304.304 1100.4 306.254 1099.07 308.918C1097.74 311.581 1097.07 315.053 1097.07 319.333V356.716H1069.94V279.383H1095.79V301.355L1090.79 294.935C1093.74 289.323 1097.79 285.137 1102.93 282.379C1108.07 279.525 1113.87 278.098 1120.35 278.098Z" fill="#021D41"/>
<path d="M1275.91 256.839H1304.18V356.716H1275.91V256.839ZM1237.35 356.716H1209.07V256.839H1237.35V356.716ZM1277.9 317.764H1235.35V294.364H1277.9V317.764Z" fill="#021D41"/>
<path d="M1368.54 356.716V342.305L1366.68 338.738V312.199C1366.68 307.919 1365.35 304.637 1362.68 302.354C1360.11 299.976 1355.97 298.787 1350.26 298.787C1346.54 298.787 1342.78 299.405 1338.98 300.642C1335.17 301.784 1331.93 303.401 1329.27 305.493L1320.13 287.087C1324.51 284.234 1329.74 282.046 1335.83 280.524C1342.02 278.907 1348.16 278.098 1354.26 278.098C1366.82 278.098 1376.53 281 1383.39 286.802C1390.34 292.509 1393.81 301.498 1393.81 313.769V356.716H1368.54ZM1345.69 358C1339.5 358 1334.26 356.954 1329.98 354.861C1325.7 352.768 1322.41 349.915 1320.13 346.3C1317.94 342.686 1316.84 338.643 1316.84 334.172C1316.84 329.416 1318.03 325.326 1320.41 321.902C1322.89 318.382 1326.65 315.719 1331.69 313.911C1336.74 312.009 1343.26 311.058 1351.26 311.058H1369.54V325.183H1354.97C1350.59 325.183 1347.5 325.897 1345.69 327.323C1343.97 328.75 1343.12 330.653 1343.12 333.031C1343.12 335.409 1344.02 337.311 1345.83 338.738C1347.64 340.165 1350.11 340.878 1353.26 340.878C1356.21 340.878 1358.87 340.165 1361.25 338.738C1363.73 337.216 1365.54 334.933 1366.68 331.889L1370.39 341.877C1368.96 347.204 1366.16 351.246 1361.97 354.005C1357.87 356.668 1352.45 358 1345.69 358Z" fill="#021D41"/>
<path d="M1409.37 356.716V279.383H1436.5V356.716H1409.37ZM1422.93 270.822C1417.98 270.822 1413.99 269.442 1410.94 266.684C1407.89 263.925 1406.37 260.501 1406.37 256.411C1406.37 252.321 1407.89 248.896 1410.94 246.138C1413.99 243.379 1417.98 242 1422.93 242C1427.89 242 1431.88 243.332 1434.93 245.995C1437.98 248.563 1439.5 251.893 1439.5 255.983C1439.5 260.263 1437.98 263.83 1434.93 266.684C1431.98 269.442 1427.98 270.822 1422.93 270.822Z" fill="#021D41"/>
<defs>
<linearGradient id="paint0_linear_1_2145" x1="762" y1="-2.19757e-06" x2="762" y2="358" gradientUnits="userSpaceOnUse">
<stop stop-color="#01295C"/>
<stop offset="1" stop-color="#00142D"/>
</linearGradient>
</defs>
</svg>
