<svg width="199" height="158" viewBox="0 0 199 158" fill="none" xmlns="http://www.w3.org/2000/svg">
<rect width="199" height="158" rx="16" fill="url(#paint0_linear_103_224)"/>
<path d="M40.472 70.384C38.7013 70.384 37.0693 70.1067 35.576 69.552C34.104 68.976 32.8133 68.1653 31.704 67.12C30.616 66.0747 29.7627 64.848 29.144 63.44C28.5467 62.032 28.248 60.4853 28.248 58.8C28.248 57.1147 28.5467 55.568 29.144 54.16C29.7627 52.752 30.6267 51.5253 31.736 50.48C32.8453 49.4347 34.1467 48.6347 35.64 48.08C37.1333 47.504 38.776 47.216 40.568 47.216C42.552 47.216 44.3333 47.5467 45.912 48.208C47.512 48.8693 48.856 49.8293 49.944 51.088L46.616 54.16C45.8053 53.3067 44.92 52.6773 43.96 52.272C43 51.8453 41.9547 51.632 40.824 51.632C39.736 51.632 38.744 51.8027 37.848 52.144C36.952 52.4853 36.1733 52.976 35.512 53.616C34.872 54.256 34.3707 55.0133 34.008 55.888C33.6667 56.7627 33.496 57.7333 33.496 58.8C33.496 59.8453 33.6667 60.8053 34.008 61.68C34.3707 62.5547 34.872 63.3227 35.512 63.984C36.1733 64.624 36.9413 65.1147 37.816 65.456C38.712 65.7973 39.6933 65.968 40.76 65.968C41.784 65.968 42.776 65.808 43.736 65.488C44.7173 65.1467 45.6667 64.5813 46.584 63.792L49.528 67.536C48.312 68.4533 46.8933 69.1573 45.272 69.648C43.672 70.1387 42.072 70.384 40.472 70.384ZM49.528 67.536L44.792 66.864V58.448H49.528V67.536ZM62.5355 70.256C60.5728 70.256 58.8448 69.872 57.3515 69.104C55.8795 68.336 54.7382 67.2907 53.9275 65.968C53.1168 64.624 52.7115 63.0987 52.7115 61.392C52.7115 59.664 53.1062 58.1387 53.8955 56.816C54.7062 55.472 55.8048 54.4267 57.1915 53.68C58.5782 52.912 60.1462 52.528 61.8955 52.528C63.5808 52.528 65.0955 52.8907 66.4395 53.616C67.8048 54.32 68.8822 55.344 69.6715 56.688C70.4608 58.0107 70.8555 59.6 70.8555 61.456C70.8555 61.648 70.8448 61.872 70.8235 62.128C70.8022 62.3627 70.7808 62.5867 70.7595 62.8H56.7755V59.888H68.1355L66.2155 60.752C66.2155 59.856 66.0342 59.0773 65.6715 58.416C65.3088 57.7547 64.8075 57.2427 64.1675 56.88C63.5275 56.496 62.7808 56.304 61.9275 56.304C61.0742 56.304 60.3168 56.496 59.6555 56.88C59.0155 57.2427 58.5142 57.7653 58.1515 58.448C57.7888 59.1093 57.6075 59.8987 57.6075 60.816V61.584C57.6075 62.5227 57.8102 63.3547 58.2155 64.08C58.6422 64.784 59.2288 65.328 59.9755 65.712C60.7435 66.0747 61.6395 66.256 62.6635 66.256C63.5808 66.256 64.3808 66.1173 65.0635 65.84C65.7675 65.5627 66.4075 65.1467 66.9835 64.592L69.6395 67.472C68.8502 68.368 67.8582 69.0613 66.6635 69.552C65.4688 70.0213 64.0928 70.256 62.5355 70.256ZM81.219 70.256C79.1923 70.256 77.6137 69.744 76.483 68.72C75.3523 67.6747 74.787 66.128 74.787 64.08V48.976H79.779V64.016C79.779 64.7413 79.971 65.3067 80.355 65.712C80.739 66.096 81.2617 66.288 81.923 66.288C82.7123 66.288 83.3843 66.0747 83.939 65.648L85.283 69.168C84.771 69.5307 84.1523 69.808 83.427 70C82.723 70.1707 81.987 70.256 81.219 70.256ZM72.131 56.624V52.784H84.067V56.624H72.131ZM97.1478 70V52.784H102.14V70H97.1478ZM99.6438 50.384C98.7264 50.384 97.9798 50.1173 97.4038 49.584C96.8278 49.0507 96.5398 48.3893 96.5398 47.6C96.5398 46.8107 96.8278 46.1493 97.4038 45.616C97.9798 45.0827 98.7264 44.816 99.6438 44.816C100.561 44.816 101.308 45.072 101.884 45.584C102.46 46.0747 102.748 46.7147 102.748 47.504C102.748 48.336 102.46 49.0293 101.884 49.584C101.329 50.1173 100.582 50.384 99.6438 50.384ZM106.773 70V52.784H111.541V57.552L110.645 56.112C111.263 54.96 112.149 54.0747 113.301 53.456C114.453 52.8373 115.765 52.528 117.237 52.528C118.602 52.528 119.818 52.8053 120.885 53.36C121.973 53.8933 122.826 54.7253 123.445 55.856C124.063 56.9653 124.373 58.3947 124.373 60.144V70H119.381V60.912C119.381 59.5253 119.071 58.5013 118.453 57.84C117.855 57.1787 117.002 56.848 115.893 56.848C115.103 56.848 114.389 57.0187 113.749 57.36C113.13 57.68 112.639 58.1813 112.277 58.864C111.935 59.5467 111.765 60.4213 111.765 61.488V70H106.773Z" fill="#01295C"/>
<path d="M36.12 113V90.28H27.16V85H51.56V90.28H42.6V113H36.12ZM62.6591 113.32C60.3657 113.32 58.3257 112.84 56.5391 111.88C54.7791 110.92 53.3791 109.613 52.3391 107.96C51.3257 106.28 50.8191 104.373 50.8191 102.24C50.8191 100.08 51.3257 98.1733 52.3391 96.52C53.3791 94.84 54.7791 93.5333 56.5391 92.6C58.3257 91.64 60.3657 91.16 62.6591 91.16C64.9257 91.16 66.9524 91.64 68.7391 92.6C70.5257 93.5333 71.9257 94.8267 72.9391 96.48C73.9524 98.1333 74.4591 100.053 74.4591 102.24C74.4591 104.373 73.9524 106.28 72.9391 107.96C71.9257 109.613 70.5257 110.92 68.7391 111.88C66.9524 112.84 64.9257 113.32 62.6591 113.32ZM62.6591 108.2C63.6991 108.2 64.6324 107.96 65.4591 107.48C66.2857 107 66.9391 106.32 67.4191 105.44C67.8991 104.533 68.1391 103.467 68.1391 102.24C68.1391 100.987 67.8991 99.92 67.4191 99.04C66.9391 98.16 66.2857 97.48 65.4591 97C64.6324 96.52 63.6991 96.28 62.6591 96.28C61.6191 96.28 60.6857 96.52 59.8591 97C59.0324 97.48 58.3657 98.16 57.8591 99.04C57.3791 99.92 57.1391 100.987 57.1391 102.24C57.1391 103.467 57.3791 104.533 57.8591 105.44C58.3657 106.32 59.0324 107 59.8591 107.48C60.6857 107.96 61.6191 108.2 62.6591 108.2ZM87.71 113.32C85.9233 113.32 84.3233 112.973 82.91 112.28C81.5233 111.587 80.4433 110.533 79.67 109.12C78.8967 107.68 78.51 105.853 78.51 103.64V91.48H84.75V102.72C84.75 104.507 85.1233 105.827 85.87 106.68C86.6433 107.507 87.7233 107.92 89.11 107.92C90.07 107.92 90.9233 107.72 91.67 107.32C92.4167 106.893 93.0033 106.253 93.43 105.4C93.8567 104.52 94.07 103.427 94.07 102.12V91.48H100.31V113H94.39V107.08L95.47 108.8C94.75 110.293 93.6833 111.427 92.27 112.2C90.8833 112.947 89.3633 113.32 87.71 113.32ZM116.491 113.32C114.171 113.32 112.104 112.853 110.291 111.92C108.478 110.96 107.051 109.64 106.011 107.96C104.998 106.28 104.491 104.373 104.491 102.24C104.491 100.08 104.998 98.1733 106.011 96.52C107.051 94.84 108.478 93.5333 110.291 92.6C112.104 91.64 114.171 91.16 116.491 91.16C118.758 91.16 120.731 91.64 122.411 92.6C124.091 93.5333 125.331 94.88 126.131 96.64L121.291 99.24C120.731 98.2267 120.024 97.48 119.171 97C118.344 96.52 117.438 96.28 116.451 96.28C115.384 96.28 114.424 96.52 113.571 97C112.718 97.48 112.038 98.16 111.531 99.04C111.051 99.92 110.811 100.987 110.811 102.24C110.811 103.493 111.051 104.56 111.531 105.44C112.038 106.32 112.718 107 113.571 107.48C114.424 107.96 115.384 108.2 116.451 108.2C117.438 108.2 118.344 107.973 119.171 107.52C120.024 107.04 120.731 106.28 121.291 105.24L126.131 107.88C125.331 109.613 124.091 110.96 122.411 111.92C120.731 112.853 118.758 113.32 116.491 113.32ZM129.568 113V83.32H135.808V97.44L134.408 95.64C135.181 94.2 136.288 93.0933 137.728 92.32C139.168 91.5467 140.808 91.16 142.648 91.16C144.354 91.16 145.874 91.5067 147.208 92.2C148.568 92.8667 149.634 93.9067 150.408 95.32C151.181 96.7067 151.568 98.4933 151.568 100.68V113H145.328V101.64C145.328 99.9067 144.941 98.6267 144.168 97.8C143.421 96.9733 142.354 96.56 140.968 96.56C139.981 96.56 139.088 96.7733 138.288 97.2C137.514 97.6 136.901 98.2267 136.448 99.08C136.021 99.9333 135.808 101.027 135.808 102.36V113H129.568Z" fill="#E04A00"/>
<path d="M163.463 100.5H181.547" stroke="#E04A00" stroke-width="4" stroke-linecap="round" stroke-linejoin="round"/>
<path d="M172.5 91.4583L181.542 100.5L172.5 109.542" stroke="#E04A00" stroke-width="4" stroke-linecap="round" stroke-linejoin="round"/>
<defs>
<linearGradient id="paint0_linear_103_224" x1="15" y1="18" x2="199" y2="158" gradientUnits="userSpaceOnUse">
<stop stop-color="white"/>
<stop offset="1" stop-color="#FFEAE0"/>
</linearGradient>
</defs>
</svg>
