<svg width="264" height="165" viewBox="0 0 264 165" fill="none" xmlns="http://www.w3.org/2000/svg">
<rect x="0.5" y="0.5" width="262.5" height="164" rx="15.5" fill="#E04A00"/>
<rect x="0.5" y="0.5" width="262.5" height="164" rx="15.5" stroke="#E04A00"/>
<g clip-path="url(#clip0_60_517)">
<path d="M55.4529 77.3544H61.982V99.8452H55.4529V77.3544Z" fill="white"/>
<path d="M80.4717 77.0209C83.2621 77.0209 85.5084 77.857 87.2103 79.5291C88.9404 81.2013 89.8052 83.6817 89.8052 86.9702V99.846H83.2761V87.9735C83.2761 86.1899 82.8854 84.8661 82.1041 84.0022C81.3228 83.1103 80.1929 82.6644 78.714 82.6644C77.0677 82.6644 75.7563 83.18 74.7798 84.2112C73.8032 85.2145 73.3148 86.7194 73.3148 88.726V99.846H66.7857V77.3553H73.0218V79.989C73.8868 79.0414 74.9611 78.3168 76.2445 77.8151C77.5281 77.2856 78.9373 77.0209 80.4717 77.0209Z" fill="white"/>
<path d="M58.6443 65L63.2886 69.6388L58.6443 74.2776L54 69.6388L58.6443 65Z" fill="white"/>
<path d="M112.302 99.7286C103.545 99.7286 96.8802 93.755 96.8802 85.0079C96.8802 76.2181 103.545 70.2871 112.302 70.2871C119.18 70.2871 122.854 74.17 124.734 77.9248L118.411 80.9117C117.471 78.6502 115.036 76.7728 112.302 76.7728C107.646 76.7728 104.356 80.357 104.356 85.0079C104.356 89.6588 107.646 93.2429 112.302 93.2429C115.036 93.2429 117.471 91.3656 118.411 89.1041L124.734 92.091C122.897 95.7603 119.18 99.7286 112.302 99.7286Z" fill="white"/>
<path d="M141.71 99.7286C132.995 99.7286 126.459 93.6697 126.459 85.0079C126.459 76.3461 132.995 70.2871 141.71 70.2871C150.424 70.2871 156.918 76.3461 156.918 85.0079C156.918 93.6697 150.424 99.7286 141.71 99.7286ZM141.71 93.2429C146.409 93.2429 149.442 89.6161 149.442 85.0079C149.442 80.357 146.409 76.7728 141.71 76.7728C136.968 76.7728 133.935 80.357 133.935 85.0079C133.935 89.6161 136.968 93.2429 141.71 93.2429Z" fill="white"/>
<path d="M184.926 99.2167H176.51L171.726 89.6588H167.966V99.2167H160.618V70.7564H174.887C181.209 70.7564 184.798 74.938 184.798 80.2289C184.798 85.1785 181.765 87.824 179.116 88.7627L184.926 99.2167ZM173.776 83.2584C175.698 83.2584 177.322 82.1917 177.322 80.1863C177.322 78.2662 175.698 77.1568 173.776 77.1568H167.966V83.2584H173.776Z" fill="white"/>
<path d="M209.752 99.2167H188.862V70.7564H209.752V77.1568H196.209V81.5943H201.925V87.9947H196.209V92.8162H209.752V99.2167Z" fill="white"/>
<path d="M112.013 91.963C110.258 91.963 108.574 91.2391 107.333 89.9507C106.092 88.6622 105.394 86.9147 105.394 85.0926C105.394 83.2705 106.092 81.523 107.333 80.2345C108.574 78.9461 110.258 78.2222 112.013 78.2222V85.0926V91.963Z" fill="white"/>
<path d="M141.864 91.7037C145.519 91.7037 148.483 88.7438 148.483 85.0926C148.483 81.4414 145.519 78.4815 141.864 78.4815C138.208 78.4815 135.245 81.4414 135.245 85.0926C135.245 88.7438 138.208 91.7037 141.864 91.7037Z" fill="white"/>
<path d="M169.248 78.2167H173.985C175.096 78.2167 175.997 79.1163 175.997 80.2259C175.997 81.3356 175.096 82.2352 173.985 82.2352H169.248V78.2167Z" fill="white"/>
<path d="M202.732 81.587H206.885V87.99H202.732V81.587Z" fill="white"/>
</g>
<defs>
<clipPath id="clip0_60_517">
<rect width="156" height="35" fill="white" transform="translate(54 65)"/>
</clipPath>
</defs>
</svg>
