<svg width="544" height="78" viewBox="0 0 544 78" fill="none" xmlns="http://www.w3.org/2000/svg">
<path d="M3.88772 59.3711C5.75089 60.0062 9.17363 59.8721 10.0922 59.1699C8.02391 59.0858 5.95422 58.7674 3.88772 59.3711ZM330.374 26.7241C330.126 26.7774 329.88 26.8684 329.631 26.8787C327.262 26.9819 324.891 27.0426 322.523 27.1832C321.963 27.2159 321.237 27.3279 320.898 27.7015C320.079 28.6017 319.113 28.7493 318.021 28.8109C316.527 28.894 316.286 29.1187 315.454 30.7819C317.324 31.8858 319.398 31.1274 321.296 31.5229C321.062 31.7158 320.787 31.9413 320.261 32.3742C321.244 32.7449 321.979 33.2156 322.742 33.2726C324.854 33.4295 326.978 33.4132 329.097 33.4678C329.686 33.4832 330.284 33.4552 330.863 33.5444C332.374 33.7774 333.755 33.33 335.314 32.879C335.006 32.4802 334.807 32.222 334.482 31.8017C335.733 31.8017 336.868 31.8017 338 31.8017C337.485 33.7433 337.346 33.8684 335.583 33.9319C334.109 33.9852 332.632 34.0108 331.159 34.101C330.636 34.1336 330.062 34.2055 329.61 34.4516C327.851 35.4121 325.982 35.443 324.076 35.2982C323.783 35.2758 323.425 35.0969 323.21 35.2118C321.518 36.1182 319.7 35.4733 317.972 35.7348C316.74 35.9216 315.557 36.4553 314.352 36.8335C314.355 36.9755 314.359 37.1184 314.362 37.2603C314.998 37.4069 315.632 37.5643 316.27 37.6997C318.733 38.2217 321.119 39.0445 323.734 38.805C326.199 38.579 328.699 38.7559 331.526 38.7559C331.017 39.0352 330.798 39.2448 330.559 39.2724C328.087 39.5581 325.614 39.8421 323.136 40.0606C322.377 40.1283 321.6 39.9859 320.831 39.9532C319.946 39.9149 319.046 39.7767 318.176 39.8813C314.645 40.3053 311.125 40.824 307.597 41.2648C306.485 41.4035 305.355 41.3858 304.237 41.4824C303.12 41.5786 301.989 41.6473 300.896 41.8821C300.059 42.0614 299.395 42.5788 299.515 43.8564C303.25 44.0039 306.935 43.6677 310.881 43.3026C309.969 44.5479 308.78 44.5666 307.784 44.7006C302.678 45.3842 297.556 45.9464 292.44 46.5539C292.206 46.5815 291.949 46.5735 291.746 46.6739C291.555 46.7692 291.281 46.9947 291.291 47.1455C291.308 47.4066 291.46 47.7829 291.66 47.8772C292.014 48.043 292.445 48.0841 292.846 48.0892C294.5 48.1098 296.154 48.0976 297.932 48.0976C297.614 48.7822 297.355 49.3421 297.056 49.986C298.504 50.7718 299.941 50.2956 301.314 50.3894C302.642 50.4791 303.98 50.4081 305.325 50.6364C302.099 51.5017 298.666 50.6981 295.511 51.9415C295.335 52.9543 295.773 53.2733 296.567 53.2863C297.873 53.3069 299.177 53.3601 300.482 53.3583C303.923 53.3517 307.365 53.2933 310.805 53.3223C311.742 53.3307 312.674 53.5908 313.612 53.7075C314.903 53.8696 316.197 54.1329 317.489 54.1287C321.991 54.1133 326.492 53.9905 330.994 53.9391C331.688 53.9312 332.384 54.0806 333.084 54.3267C330.878 55.1639 328.541 54.8394 326.287 55.1761C323.981 55.5188 321.647 55.6603 319.325 55.89C319.314 56.0521 319.303 56.2155 319.291 56.3775C319.695 56.462 320.1 56.6185 320.504 56.6199C323.461 56.6278 326.417 56.5872 329.374 56.6003C330.832 56.6063 332.321 56.3729 334.058 57.1055C330.423 57.3576 327.127 57.5864 323.69 57.825C323.885 59.5481 322.812 59.9795 321.455 60.1593C319.401 60.432 317.348 60.7351 315.301 61.0624C314.425 61.2025 313.539 61.3636 312.704 61.6535C312.215 61.8235 311.817 62.2662 311.444 62.7994C313.14 63.4153 314.822 63.1646 316.629 63.187C316.27 64.0873 315.574 64.0513 315.008 64.1106C313.061 64.3137 311.107 64.4351 309.159 64.6312C308.397 64.7088 307.634 64.8638 306.898 65.0739C306.697 65.1313 306.45 65.5334 306.471 65.7514C306.494 65.9737 306.798 66.3029 307.02 66.3417C307.714 66.4631 308.428 66.4701 309.46 66.5448C307.327 67.5907 305.237 67.3946 303.305 67.8961C301.416 68.3859 299.537 68.9159 297.671 69.5986C299.047 70.1921 300.409 69.8704 301.798 69.6911C303.245 69.5052 304.718 69.5244 306.268 69.7588C306.018 69.8937 305.775 70.1305 305.518 70.1459C303.456 70.2743 301.372 70.2126 299.331 70.4895C293.513 71.2796 287.639 70.9906 281.812 71.635C270.716 72.8621 259.561 73.1381 248.42 73.6256C246.289 73.718 244.151 73.6391 242.017 73.6802C241.255 73.6947 240.496 73.8287 239.737 73.9127C239.45 73.9445 239.161 74.036 238.877 74.0215C237.231 73.9365 235.585 73.7488 233.939 73.7404C227.236 73.7068 220.532 73.7428 213.828 73.7161C210.933 73.7049 208.038 73.6045 205.142 73.549C204.905 73.5448 204.657 73.5359 204.433 73.5999C200.874 74.6047 197.245 73.9828 193.652 74.0467C184.279 74.213 174.903 74.2326 165.529 74.3054C159.12 74.3544 152.711 74.3885 146.302 74.4385C142.038 74.4717 137.774 74.5328 133.508 74.5585C124.613 74.6127 115.718 74.6598 106.823 74.692C102.848 74.7079 98.8727 74.6631 94.8979 74.6897C93.9729 74.6958 93.0475 74.8802 92.1207 74.983C91.8946 75.893 92.2178 76.3511 92.8642 76.5131C93.4327 76.6556 94.0363 76.6742 94.6257 76.6957C98.5385 76.8381 102.452 76.9633 106.366 77.1048C106.575 77.1127 106.782 77.2122 106.991 77.6212C105.105 77.7547 103.218 77.9985 101.332 77.9999C96.4716 78.0036 91.6101 77.9093 86.7481 77.8365C83.3122 77.7856 79.873 77.7823 76.4421 77.6212C70.7609 77.3546 65.0771 77.0716 59.4078 76.6191C54.6224 76.2386 49.8589 75.5825 45.0813 75.0918C37.7672 74.3404 30.4481 73.6349 23.1335 72.891C21.7189 72.7482 20.3103 72.5334 18.9034 72.319C18.5214 72.2607 18.1567 72.0818 17.7838 71.9581C17.782 71.8339 17.7797 71.7092 17.7779 71.5841C18.4243 71.5378 19.0776 71.4108 19.7181 71.4589C22.5514 71.6732 25.381 71.9385 28.2125 72.1878C28.3296 72.1981 28.4486 72.2625 28.5617 72.2504C30.3496 72.0697 32.1362 71.8801 33.8777 71.6966C33.0366 71.0223 30.9291 70.6483 27.0103 70.3485C24.5276 70.1585 22.0586 69.8055 19.5809 69.5444C17.2103 69.2951 14.8366 69.0705 12.4646 68.8352C12.461 68.6941 12.4569 68.5531 12.4537 68.4126C13.8591 68.2898 15.2651 68.1684 16.9322 68.0231C15.6261 66.3389 13.8578 67.5394 12.3908 66.7348C13.9047 66.0933 15.4871 66.8044 16.8547 65.8047C15.7155 65.0482 14.5845 65.3704 13.5017 65.3036C12.3798 65.235 11.2552 65.1159 10.1474 64.9245C9.10844 64.7447 7.98653 65.4708 7.00685 64.5626C11.7503 64.5593 16.4358 63.9126 21.1623 63.8239C21.1783 63.6726 21.1942 63.5208 21.2102 63.3686C20.9421 63.2066 20.6896 62.9432 20.4037 62.8989C19.1327 62.7032 17.8549 62.5342 16.5748 62.4231C13.9872 62.1975 11.4471 61.5882 8.81531 61.6619C6.98815 61.7128 5.15324 61.3449 3.31833 61.2305C1.94659 61.145 0.880301 60.5978 0 59.2693C0.413026 59.0849 0.74125 58.8304 1.08635 58.8038C3.44734 58.6175 5.81107 58.4811 8.17389 58.3251C9.88799 58.2117 11.5592 58.1141 13.0222 56.8963C13.5874 56.4252 14.5758 56.4093 15.385 56.3369C20.0431 55.9246 24.704 55.5422 29.3663 55.1784C32.6719 54.9211 35.9802 54.6792 39.2903 54.4939C40.2873 54.4383 41.2957 54.6372 42.2996 54.6465C43.4197 54.6578 44.5443 54.6241 45.6612 54.535C46.3437 54.4813 46.8921 54.1586 46.95 53.0496C44.217 52.8824 41.5323 52.7176 38.7651 52.549C39.6094 51.2374 40.8526 50.7513 42.2727 50.5841C45.1953 50.2409 48.0915 49.6199 51.0597 49.738C51.5484 49.7572 52.0435 49.6176 52.5359 49.5512C52.5431 49.4322 52.5509 49.3126 52.5582 49.1936C52.2746 49.0824 51.9838 48.8592 51.7075 48.8756C49.8804 48.9862 48.0568 49.1525 46.2315 49.2921C42.8051 49.5545 39.3792 49.8258 35.951 50.0649C34.1799 50.1886 32.4052 50.3371 30.6332 50.3189C28.8607 50.3002 27.0846 50.1569 25.5187 49.0899C25.2064 48.8774 24.7227 48.9297 24.3193 48.855C20.8824 48.2204 17.4455 47.5873 14.0119 46.9382C13.8696 46.9116 13.7538 46.7314 13.5915 46.5927C14.191 45.9072 14.7905 46.3461 15.405 46.4442C17.5499 46.7855 19.709 47.2964 21.8507 46.4363C22.3148 46.2495 22.7383 45.9567 23.1559 45.5005C18.9426 45.4641 14.8429 44.9107 10.7596 43.7803C11.1266 43.6799 11.4872 43.5314 11.8597 43.4903C12.4491 43.4259 13.0504 43.4768 13.6376 43.3992C14.3551 43.3054 15.3407 43.6215 15.5833 42.569C15.8212 41.5408 14.7353 41.595 14.2471 41.156C14.2093 41.1224 14.1942 41.0631 14.1441 40.9716C14.4905 40.7022 14.842 40.4285 15.4429 39.9607C14.5913 39.7426 14.0064 39.5922 13.2515 39.3985C13.4388 39.066 13.5359 38.6336 13.7465 38.564C14.5895 38.2885 15.4693 38.1335 16.3327 37.9201C18.21 37.455 20.0855 36.982 22.1798 36.4576C21.4404 35.5004 20.5856 35.3505 19.9542 35.4672C18.8966 35.6634 17.653 35.3188 16.79 36.3376C16.6952 36.4483 16.3998 36.4123 16.2019 36.3932C15.9325 36.3684 15.6143 36.1686 15.4069 36.2596C12.8011 37.4027 10.1633 36.7672 7.55436 36.3712C6.75383 36.2494 6.02123 35.6531 5.07665 35.1847C6.96672 34.3592 10.244 33.6835 11.6933 33.7381C12.6962 33.776 13.6189 33.4963 14.8908 32.8514C12.7742 32.2066 11.0336 33.0251 9.13671 32.7842C9.95729 31.6285 10.8859 30.8179 12.1268 30.6189C13.9339 30.3299 14.6934 28.6872 16.0916 27.8953C16.0624 27.7603 16.0337 27.6258 16.0045 27.4909C15.0485 27.4405 14.0529 27.539 13.1462 27.2952C12.259 27.058 11.4621 26.4706 10.5814 26.0135C10.8859 25.1291 11.1567 24.3437 11.4393 23.5228C10.0061 22.8195 9.49365 24.8545 8.18346 24.5416C7.88942 24.1027 7.56529 23.6171 7.26532 23.1693C7.93638 20.5315 10.4738 19.974 12.3807 18.702C12.3288 18.5923 12.2759 18.483 12.223 18.3742C11.9636 18.3486 11.7024 18.2892 11.4462 18.3075C11.1622 18.328 10.8841 18.4209 10.5125 18.5013C10.2404 17.7322 9.99102 17.0252 9.70701 16.2225C10.8777 15.7411 12.0229 15.2775 13.1617 14.7988C14.2061 14.3594 15.555 15.1845 16.4969 13.9705C16.0018 13.0889 15.1552 13.2406 14.4454 13.1529C13.7807 13.0707 13.0983 13.1351 12.3488 12.8358C14.1163 12.0733 15.9215 11.3906 17.6438 10.5328C21.4513 8.63609 25.6308 8.27141 29.6795 7.41643C35.1974 6.25093 40.7482 5.22739 46.3127 4.32012C51.9934 3.39464 57.6909 2.52704 63.4108 1.91955C69.2999 1.2943 75.2226 1.02255 81.1299 0.576622C82.2732 0.489769 83.2971 1.03375 84.5184 0.893204C86.4249 0.674202 88.3961 1.08839 90.3414 1.14957C91.3981 1.18319 92.4653 1.09026 93.5184 0.966988C95.7535 0.703629 97.9828 0.380028 100.216 0.0886536C100.508 0.0508347 100.877 -0.0710373 101.09 0.057373C102.847 1.11687 104.69 0.361343 106.493 0.383759C107.166 0.391228 107.838 0.384689 108.51 0.384689C108.53 0.507034 108.549 0.630783 108.567 0.75312C107.89 1.08418 107.214 1.41618 106.537 1.74818C106.557 1.87006 106.575 1.99098 106.594 2.11239C107.371 2.16235 108.15 2.18804 108.924 2.26695C109.687 2.34493 110.442 2.55273 111.204 2.57327C113.747 2.64285 116.293 2.72176 118.835 2.66992C122.325 2.59895 125.811 2.36316 129.302 2.29172C131.713 2.24222 134.129 2.35008 136.542 2.38604C136.78 2.38978 137.018 2.40144 137.253 2.37576C142.503 1.79861 147.759 1.79113 153.028 2.0755C155.009 2.1829 157.005 1.97372 158.994 1.95737C163.601 1.91955 168.208 1.91209 172.815 1.89388C173.053 1.89201 173.295 1.87331 173.527 1.91207C181.064 3.13687 188.676 2.74043 196.256 2.95989C208.294 3.30823 220.335 3.54032 232.376 3.792C235.573 3.85877 238.772 3.82188 241.97 3.81954C243.242 3.81861 243.468 4.0843 243.451 5.3656C243.446 5.71487 243.767 6.06837 243.978 6.50029C243.764 6.51897 243.391 6.55351 243.018 6.5862C241.369 6.72955 239.721 6.8673 238.074 7.02233C237.843 7.04474 237.57 7.08537 237.399 7.22311C235.781 8.52262 233.984 8.21117 232.18 7.86843C231.438 7.72741 229.774 8.20791 228.886 8.66178C228.526 8.84529 227.947 8.84155 227.569 8.67765C226.389 8.16775 225.202 7.95482 223.622 8.19063C223.461 8.62815 223.279 9.11892 223.031 9.79272C223.919 9.92207 224.664 10.1126 225.414 10.1289C233.773 10.3082 242.134 10.4268 250.493 10.6416C253.156 10.7103 255.81 11.1081 258.472 11.201C262.678 11.3467 266.89 11.3201 271.097 11.4513C273.224 11.5176 275.344 11.8221 277.472 11.9243C282.034 12.141 286.598 12.3245 291.163 12.4702C296.38 12.6383 301.599 12.756 306.818 12.883C307.988 12.911 309.158 12.8872 310.263 12.8872C310.635 13.666 310.453 14.1026 309.772 14.225C309.31 14.3085 308.824 14.2441 308.356 14.3057C308.065 14.3454 307.788 14.4967 307.522 14.7526C309.453 15.4857 311.511 14.7918 313.438 15.2326C313.44 15.3783 313.444 15.5235 313.446 15.6692C312.715 15.7687 311.985 15.9097 311.25 15.9611C308.837 16.1306 306.421 16.2627 304.008 16.4247C303.597 16.4523 303.162 16.485 302.788 16.6419C300.753 17.4954 298.607 17.5417 296.478 17.4586C292.562 17.3049 288.69 17.7714 284.804 18.0871C283.329 18.2071 281.838 18.1169 280.357 18.1781C279.816 18.2001 279.281 18.3812 278.743 18.4891C278.745 18.6203 278.748 18.7511 278.749 18.8813C279.048 18.9841 279.343 19.1657 279.643 19.1769C285.085 19.3777 290.527 19.5528 295.969 19.7475C296.738 19.7751 297.508 19.9464 298.273 19.9217C299.331 19.8881 300.157 20.3382 300.655 21.1927C301.035 21.8418 301.472 21.9506 302.105 21.9454C303.23 21.937 304.357 21.9711 305.483 22.0169C306.337 22.0519 307.249 21.8427 307.857 22.828C308.016 23.0862 308.619 23.0965 309.027 23.1488C310.435 23.3281 311.855 23.6582 313.253 23.5882C314.979 23.5004 316.208 24.4721 317.49 25.2888C318.151 25.7095 318.736 25.8365 319.461 25.8636C322.897 25.9911 326.332 26.1643 329.766 26.3263C329.965 26.3357 330.163 26.3992 330.362 26.4379C330.366 26.5332 330.369 26.6294 330.374 26.7241Z" fill="white"/>
<path d="M272.93 14.0139C273.166 13.4223 273.308 13.0646 273.526 12.5146C271.936 12.3946 270.488 12.2386 269.035 12.1835C265.428 12.049 261.82 11.9258 258.211 11.8739C256.984 11.8571 255.752 12.0705 254.523 12.1803C254.405 12.1905 254.289 12.2241 254.17 12.2335C251.637 12.424 249.058 12.9811 246.582 12.6761C244.87 12.4651 243.375 13.1795 241.732 12.9829C240.154 12.7934 238.536 12.9605 236.936 12.9376C235.9 12.9222 234.866 12.8447 233.804 12.4978C234.118 12.3801 234.425 12.1938 234.747 12.1578C236.332 11.9785 237.928 11.8861 239.507 11.6666C240.328 11.5527 241.342 11.69 241.652 10.4652C241.7 10.2779 242.255 10.1098 242.565 10.1262C246.112 10.3176 249.655 10.6057 253.202 10.7523C258.949 10.99 264.699 11.1665 270.449 11.3047C271.398 11.3276 272.355 11.0241 273.291 10.6221C270.614 9.77968 267.9 9.80304 265.181 9.71712C262.457 9.63167 259.741 9.3244 257.021 9.12035C254.269 8.91349 251.515 8.71364 248.762 8.51145C248.754 8.38864 248.746 8.26679 248.739 8.14398C249.154 8.08421 249.571 7.96841 249.986 7.97262C254.727 8.02071 259.468 8.03471 264.206 8.16453C268.108 8.27286 272.005 8.58103 275.908 8.69123C277.86 8.74726 279.817 8.56096 281.772 8.48484C285.144 8.35363 288.514 8.172 291.887 8.1099C294.43 8.06273 296.975 8.16125 299.519 8.21728C300.091 8.22989 300.661 8.3373 301.232 8.40174C301.249 8.54042 301.266 8.67863 301.284 8.81731C300 9.15772 298.715 9.49859 297.258 9.88429C297.949 10.6646 298.766 10.5679 299.459 10.6211C306.31 11.1408 313.164 11.6176 320.017 12.1158C320.099 12.1219 320.172 12.2531 320.369 12.4394C320.028 12.6108 319.754 12.8088 319.45 12.8919C316.967 13.5699 314.45 13.6287 311.906 13.3588C310.862 13.2482 309.801 13.2033 308.755 13.2566C304.266 13.483 299.785 13.8809 295.28 13.7053C292.439 13.5956 289.592 13.5876 286.748 13.6142C285.099 13.6297 283.451 13.8809 281.802 13.8879C280.176 13.8939 278.54 14.3665 276.906 13.6581C276.38 13.4307 275.636 13.724 274.994 13.7875C274.367 13.85 273.742 13.9248 272.93 14.0139Z" fill="white"/>
<path d="M209.888 59.3711C211.751 60.0062 215.174 59.8721 216.092 59.1699C214.024 59.0858 211.954 58.7674 209.888 59.3711ZM536.374 26.7241C536.126 26.7774 535.88 26.8684 535.631 26.8787C533.262 26.9819 530.891 27.0426 528.523 27.1832C527.963 27.2159 527.237 27.3279 526.898 27.7015C526.079 28.6017 525.113 28.7493 524.021 28.8109C522.527 28.894 522.286 29.1187 521.454 30.7819C523.324 31.8858 525.398 31.1274 527.296 31.5229C527.062 31.7158 526.787 31.9413 526.261 32.3742C527.244 32.7449 527.979 33.2156 528.742 33.2726C530.854 33.4295 532.978 33.4132 535.097 33.4678C535.686 33.4832 536.284 33.4552 536.863 33.5444C538.374 33.7774 539.755 33.33 541.314 32.879C541.006 32.4802 540.807 32.222 540.482 31.8017C541.733 31.8017 542.868 31.8017 544 31.8017C543.485 33.7433 543.346 33.8684 541.583 33.9319C540.109 33.9852 538.632 34.0108 537.159 34.101C536.636 34.1336 536.062 34.2055 535.61 34.4516C533.851 35.4121 531.982 35.443 530.076 35.2982C529.783 35.2758 529.425 35.0969 529.21 35.2118C527.518 36.1182 525.7 35.4733 523.972 35.7348C522.74 35.9216 521.557 36.4553 520.352 36.8335C520.355 36.9755 520.359 37.1184 520.362 37.2603C520.998 37.4069 521.632 37.5643 522.27 37.6997C524.733 38.2217 527.119 39.0445 529.734 38.805C532.199 38.579 534.699 38.7559 537.526 38.7559C537.017 39.0352 536.798 39.2448 536.559 39.2724C534.087 39.5581 531.614 39.8421 529.137 40.0606C528.377 40.1283 527.6 39.9859 526.831 39.9532C525.946 39.9149 525.046 39.7767 524.176 39.8813C520.645 40.3053 517.125 40.824 513.597 41.2648C512.485 41.4035 511.355 41.3858 510.237 41.4824C509.12 41.5786 507.989 41.6473 506.896 41.8821C506.059 42.0614 505.395 42.5788 505.515 43.8564C509.25 44.0039 512.935 43.6677 516.881 43.3026C515.969 44.5479 514.78 44.5666 513.784 44.7006C508.678 45.3842 503.556 45.9464 498.44 46.5539C498.206 46.5815 497.949 46.5735 497.746 46.6739C497.555 46.7692 497.281 46.9947 497.291 47.1455C497.308 47.4066 497.46 47.7829 497.66 47.8772C498.014 48.043 498.445 48.0841 498.846 48.0892C500.5 48.1098 502.154 48.0976 503.932 48.0976C503.614 48.7822 503.355 49.3421 503.056 49.986C504.504 50.7718 505.941 50.2956 507.314 50.3894C508.642 50.4791 509.98 50.4081 511.325 50.6364C508.099 51.5017 504.666 50.6981 501.511 51.9415C501.335 52.9543 501.773 53.2733 502.567 53.2863C503.873 53.3069 505.177 53.3601 506.482 53.3583C509.924 53.3517 513.365 53.2933 516.805 53.3223C517.742 53.3307 518.674 53.5908 519.612 53.7075C520.903 53.8696 522.197 54.1329 523.489 54.1287C527.991 54.1133 532.492 53.9905 536.994 53.9391C537.688 53.9312 538.384 54.0806 539.084 54.3267C536.878 55.1639 534.541 54.8394 532.287 55.1761C529.981 55.5188 527.647 55.6603 525.325 55.89C525.314 56.0521 525.303 56.2155 525.291 56.3775C525.695 56.462 526.1 56.6185 526.504 56.6199C529.461 56.6278 532.417 56.5872 535.374 56.6003C536.832 56.6063 538.321 56.3729 540.058 57.1055C536.423 57.3576 533.127 57.5864 529.69 57.825C529.885 59.5481 528.812 59.9795 527.455 60.1593C525.401 60.432 523.348 60.7351 521.301 61.0624C520.425 61.2025 519.539 61.3636 518.704 61.6535C518.215 61.8235 517.817 62.2662 517.444 62.7994C519.14 63.4153 520.822 63.1646 522.629 63.187C522.271 64.0873 521.574 64.0513 521.008 64.1106C519.061 64.3137 517.107 64.4351 515.159 64.6312C514.397 64.7088 513.634 64.8638 512.898 65.0739C512.697 65.1313 512.45 65.5334 512.471 65.7514C512.494 65.9737 512.798 66.3029 513.02 66.3417C513.714 66.4631 514.428 66.4701 515.46 66.5448C513.327 67.5907 511.237 67.3946 509.305 67.8961C507.416 68.3859 505.537 68.9159 503.671 69.5986C505.047 70.1921 506.409 69.8704 507.798 69.6911C509.245 69.5052 510.718 69.5244 512.268 69.7588C512.018 69.8937 511.775 70.1305 511.518 70.1459C509.456 70.2743 507.372 70.2126 505.331 70.4895C499.513 71.2796 493.639 70.9906 487.813 71.635C476.716 72.8621 465.561 73.1381 454.42 73.6256C452.289 73.718 450.151 73.6391 448.017 73.6802C447.255 73.6947 446.496 73.8287 445.737 73.9127C445.45 73.9445 445.161 74.036 444.877 74.0215C443.231 73.9365 441.585 73.7488 439.939 73.7404C433.236 73.7068 426.532 73.7428 419.828 73.7161C416.933 73.7049 414.038 73.6045 411.142 73.549C410.905 73.5448 410.657 73.5359 410.433 73.5999C406.875 74.6047 403.245 73.9828 399.652 74.0467C390.279 74.213 380.903 74.2326 371.529 74.3054C365.12 74.3544 358.711 74.3885 352.302 74.4385C348.038 74.4717 343.774 74.5328 339.508 74.5585C330.613 74.6127 321.718 74.6598 312.823 74.692C308.848 74.7079 304.873 74.6631 300.898 74.6897C299.973 74.6958 299.048 74.8802 298.121 74.983C297.895 75.893 298.218 76.3511 298.864 76.5131C299.433 76.6556 300.036 76.6742 300.626 76.6957C304.539 76.8381 308.452 76.9633 312.366 77.1048C312.575 77.1127 312.782 77.2122 312.991 77.6212C311.105 77.7547 309.218 77.9985 307.332 77.9999C302.472 78.0036 297.61 77.9093 292.748 77.8365C289.312 77.7856 285.873 77.7823 282.442 77.6212C276.761 77.3546 271.077 77.0716 265.408 76.6191C260.622 76.2386 255.859 75.5825 251.081 75.0918C243.767 74.3404 236.448 73.6349 229.134 72.891C227.719 72.7482 226.31 72.5334 224.903 72.319C224.521 72.2607 224.157 72.0818 223.784 71.9581C223.782 71.8339 223.78 71.7092 223.778 71.5841C224.424 71.5378 225.078 71.4108 225.718 71.4589C228.551 71.6732 231.381 71.9385 234.212 72.1878C234.33 72.1981 234.449 72.2625 234.562 72.2504C236.35 72.0697 238.136 71.8801 239.878 71.6966C239.037 71.0223 236.929 70.6483 233.01 70.3485C230.528 70.1585 228.059 69.8055 225.581 69.5444C223.21 69.2951 220.837 69.0705 218.465 68.8352C218.461 68.6941 218.457 68.5531 218.454 68.4126C219.859 68.2898 221.265 68.1684 222.932 68.0231C221.626 66.3389 219.858 67.5394 218.391 66.7348C219.905 66.0933 221.487 66.8044 222.855 65.8047C221.716 65.0482 220.584 65.3704 219.502 65.3036C218.38 65.235 217.255 65.1159 216.147 64.9245C215.108 64.7447 213.987 65.4708 213.007 64.5626C217.75 64.5593 222.436 63.9126 227.162 63.8239C227.178 63.6726 227.194 63.5208 227.21 63.3686C226.942 63.2066 226.69 62.9432 226.404 62.8989C225.133 62.7032 223.855 62.5342 222.575 62.4231C219.987 62.1975 217.447 61.5882 214.815 61.6619C212.988 61.7128 211.153 61.3449 209.318 61.2305C207.947 61.145 206.88 60.5978 206 59.2693C206.413 59.0849 206.741 58.8304 207.086 58.8038C209.447 58.6175 211.811 58.4811 214.174 58.3251C215.888 58.2117 217.559 58.1141 219.022 56.8963C219.587 56.4252 220.576 56.4093 221.385 56.3369C226.043 55.9246 230.704 55.5422 235.366 55.1784C238.672 54.9211 241.98 54.6792 245.29 54.4939C246.287 54.4383 247.296 54.6372 248.3 54.6465C249.42 54.6578 250.544 54.6241 251.661 54.535C252.344 54.4813 252.892 54.1586 252.95 53.0496C250.217 52.8824 247.532 52.7176 244.765 52.549C245.609 51.2374 246.853 50.7513 248.273 50.5841C251.195 50.2409 254.092 49.6199 257.06 49.738C257.548 49.7572 258.044 49.6176 258.536 49.5512C258.543 49.4322 258.551 49.3126 258.558 49.1936C258.275 49.0824 257.984 48.8592 257.708 48.8756C255.88 48.9862 254.057 49.1525 252.232 49.2921C248.805 49.5545 245.379 49.8258 241.951 50.0649C240.18 50.1886 238.405 50.3371 236.633 50.3189C234.861 50.3002 233.085 50.1569 231.519 49.0899C231.206 48.8774 230.723 48.9297 230.319 48.855C226.882 48.2204 223.446 47.5873 220.012 46.9382C219.87 46.9116 219.754 46.7314 219.592 46.5927C220.191 45.9072 220.791 46.3461 221.405 46.4442C223.55 46.7855 225.709 47.2964 227.851 46.4363C228.315 46.2495 228.738 45.9567 229.156 45.5005C224.943 45.4641 220.843 44.9107 216.76 43.7803C217.127 43.6799 217.487 43.5314 217.86 43.4903C218.449 43.4259 219.05 43.4768 219.638 43.3992C220.355 43.3054 221.341 43.6215 221.583 42.569C221.821 41.5408 220.735 41.595 220.247 41.156C220.209 41.1224 220.194 41.0631 220.144 40.9716C220.491 40.7022 220.842 40.4285 221.443 39.9607C220.591 39.7426 220.006 39.5922 219.251 39.3985C219.439 39.066 219.536 38.6336 219.747 38.564C220.589 38.2885 221.469 38.1335 222.333 37.9201C224.21 37.455 226.086 36.982 228.18 36.4576C227.44 35.5004 226.586 35.3505 225.954 35.4672C224.897 35.6634 223.653 35.3188 222.79 36.3376C222.695 36.4483 222.4 36.4123 222.202 36.3932C221.933 36.3684 221.614 36.1686 221.407 36.2596C218.801 37.4027 216.163 36.7672 213.554 36.3712C212.754 36.2494 212.021 35.6531 211.077 35.1847C212.967 34.3592 216.244 33.6835 217.693 33.7381C218.696 33.776 219.619 33.4963 220.891 32.8514C218.774 32.2066 217.034 33.0251 215.137 32.7842C215.957 31.6285 216.886 30.8179 218.127 30.6189C219.934 30.3299 220.693 28.6872 222.092 27.8953C222.062 27.7603 222.034 27.6258 222.005 27.4909C221.049 27.4405 220.053 27.539 219.146 27.2952C218.259 27.058 217.462 26.4706 216.581 26.0135C216.886 25.1291 217.157 24.3437 217.439 23.5228C216.006 22.8195 215.494 24.8545 214.183 24.5416C213.889 24.1027 213.565 23.6171 213.265 23.1693C213.936 20.5315 216.474 19.974 218.381 18.702C218.329 18.5923 218.276 18.483 218.223 18.3742C217.964 18.3486 217.702 18.2892 217.446 18.3075C217.162 18.328 216.884 18.4209 216.513 18.5013C216.24 17.7322 215.991 17.0252 215.707 16.2225C216.878 15.7411 218.023 15.2775 219.162 14.7988C220.206 14.3594 221.555 15.1845 222.497 13.9705C222.002 13.0889 221.155 13.2406 220.445 13.1529C219.781 13.0707 219.098 13.1351 218.349 12.8358C220.116 12.0733 221.922 11.3906 223.644 10.5328C227.451 8.63609 231.631 8.27141 235.68 7.41643C241.197 6.25093 246.748 5.22739 252.313 4.32012C257.993 3.39464 263.691 2.52704 269.411 1.91955C275.3 1.2943 281.223 1.02255 287.13 0.576622C288.273 0.489769 289.297 1.03375 290.518 0.893204C292.425 0.674202 294.396 1.08839 296.341 1.14957C297.398 1.18319 298.465 1.09026 299.518 0.966988C301.754 0.703629 303.983 0.380028 306.216 0.0886536C306.508 0.0508347 306.877 -0.0710373 307.09 0.057373C308.847 1.11687 310.69 0.361343 312.493 0.383759C313.166 0.391228 313.838 0.384689 314.51 0.384689C314.53 0.507034 314.549 0.630783 314.567 0.75312C313.89 1.08418 313.214 1.41618 312.537 1.74818C312.557 1.87006 312.575 1.99098 312.594 2.11239C313.371 2.16235 314.15 2.18804 314.924 2.26695C315.687 2.34493 316.442 2.55273 317.204 2.57327C319.747 2.64285 322.293 2.72176 324.835 2.66992C328.325 2.59895 331.811 2.36316 335.302 2.29172C337.713 2.24222 340.129 2.35008 342.542 2.38604C342.78 2.38978 343.018 2.40144 343.253 2.37576C348.503 1.79861 353.759 1.79113 359.028 2.0755C361.009 2.1829 363.005 1.97372 364.994 1.95737C369.601 1.91955 374.208 1.91209 378.815 1.89388C379.053 1.89201 379.295 1.87331 379.527 1.91207C387.064 3.13687 394.676 2.74043 402.256 2.95989C414.294 3.30823 426.336 3.54032 438.376 3.792C441.573 3.85877 444.772 3.82188 447.97 3.81954C449.242 3.81861 449.468 4.0843 449.451 5.3656C449.446 5.71487 449.767 6.06837 449.978 6.50029C449.764 6.51897 449.391 6.55351 449.018 6.5862C447.369 6.72955 445.721 6.8673 444.074 7.02233C443.843 7.04474 443.57 7.08537 443.399 7.22311C441.781 8.52262 439.984 8.21117 438.18 7.86843C437.438 7.72741 435.774 8.20791 434.886 8.66178C434.526 8.84529 433.947 8.84155 433.569 8.67765C432.389 8.16775 431.202 7.95482 429.622 8.19063C429.461 8.62815 429.279 9.11892 429.031 9.79272C429.919 9.92207 430.664 10.1126 431.414 10.1289C439.773 10.3082 448.134 10.4268 456.493 10.6416C459.156 10.7103 461.81 11.1081 464.472 11.201C468.678 11.3467 472.89 11.3201 477.097 11.4513C479.224 11.5176 481.345 11.8221 483.472 11.9243C488.034 12.141 492.598 12.3245 497.163 12.4702C502.38 12.6383 507.599 12.756 512.818 12.883C513.988 12.911 515.158 12.8872 516.263 12.8872C516.635 13.666 516.453 14.1026 515.772 14.225C515.31 14.3085 514.824 14.2441 514.356 14.3057C514.065 14.3454 513.788 14.4967 513.522 14.7526C515.453 15.4857 517.511 14.7918 519.438 15.2326C519.44 15.3783 519.444 15.5235 519.446 15.6692C518.715 15.7687 517.985 15.9097 517.25 15.9611C514.837 16.1306 512.421 16.2627 510.008 16.4247C509.597 16.4523 509.162 16.485 508.788 16.6419C506.753 17.4954 504.607 17.5417 502.478 17.4586C498.562 17.3049 494.69 17.7714 490.804 18.0871C489.329 18.2071 487.839 18.1169 486.357 18.1781C485.816 18.2001 485.281 18.3812 484.743 18.4891C484.745 18.6203 484.748 18.7511 484.749 18.8813C485.048 18.9841 485.343 19.1657 485.643 19.1769C491.085 19.3777 496.527 19.5528 501.969 19.7475C502.738 19.7751 503.508 19.9464 504.273 19.9217C505.331 19.8881 506.157 20.3382 506.655 21.1927C507.035 21.8418 507.472 21.9506 508.105 21.9454C509.23 21.937 510.357 21.9711 511.483 22.0169C512.337 22.0519 513.249 21.8427 513.857 22.828C514.016 23.0862 514.619 23.0965 515.027 23.1488C516.435 23.3281 517.855 23.6582 519.254 23.5882C520.979 23.5004 522.209 24.4721 523.49 25.2888C524.151 25.7095 524.736 25.8365 525.461 25.8636C528.897 25.9911 532.332 26.1643 535.766 26.3263C535.966 26.3357 536.163 26.3992 536.362 26.4379C536.366 26.5332 536.369 26.6294 536.374 26.7241Z" fill="white"/>
<path d="M478.93 14.0139C479.166 13.4223 479.308 13.0646 479.526 12.5146C477.936 12.3946 476.488 12.2386 475.035 12.1835C471.428 12.049 467.82 11.9258 464.211 11.8739C462.984 11.8571 461.752 12.0705 460.523 12.1803C460.405 12.1905 460.289 12.2241 460.17 12.2335C457.637 12.424 455.058 12.9811 452.582 12.6761C450.87 12.4651 449.375 13.1795 447.732 12.9829C446.154 12.7934 444.536 12.9605 442.936 12.9376C441.9 12.9222 440.866 12.8447 439.804 12.4978C440.118 12.3801 440.425 12.1938 440.747 12.1578C442.332 11.9785 443.928 11.8861 445.507 11.6666C446.328 11.5527 447.342 11.69 447.652 10.4652C447.7 10.2779 448.255 10.1098 448.565 10.1262C452.112 10.3176 455.655 10.6057 459.202 10.7523C464.949 10.99 470.699 11.1665 476.449 11.3047C477.398 11.3276 478.355 11.0241 479.291 10.6221C476.614 9.77968 473.9 9.80304 471.181 9.71712C468.457 9.63167 465.741 9.3244 463.021 9.12035C460.269 8.91349 457.515 8.71364 454.762 8.51145C454.754 8.38864 454.746 8.26679 454.739 8.14398C455.154 8.08421 455.571 7.96841 455.986 7.97262C460.727 8.02071 465.468 8.03471 470.206 8.16453C474.108 8.27286 478.005 8.58103 481.908 8.69123C483.86 8.74726 485.817 8.56096 487.772 8.48484C491.144 8.35363 494.514 8.172 497.887 8.1099C500.43 8.06273 502.975 8.16125 505.519 8.21728C506.091 8.22989 506.661 8.3373 507.232 8.40174C507.249 8.54042 507.266 8.67863 507.284 8.81731C506 9.15772 504.715 9.49859 503.258 9.88429C503.949 10.6646 504.766 10.5679 505.459 10.6211C512.31 11.1408 519.164 11.6176 526.017 12.1158C526.099 12.1219 526.172 12.2531 526.369 12.4394C526.028 12.6108 525.754 12.8088 525.45 12.8919C522.967 13.5699 520.45 13.6287 517.906 13.3588C516.862 13.2482 515.801 13.2033 514.755 13.2566C510.266 13.483 505.785 13.8809 501.28 13.7053C498.439 13.5956 495.592 13.5876 492.748 13.6142C491.099 13.6297 489.451 13.8809 487.802 13.8879C486.176 13.8939 484.54 14.3665 482.906 13.6581C482.38 13.4307 481.636 13.724 480.994 13.7875C480.367 13.85 479.742 13.9248 478.93 14.0139Z" fill="white"/>
<path d="M96.2704 50.384C94.4997 50.384 92.8571 50.096 91.3424 49.52C89.8491 48.944 88.5477 48.1333 87.4384 47.088C86.3504 46.0427 85.4971 44.816 84.8784 43.408C84.2811 42 83.9824 40.464 83.9824 38.8C83.9824 37.136 84.2811 35.6 84.8784 34.192C85.4971 32.784 86.3611 31.5573 87.4704 30.512C88.5797 29.4667 89.8811 28.656 91.3744 28.08C92.8677 27.504 94.4891 27.216 96.2384 27.216C98.0091 27.216 99.6304 27.504 101.102 28.08C102.596 28.656 103.886 29.4667 104.974 30.512C106.084 31.5573 106.948 32.784 107.566 34.192C108.185 35.5787 108.494 37.1147 108.494 38.8C108.494 40.464 108.185 42.0107 107.566 43.44C106.948 44.848 106.084 46.0747 104.974 47.12C103.886 48.144 102.596 48.944 101.102 49.52C99.6304 50.096 98.0197 50.384 96.2704 50.384ZM96.2384 45.968C97.2411 45.968 98.1584 45.7973 98.9904 45.456C99.8437 45.1147 100.59 44.624 101.23 43.984C101.87 43.344 102.361 42.5867 102.702 41.712C103.065 40.8373 103.246 39.8667 103.246 38.8C103.246 37.7333 103.065 36.7627 102.702 35.888C102.361 35.0133 101.87 34.256 101.23 33.616C100.612 32.976 99.8757 32.4853 99.0224 32.144C98.1691 31.8027 97.2411 31.632 96.2384 31.632C95.2357 31.632 94.3077 31.8027 93.4544 32.144C92.6224 32.4853 91.8864 32.976 91.2464 33.616C90.6064 34.256 90.1051 35.0133 89.7424 35.888C89.4011 36.7627 89.2304 37.7333 89.2304 38.8C89.2304 39.8453 89.4011 40.816 89.7424 41.712C90.1051 42.5867 90.5957 43.344 91.2144 43.984C91.8544 44.624 92.6011 45.1147 93.4544 45.456C94.3077 45.7973 95.2357 45.968 96.2384 45.968ZM119.302 50.256C117.873 50.256 116.593 49.9787 115.462 49.424C114.353 48.8693 113.489 48.0267 112.87 46.896C112.252 45.744 111.942 44.2827 111.942 42.512V32.784H116.934V41.776C116.934 43.2053 117.233 44.2613 117.83 44.944C118.449 45.6053 119.313 45.936 120.422 45.936C121.19 45.936 121.873 45.776 122.47 45.456C123.068 45.1147 123.537 44.6027 123.878 43.92C124.22 43.216 124.39 42.3413 124.39 41.296V32.784H129.382V50H124.646V45.264L125.51 46.64C124.934 47.8347 124.081 48.7413 122.95 49.36C121.841 49.9573 120.625 50.256 119.302 50.256ZM134.007 50V32.784H138.775V37.648L138.103 36.24C138.615 35.024 139.436 34.1067 140.567 33.488C141.698 32.848 143.074 32.528 144.695 32.528V37.136C144.482 37.1147 144.29 37.104 144.119 37.104C143.948 37.0827 143.767 37.072 143.575 37.072C142.21 37.072 141.1 37.4667 140.247 38.256C139.415 39.024 138.999 40.2293 138.999 41.872V50H134.007ZM161.331 50.384C159.816 50.384 158.419 50.1067 157.139 49.552C155.88 48.976 154.846 48.1653 154.035 47.12L156.915 43.664C157.534 44.4747 158.184 45.0933 158.867 45.52C159.55 45.9253 160.286 46.128 161.075 46.128C163.187 46.128 164.243 44.8907 164.243 42.416V31.76H156.371V27.6H169.395V42.128C169.395 44.9013 168.712 46.9707 167.347 48.336C165.982 49.7013 163.976 50.384 161.331 50.384ZM182.355 50.256C180.521 50.256 178.889 49.872 177.459 49.104C176.051 48.336 174.931 47.2907 174.099 45.968C173.289 44.624 172.883 43.0987 172.883 41.392C172.883 39.664 173.289 38.1387 174.099 36.816C174.931 35.472 176.051 34.4267 177.459 33.68C178.889 32.912 180.521 32.528 182.355 32.528C184.169 32.528 185.79 32.912 187.219 33.68C188.649 34.4267 189.769 35.4613 190.579 36.784C191.39 38.1067 191.795 39.6427 191.795 41.392C191.795 43.0987 191.39 44.624 190.579 45.968C189.769 47.2907 188.649 48.336 187.219 49.104C185.79 49.872 184.169 50.256 182.355 50.256ZM182.355 46.16C183.187 46.16 183.934 45.968 184.595 45.584C185.257 45.2 185.779 44.656 186.163 43.952C186.547 43.2267 186.739 42.3733 186.739 41.392C186.739 40.3893 186.547 39.536 186.163 38.832C185.779 38.128 185.257 37.584 184.595 37.2C183.934 36.816 183.187 36.624 182.355 36.624C181.523 36.624 180.777 36.816 180.115 37.2C179.454 37.584 178.921 38.128 178.515 38.832C178.131 39.536 177.939 40.3893 177.939 41.392C177.939 42.3733 178.131 43.2267 178.515 43.952C178.921 44.656 179.454 45.2 180.115 45.584C180.777 45.968 181.523 46.16 182.355 46.16ZM202.396 50.256C200.967 50.256 199.687 49.9787 198.556 49.424C197.447 48.8693 196.583 48.0267 195.964 46.896C195.345 45.744 195.036 44.2827 195.036 42.512V32.784H200.028V41.776C200.028 43.2053 200.327 44.2613 200.924 44.944C201.543 45.6053 202.407 45.936 203.516 45.936C204.284 45.936 204.967 45.776 205.564 45.456C206.161 45.1147 206.631 44.6027 206.972 43.92C207.313 43.216 207.484 42.3413 207.484 41.296V32.784H212.476V50H207.74V45.264L208.604 46.64C208.028 47.8347 207.175 48.7413 206.044 49.36C204.935 49.9573 203.719 50.256 202.396 50.256ZM217.101 50V32.784H221.869V37.648L221.197 36.24C221.709 35.024 222.53 34.1067 223.661 33.488C224.792 32.848 226.168 32.528 227.789 32.528V37.136C227.576 37.1147 227.384 37.104 227.213 37.104C227.042 37.0827 226.861 37.072 226.669 37.072C225.304 37.072 224.194 37.4667 223.341 38.256C222.509 39.024 222.093 40.2293 222.093 41.872V50H217.101ZM230.757 50V32.784H235.525V37.552L234.629 36.112C235.248 34.96 236.133 34.0747 237.285 33.456C238.437 32.8373 239.749 32.528 241.221 32.528C242.586 32.528 243.802 32.8053 244.869 33.36C245.957 33.8933 246.81 34.7253 247.429 35.856C248.048 36.9653 248.357 38.3947 248.357 40.144V50H243.365V40.912C243.365 39.5253 243.056 38.5013 242.437 37.84C241.84 37.1787 240.986 36.848 239.877 36.848C239.088 36.848 238.373 37.0187 237.733 37.36C237.114 37.68 236.624 38.1813 236.261 38.864C235.92 39.5467 235.749 40.4213 235.749 41.488V50H230.757ZM261.551 50.256C259.588 50.256 257.86 49.872 256.367 49.104C254.895 48.336 253.754 47.2907 252.943 45.968C252.132 44.624 251.727 43.0987 251.727 41.392C251.727 39.664 252.122 38.1387 252.911 36.816C253.722 35.472 254.82 34.4267 256.207 33.68C257.594 32.912 259.162 32.528 260.911 32.528C262.596 32.528 264.111 32.8907 265.455 33.616C266.82 34.32 267.898 35.344 268.687 36.688C269.476 38.0107 269.871 39.6 269.871 41.456C269.871 41.648 269.86 41.872 269.839 42.128C269.818 42.3627 269.796 42.5867 269.775 42.8H255.791V39.888H267.151L265.231 40.752C265.231 39.856 265.05 39.0773 264.687 38.416C264.324 37.7547 263.823 37.2427 263.183 36.88C262.543 36.496 261.796 36.304 260.943 36.304C260.09 36.304 259.332 36.496 258.671 36.88C258.031 37.2427 257.53 37.7653 257.167 38.448C256.804 39.1093 256.623 39.8987 256.623 40.816V41.584C256.623 42.5227 256.826 43.3547 257.231 44.08C257.658 44.784 258.244 45.328 258.991 45.712C259.759 46.0747 260.655 46.256 261.679 46.256C262.596 46.256 263.396 46.1173 264.079 45.84C264.783 45.5627 265.423 45.1467 265.999 44.592L268.655 47.472C267.866 48.368 266.874 49.0613 265.679 49.552C264.484 50.0213 263.108 50.256 261.551 50.256ZM275.371 56.464C274.475 56.464 273.589 56.3253 272.715 56.048C271.84 55.7707 271.125 55.3867 270.571 54.896L272.395 51.344C272.779 51.6853 273.216 51.952 273.707 52.144C274.219 52.336 274.72 52.432 275.211 52.432C275.915 52.432 276.469 52.2613 276.875 51.92C277.301 51.6 277.685 51.056 278.027 50.288L278.923 48.176L279.307 47.632L285.483 32.784H290.283L282.507 51.056C281.952 52.4427 281.312 53.5307 280.587 54.32C279.883 55.1093 279.093 55.664 278.219 55.984C277.365 56.304 276.416 56.464 275.371 56.464ZM278.315 50.672L270.635 32.784H275.787L281.739 47.184L278.315 50.672ZM290.424 54.928L292.536 47.248L293.24 50.128C292.323 50.128 291.566 49.8613 290.968 49.328C290.392 48.7947 290.104 48.0587 290.104 47.12C290.104 46.1813 290.403 45.4347 291 44.88C291.598 44.3253 292.334 44.048 293.208 44.048C294.104 44.048 294.84 44.336 295.416 44.912C295.992 45.4667 296.28 46.2027 296.28 47.12C296.28 47.3973 296.259 47.6747 296.216 47.952C296.174 48.208 296.088 48.528 295.96 48.912C295.854 49.2747 295.672 49.744 295.416 50.32L293.592 54.928H290.424ZM309.078 50V27.6H313.366L322.902 43.408H320.63L330.006 27.6H334.262L334.326 50H329.462L329.43 35.056H330.326L322.838 47.632H320.502L312.854 35.056H313.942V50H309.078ZM347.832 50.256C345.87 50.256 344.142 49.872 342.648 49.104C341.176 48.336 340.035 47.2907 339.224 45.968C338.414 44.624 338.008 43.0987 338.008 41.392C338.008 39.664 338.403 38.1387 339.192 36.816C340.003 35.472 341.102 34.4267 342.488 33.68C343.875 32.912 345.443 32.528 347.192 32.528C348.878 32.528 350.392 32.8907 351.736 33.616C353.102 34.32 354.179 35.344 354.968 36.688C355.758 38.0107 356.152 39.6 356.152 41.456C356.152 41.648 356.142 41.872 356.12 42.128C356.099 42.3627 356.078 42.5867 356.056 42.8H342.072V39.888H353.432L351.512 40.752C351.512 39.856 351.331 39.0773 350.968 38.416C350.606 37.7547 350.104 37.2427 349.464 36.88C348.824 36.496 348.078 36.304 347.224 36.304C346.371 36.304 345.614 36.496 344.952 36.88C344.312 37.2427 343.811 37.7653 343.448 38.448C343.086 39.1093 342.904 39.8987 342.904 40.816V41.584C342.904 42.5227 343.107 43.3547 343.512 44.08C343.939 44.784 344.526 45.328 345.272 45.712C346.04 46.0747 346.936 46.256 347.96 46.256C348.878 46.256 349.678 46.1173 350.36 45.84C351.064 45.5627 351.704 45.1467 352.28 44.592L354.936 47.472C354.147 48.368 353.155 49.0613 351.96 49.552C350.766 50.0213 349.39 50.256 347.832 50.256ZM369.567 50V46.64L369.247 45.904V39.888C369.247 38.8213 368.916 37.9893 368.255 37.392C367.615 36.7947 366.623 36.496 365.279 36.496C364.362 36.496 363.455 36.6453 362.559 36.944C361.684 37.2213 360.938 37.6053 360.319 38.096L358.527 34.608C359.466 33.9467 360.596 33.4347 361.919 33.072C363.242 32.7093 364.586 32.528 365.951 32.528C368.575 32.528 370.612 33.1467 372.063 34.384C373.514 35.6213 374.239 37.552 374.239 40.176V50H369.567ZM364.319 50.256C362.975 50.256 361.823 50.032 360.863 49.584C359.903 49.1147 359.167 48.4853 358.655 47.696C358.143 46.9067 357.887 46.0213 357.887 45.04C357.887 44.016 358.132 43.12 358.623 42.352C359.135 41.584 359.935 40.9867 361.023 40.56C362.111 40.112 363.53 39.888 365.279 39.888H369.855V42.8H365.823C364.65 42.8 363.839 42.992 363.391 43.376C362.964 43.76 362.751 44.24 362.751 44.816C362.751 45.456 362.996 45.968 363.487 46.352C363.999 46.7147 364.692 46.896 365.567 46.896C366.399 46.896 367.146 46.704 367.807 46.32C368.468 45.9147 368.948 45.328 369.247 44.56L370.015 46.864C369.652 47.9733 368.991 48.816 368.031 49.392C367.071 49.968 365.834 50.256 364.319 50.256ZM384.549 50.256C383.077 50.256 381.658 50.0853 380.293 49.744C378.949 49.3813 377.882 48.9333 377.093 48.4L378.757 44.816C379.546 45.3067 380.474 45.712 381.541 46.032C382.629 46.3307 383.696 46.48 384.741 46.48C385.893 46.48 386.704 46.3413 387.173 46.064C387.664 45.7867 387.909 45.4027 387.909 44.912C387.909 44.5067 387.717 44.208 387.333 44.016C386.97 43.8027 386.48 43.6427 385.861 43.536C385.242 43.4293 384.56 43.3227 383.813 43.216C383.088 43.1093 382.352 42.9707 381.605 42.8C380.858 42.608 380.176 42.3307 379.557 41.968C378.938 41.6053 378.437 41.1147 378.053 40.496C377.69 39.8773 377.509 39.0773 377.509 38.096C377.509 37.008 377.818 36.048 378.437 35.216C379.077 34.384 379.994 33.7333 381.189 33.264C382.384 32.7733 383.813 32.528 385.477 32.528C386.65 32.528 387.845 32.656 389.061 32.912C390.277 33.168 391.29 33.5413 392.101 34.032L390.437 37.584C389.605 37.0933 388.762 36.7627 387.909 36.592C387.077 36.4 386.266 36.304 385.477 36.304C384.368 36.304 383.557 36.4533 383.045 36.752C382.533 37.0507 382.277 37.4347 382.277 37.904C382.277 38.3307 382.458 38.6507 382.821 38.864C383.205 39.0773 383.706 39.248 384.325 39.376C384.944 39.504 385.616 39.6213 386.341 39.728C387.088 39.8133 387.834 39.952 388.581 40.144C389.328 40.336 390 40.6133 390.597 40.976C391.216 41.3173 391.717 41.7973 392.101 42.416C392.485 43.0133 392.677 43.8027 392.677 44.784C392.677 45.8507 392.357 46.8 391.717 47.632C391.077 48.4427 390.149 49.0827 388.933 49.552C387.738 50.0213 386.277 50.256 384.549 50.256ZM403.021 50.256C401.592 50.256 400.312 49.9787 399.181 49.424C398.072 48.8693 397.208 48.0267 396.589 46.896C395.97 45.744 395.661 44.2827 395.661 42.512V32.784H400.653V41.776C400.653 43.2053 400.952 44.2613 401.549 44.944C402.168 45.6053 403.032 45.936 404.141 45.936C404.909 45.936 405.592 45.776 406.189 45.456C406.786 45.1147 407.256 44.6027 407.597 43.92C407.938 43.216 408.109 42.3413 408.109 41.296V32.784H413.101V50H408.365V45.264L409.229 46.64C408.653 47.8347 407.8 48.7413 406.669 49.36C405.56 49.9573 404.344 50.256 403.021 50.256ZM417.726 50V32.784H422.494V37.648L421.822 36.24C422.334 35.024 423.155 34.1067 424.286 33.488C425.417 32.848 426.793 32.528 428.414 32.528V37.136C428.201 37.1147 428.009 37.104 427.838 37.104C427.667 37.0827 427.486 37.072 427.294 37.072C425.929 37.072 424.819 37.4667 423.966 38.256C423.134 39.024 422.718 40.2293 422.718 41.872V50H417.726ZM439.77 50.256C437.807 50.256 436.079 49.872 434.586 49.104C433.114 48.336 431.973 47.2907 431.162 45.968C430.351 44.624 429.946 43.0987 429.946 41.392C429.946 39.664 430.341 38.1387 431.13 36.816C431.941 35.472 433.039 34.4267 434.426 33.68C435.813 32.912 437.381 32.528 439.13 32.528C440.815 32.528 442.33 32.8907 443.674 33.616C445.039 34.32 446.117 35.344 446.906 36.688C447.695 38.0107 448.09 39.6 448.09 41.456C448.09 41.648 448.079 41.872 448.058 42.128C448.037 42.3627 448.015 42.5867 447.994 42.8H434.01V39.888H445.37L443.45 40.752C443.45 39.856 443.269 39.0773 442.906 38.416C442.543 37.7547 442.042 37.2427 441.402 36.88C440.762 36.496 440.015 36.304 439.162 36.304C438.309 36.304 437.551 36.496 436.89 36.88C436.25 37.2427 435.749 37.7653 435.386 38.448C435.023 39.1093 434.842 39.8987 434.842 40.816V41.584C434.842 42.5227 435.045 43.3547 435.45 44.08C435.877 44.784 436.463 45.328 437.21 45.712C437.978 46.0747 438.874 46.256 439.898 46.256C440.815 46.256 441.615 46.1173 442.298 45.84C443.002 45.5627 443.642 45.1467 444.218 44.592L446.874 47.472C446.085 48.368 445.093 49.0613 443.898 49.552C442.703 50.0213 441.327 50.256 439.77 50.256ZM458.805 50.256C457.184 50.256 455.723 49.8933 454.421 49.168C453.12 48.4213 452.085 47.3867 451.317 46.064C450.571 44.7413 450.197 43.184 450.197 41.392C450.197 39.5787 450.571 38.0107 451.317 36.688C452.085 35.3653 453.12 34.3413 454.421 33.616C455.723 32.8907 457.184 32.528 458.805 32.528C460.256 32.528 461.525 32.848 462.613 33.488C463.701 34.128 464.544 35.0987 465.141 36.4C465.739 37.7013 466.037 39.3653 466.037 41.392C466.037 43.3973 465.749 45.0613 465.173 46.384C464.597 47.6853 463.765 48.656 462.677 49.296C461.611 49.936 460.32 50.256 458.805 50.256ZM459.669 46.16C460.48 46.16 461.216 45.968 461.877 45.584C462.539 45.2 463.061 44.656 463.445 43.952C463.851 43.2267 464.053 42.3733 464.053 41.392C464.053 40.3893 463.851 39.536 463.445 38.832C463.061 38.128 462.539 37.584 461.877 37.2C461.216 36.816 460.48 36.624 459.669 36.624C458.837 36.624 458.091 36.816 457.429 37.2C456.768 37.584 456.235 38.128 455.829 38.832C455.445 39.536 455.253 40.3893 455.253 41.392C455.253 42.3733 455.445 43.2267 455.829 43.952C456.235 44.656 456.768 45.2 457.429 45.584C458.091 45.968 458.837 46.16 459.669 46.16ZM464.181 50V46.48L464.277 41.36L463.957 36.272V26.256H468.949V50H464.181Z" fill="url(#paint0_linear_1_1949)"/>
<defs>
<linearGradient id="paint0_linear_1_1949" x1="-21" y1="20" x2="163.963" y2="314.849" gradientUnits="userSpaceOnUse">
<stop offset="0.298077" stop-color="#E04A00"/>
<stop offset="1" stop-color="#FF915C"/>
</linearGradient>
</defs>
</svg>
