<svg width="104" height="41" viewBox="0 0 104 41" fill="none" xmlns="http://www.w3.org/2000/svg">
<rect width="104" height="40.4586" rx="20.2293" fill="white" fill-opacity="0.6"/>
<mask id="mask0_1_2197" style="mask-type:luminance" maskUnits="userSpaceOnUse" x="16" y="8" width="72" height="25">
<path d="M88 8H16V32.4586H88V8Z" fill="white"/>
</mask>
<g mask="url(#mask0_1_2197)">
<path d="M16.7602 15.0217H20.4263V27.665H16.7602V15.0217Z" fill="#01295C"/>
<path d="M30.8082 14.8342C32.3749 14.8342 33.6362 15.3042 34.5919 16.2442C35.5632 17.1843 36.0489 18.5786 36.0489 20.4273V27.6656H32.3828V20.9914C32.3828 19.9887 32.1635 19.2445 31.7248 18.7588C31.286 18.2575 30.6516 18.0068 29.8213 18.0068C28.8969 18.0068 28.1605 18.2966 27.6122 18.8763C27.0639 19.4403 26.7896 20.2863 26.7896 21.4144V27.6656H23.1236V15.0222H26.6252V16.5027C27.1108 15.9701 27.714 15.5627 28.4346 15.2807C29.1554 14.983 29.9466 14.8342 30.8082 14.8342Z" fill="#01295C"/>
<path d="M51.683 10.2279V27.6655H48.1815V26.2084C47.2728 27.305 45.9568 27.8533 44.2334 27.8533C43.0427 27.8533 41.9616 27.5871 40.9903 27.0545C40.0346 26.5217 39.2825 25.7618 38.7342 24.7748C38.1858 23.7879 37.9118 22.644 37.9118 21.3437C37.9118 20.0433 38.1858 18.8996 38.7342 17.9126C39.2825 16.9256 40.0346 16.1657 40.9903 15.633C41.9616 15.1004 43.0427 14.834 44.2334 14.834C45.847 14.834 47.1083 15.3432 48.017 16.3615V10.2279H51.683ZM44.8679 24.8454C45.7923 24.8454 46.56 24.532 47.171 23.9053C47.782 23.2629 48.0875 22.409 48.0875 21.3437C48.0875 20.2783 47.782 19.4323 47.171 18.8056C46.56 18.1633 45.7923 17.8421 44.8679 17.8421C43.9278 17.8421 43.1523 18.1633 42.5413 18.8056C41.9303 19.4323 41.6249 20.2783 41.6249 21.3437C41.6249 22.409 41.9303 23.2629 42.5413 23.9053C43.1523 24.532 43.9278 24.8454 44.8679 24.8454Z" fill="#01295C"/>
<path d="M54.3712 15.0217H58.0372V27.665H54.3712V15.0217Z" fill="#01295C"/>
<path d="M18.5525 8.07643L21.1603 10.6842L18.5525 13.2919L15.9448 10.6842L18.5525 8.07643Z" fill="#01295C"/>
<path d="M56.2253 8.07643L58.8331 10.6842L56.2253 13.2919L53.6176 10.6842L56.2253 8.07643Z" fill="#01295C"/>
<path d="M61.5983 17.8216H59.8133V15.0477H61.5983V13.5523C61.5983 12.3302 61.9198 11.4136 62.5631 10.8026C63.2063 10.1754 64.1469 9.86187 65.3851 9.86187H67.7007V12.6357H65.168V15.0477H67.7007V17.8216H65.168V27.7109H61.5983V17.8216Z" fill="#FF681E"/>
<path d="M73.2322 27.7109C72.01 27.7109 71.1095 27.4134 70.5306 26.8184C69.9679 26.2233 69.6864 25.3632 69.6864 24.2375V9.86187H73.2562V24.937H74.8481V27.7109H73.2322Z" fill="#FF681E"/>
<path d="M84.5897 15.048H87.9184L83.0461 29.6648C82.7245 30.6458 82.2662 31.3694 81.6712 31.8357C81.0923 32.3021 80.2561 32.5352 79.1627 32.5352H76.9437V29.7614H79.3316L79.7657 28.3624L75.3276 15.048H78.8733L80.7306 20.9574L81.6471 24.6237H81.7918L82.7326 20.9574L84.5897 15.048Z" fill="#FF681E"/>
</g>
</svg>
