<svg width="75" height="31" viewBox="0 0 75 31" fill="none" xmlns="http://www.w3.org/2000/svg">
<rect width="75" height="30.6072" rx="15.3036" fill="white" fill-opacity="0.6"/>
<mask id="mask0_1_2180" style="mask-type:luminance" maskUnits="userSpaceOnUse" x="16" y="8" width="43" height="15">
<path d="M59 8H16V22.6072H59V8Z" fill="white"/>
</mask>
<g mask="url(#mask0_1_2180)">
<path d="M16.4538 12.1938H18.6432V19.7447H16.4538V12.1938Z" fill="#01295C"/>
<path d="M24.8435 12.082C25.7792 12.082 26.5325 12.3627 27.1032 12.9241C27.6833 13.4855 27.9734 14.3183 27.9734 15.4224V19.7453H25.7839V15.7592C25.7839 15.1604 25.6529 14.716 25.3909 14.4259C25.1289 14.1265 24.75 13.9768 24.2541 13.9768C23.702 13.9768 23.2623 14.1499 22.9348 14.4961C22.6073 14.8329 22.4435 15.3382 22.4435 16.0119V19.7453H20.2541V12.1943H22.3453V13.0785C22.6353 12.7604 22.9956 12.5171 23.426 12.3487C23.8564 12.1709 24.329 12.082 24.8435 12.082Z" fill="#01295C"/>
<path d="M37.3104 9.33057V19.7447H35.2192V18.8744C34.6765 19.5294 33.8905 19.8569 32.8613 19.8569C32.1502 19.8569 31.5046 19.6978 30.9245 19.3798C30.3537 19.0616 29.9045 18.6078 29.577 18.0183C29.2496 17.4289 29.0859 16.7458 29.0859 15.9692C29.0859 15.1926 29.2496 14.5095 29.577 13.92C29.9045 13.3306 30.3537 12.8768 30.9245 12.5586C31.5046 12.2405 32.1502 12.0814 32.8613 12.0814C33.825 12.0814 34.5783 12.3855 35.1209 12.9937V9.33057H37.3104ZM33.2403 18.0605C33.7923 18.0605 34.2508 17.8733 34.6157 17.499C34.9806 17.1154 35.163 16.6054 35.163 15.9692C35.163 15.3329 34.9806 14.8276 34.6157 14.4534C34.2508 14.0698 33.7923 13.8779 33.2403 13.8779C32.6788 13.8779 32.2156 14.0698 31.8507 14.4534C31.4858 14.8276 31.3034 15.3329 31.3034 15.9692C31.3034 16.6054 31.4858 17.1154 31.8507 17.499C32.2156 17.8733 32.6788 18.0605 33.2403 18.0605Z" fill="#01295C"/>
<path d="M38.9158 12.1938H41.1053V19.7447H38.9158V12.1938Z" fill="#01295C"/>
<path d="M17.5242 8.0459L19.0816 9.60331L17.5242 11.1607L15.9668 9.60331L17.5242 8.0459Z" fill="#01295C"/>
<path d="M40.0233 8.0459L41.5807 9.60331L40.0233 11.1607L38.4659 9.60331L40.0233 8.0459Z" fill="#01295C"/>
<path d="M43.2322 13.8655H42.1661V12.2089H43.2322V11.3158C43.2322 10.5859 43.4242 10.0386 43.8084 9.67362C44.1925 9.29909 44.7543 9.11182 45.4938 9.11182H46.8767V10.7684H45.3641V12.2089H46.8767V13.8655H45.3641V19.7716H43.2322V13.8655Z" fill="#FF681E"/>
<path d="M50.1801 19.7716C49.4502 19.7716 48.9124 19.594 48.5667 19.2387C48.2306 18.8833 48.0625 18.3695 48.0625 17.6972V9.11182H50.1945V18.115H51.1452V19.7716H50.1801Z" fill="#FF681E"/>
<path d="M56.9631 12.2095H58.9511L56.0412 20.939C55.8491 21.5248 55.5754 21.957 55.2201 22.2355C54.8744 22.514 54.375 22.6532 53.722 22.6532H52.3967V20.9967H53.8228L54.0821 20.1611L51.4315 12.2095H53.5491L54.6584 15.7387L55.2057 17.9283H55.2921L55.854 15.7387L56.9631 12.2095Z" fill="#FF681E"/>
</g>
</svg>
