<svg width="264" height="165" viewBox="0 0 264 165" fill="none" xmlns="http://www.w3.org/2000/svg">
<rect x="0.5" y="0.5" width="262.5" height="164" rx="15.5" fill="url(#paint0_linear_60_530)"/>
<rect x="0.5" y="0.5" width="262.5" height="164" rx="15.5" stroke="url(#paint1_linear_60_530)"/>
<path d="M48.9183 94L53.3983 71.6H59.7343L55.2543 94H48.9183ZM59.762 94L64.242 71.6H69.458L78.514 86.576L76.338 86.512L79.314 71.6H85.522L81.042 94H75.826L66.802 79.024L68.946 79.088L65.97 94H59.762ZM85.5433 94L90.0233 71.6H99.7513C102.098 71.6 104.103 71.984 105.767 72.752C107.453 73.52 108.743 74.608 109.639 76.016C110.535 77.4027 110.983 79.0667 110.983 81.008C110.983 82.992 110.642 84.784 109.959 86.384C109.277 87.9627 108.317 89.328 107.079 90.48C105.842 91.6107 104.37 92.4853 102.663 93.104C100.957 93.7013 99.0686 94 96.9993 94H85.5433ZM92.9033 88.944H97.1913C98.7913 88.944 100.135 88.6133 101.223 87.952C102.311 87.2907 103.143 86.3947 103.719 85.264C104.295 84.112 104.583 82.8213 104.583 81.392C104.583 80.3893 104.37 79.536 103.943 78.832C103.538 78.128 102.919 77.5947 102.087 77.232C101.277 76.848 100.263 76.656 99.0473 76.656H95.3353L92.9033 88.944ZM118.477 94.288C116.941 94.288 115.49 94.128 114.125 93.808C112.759 93.4667 111.703 93.0613 110.957 92.592L113.165 88.336C113.975 88.848 114.925 89.2427 116.013 89.52C117.101 89.7973 118.157 89.936 119.181 89.936C120.183 89.936 120.898 89.8293 121.325 89.616C121.751 89.3813 121.965 89.072 121.965 88.688C121.965 88.3467 121.741 88.1013 121.293 87.952C120.866 87.7813 120.311 87.6427 119.629 87.536C118.946 87.4293 118.221 87.2907 117.453 87.12C116.706 86.9493 115.991 86.704 115.309 86.384C114.626 86.064 114.061 85.616 113.613 85.04C113.186 84.4427 112.973 83.6533 112.973 82.672C112.973 81.2853 113.378 80.1227 114.189 79.184C114.999 78.2453 116.098 77.5413 117.485 77.072C118.893 76.6027 120.471 76.368 122.221 76.368C123.458 76.368 124.653 76.4853 125.805 76.72C126.957 76.9547 127.959 77.296 128.813 77.744L126.669 82C125.815 81.488 124.941 81.1467 124.045 80.976C123.149 80.784 122.306 80.688 121.517 80.688C120.514 80.688 119.799 80.816 119.373 81.072C118.946 81.328 118.733 81.6373 118.733 82C118.733 82.32 118.946 82.576 119.373 82.768C119.821 82.9387 120.375 83.088 121.037 83.216C121.719 83.3227 122.445 83.4613 123.213 83.632C123.981 83.7813 124.695 84.016 125.357 84.336C126.039 84.656 126.594 85.104 127.021 85.68C127.469 86.256 127.693 87.0347 127.693 88.016C127.693 89.3813 127.277 90.5333 126.445 91.472C125.634 92.4107 124.535 93.1147 123.149 93.584C121.762 94.0533 120.205 94.288 118.477 94.288ZM129.193 94L132.649 76.656H138.697L135.241 94H129.193ZM136.521 74.736C135.454 74.736 134.601 74.448 133.961 73.872C133.342 73.2747 133.033 72.56 133.033 71.728C133.033 70.7467 133.385 69.9253 134.089 69.264C134.814 68.6027 135.763 68.272 136.937 68.272C138.003 68.272 138.857 68.5493 139.497 69.104C140.137 69.6587 140.457 70.352 140.457 71.184C140.457 72.2293 140.094 73.0827 139.369 73.744C138.643 74.4053 137.694 74.736 136.521 74.736ZM147.002 100.496C145.274 100.496 143.695 100.304 142.266 99.92C140.836 99.5573 139.599 99.0027 138.553 98.256L141.274 94.032C141.956 94.5653 142.82 94.992 143.866 95.312C144.932 95.6533 146.031 95.824 147.161 95.824C148.74 95.824 149.903 95.4827 150.65 94.8C151.396 94.1387 151.898 93.1787 152.154 91.92L152.698 89.232L153.914 84.72L154.874 79.824L155.482 76.656H161.274L158.458 90.8C157.775 94.2347 156.452 96.7093 154.49 98.224C152.548 99.7387 150.052 100.496 147.002 100.496ZM147.45 93.104C146.084 93.104 144.826 92.816 143.674 92.24C142.522 91.6427 141.594 90.8 140.89 89.712C140.207 88.6027 139.866 87.2693 139.866 85.712C139.866 84.4107 140.1 83.1947 140.57 82.064C141.06 80.9333 141.732 79.9413 142.586 79.088C143.46 78.2347 144.474 77.5733 145.626 77.104C146.778 76.6133 148.026 76.368 149.37 76.368C150.65 76.368 151.78 76.6133 152.762 77.104C153.764 77.5947 154.511 78.4053 155.002 79.536C155.514 80.6667 155.642 82.2027 155.385 84.144C155.172 86.0427 154.714 87.664 154.01 89.008C153.327 90.3307 152.431 91.344 151.322 92.048C150.212 92.752 148.922 93.104 147.45 93.104ZM149.242 88.24C150.052 88.24 150.756 88.0693 151.354 87.728C151.972 87.3867 152.452 86.9067 152.794 86.288C153.156 85.648 153.338 84.912 153.338 84.08C153.338 83.2267 153.05 82.544 152.474 82.032C151.919 81.4987 151.13 81.232 150.106 81.232C149.295 81.232 148.58 81.4133 147.962 81.776C147.343 82.1173 146.852 82.608 146.49 83.248C146.148 83.8667 145.978 84.592 145.978 85.424C145.978 86.2773 146.266 86.96 146.842 87.472C147.439 87.984 148.239 88.24 149.242 88.24ZM176.028 76.368C177.457 76.368 178.684 76.6773 179.708 77.296C180.753 77.8933 181.5 78.7893 181.948 79.984C182.396 81.1573 182.439 82.6293 182.076 84.4L180.156 94H174.076L175.868 84.976C176.103 83.8667 176.028 83.0133 175.644 82.416C175.281 81.8187 174.599 81.52 173.596 81.52C172.572 81.52 171.708 81.84 171.004 82.48C170.3 83.12 169.809 84.1013 169.532 85.424L167.804 94H161.724L166.46 70.256H172.54L170.3 81.488L169.18 80.112C170.012 78.8107 171.036 77.8613 172.252 77.264C173.489 76.6667 174.748 76.368 176.028 76.368ZM191.685 94.288C190.341 94.288 189.189 94.032 188.229 93.52C187.269 92.9867 186.587 92.2187 186.181 91.216C185.776 90.192 185.712 88.976 185.989 87.568L188.933 72.784H195.013L192.069 87.536C191.963 88.1973 192.037 88.7093 192.293 89.072C192.549 89.4133 192.987 89.584 193.605 89.584C193.925 89.584 194.235 89.5413 194.533 89.456C194.832 89.3707 195.131 89.2427 195.429 89.072L196.197 93.264C195.557 93.6267 194.843 93.8827 194.053 94.032C193.285 94.2027 192.496 94.288 191.685 94.288ZM184.581 81.84L185.509 77.296H198.053L197.157 81.84H184.581ZM205.102 94.288C203.566 94.288 202.115 94.128 200.75 93.808C199.384 93.4667 198.328 93.0613 197.582 92.592L199.79 88.336C200.6 88.848 201.55 89.2427 202.638 89.52C203.726 89.7973 204.782 89.936 205.806 89.936C206.808 89.936 207.523 89.8293 207.95 89.616C208.376 89.3813 208.59 89.072 208.59 88.688C208.59 88.3467 208.366 88.1013 207.918 87.952C207.491 87.7813 206.936 87.6427 206.254 87.536C205.571 87.4293 204.846 87.2907 204.078 87.12C203.331 86.9493 202.616 86.704 201.934 86.384C201.251 86.064 200.686 85.616 200.238 85.04C199.811 84.4427 199.598 83.6533 199.598 82.672C199.598 81.2853 200.003 80.1227 200.814 79.184C201.624 78.2453 202.723 77.5413 204.11 77.072C205.518 76.6027 207.096 76.368 208.846 76.368C210.083 76.368 211.278 76.4853 212.43 76.72C213.582 76.9547 214.584 77.296 215.438 77.744L213.294 82C212.44 81.488 211.566 81.1467 210.67 80.976C209.774 80.784 208.931 80.688 208.142 80.688C207.139 80.688 206.424 80.816 205.998 81.072C205.571 81.328 205.358 81.6373 205.358 82C205.358 82.32 205.571 82.576 205.998 82.768C206.446 82.9387 207 83.088 207.662 83.216C208.344 83.3227 209.07 83.4613 209.838 83.632C210.606 83.7813 211.32 84.016 211.982 84.336C212.664 84.656 213.219 85.104 213.646 85.68C214.094 86.256 214.318 87.0347 214.318 88.016C214.318 89.3813 213.902 90.5333 213.07 91.472C212.259 92.4107 211.16 93.1147 209.774 93.584C208.387 94.0533 206.83 94.288 205.102 94.288Z" fill="white"/>
<defs>
<linearGradient id="paint0_linear_60_530" x1="10.5" y1="19" x2="254.5" y2="156" gradientUnits="userSpaceOnUse">
<stop stop-color="#0058CA"/>
<stop offset="1" stop-color="#4094FF"/>
</linearGradient>
<linearGradient id="paint1_linear_60_530" x1="293.5" y1="184" x2="138.5" y2="51" gradientUnits="userSpaceOnUse">
<stop stop-color="#C5D9F2"/>
<stop offset="1" stop-color="#0070FF"/>
</linearGradient>
</defs>
</svg>
