<svg width="440" height="78" viewBox="0 0 440 78" fill="none" xmlns="http://www.w3.org/2000/svg">
<path d="M50.5011 59.3711C52.4138 60.0062 55.9275 59.8721 56.8705 59.1699C54.7472 59.0858 52.6225 58.7674 50.5011 59.3711ZM385.661 26.7241C385.407 26.7774 385.155 26.8684 384.899 26.8787C382.466 26.9819 380.032 27.0426 377.602 27.1832C377.027 27.2159 376.282 27.3279 375.934 27.7015C375.093 28.6017 374.102 28.7493 372.98 28.8109C371.446 28.894 371.2 29.1187 370.345 30.7819C372.265 31.8858 374.394 31.1274 376.342 31.5229C376.102 31.7158 375.82 31.9413 375.28 32.3742C376.289 32.7449 377.043 33.2156 377.827 33.2726C379.995 33.4295 382.175 33.4132 384.35 33.4678C384.955 33.4832 385.569 33.4552 386.164 33.5444C387.715 33.7774 389.133 33.33 390.733 32.879C390.417 32.4802 390.212 32.222 389.878 31.8017C391.163 31.8017 392.327 31.8017 393.49 31.8017C392.961 33.7433 392.818 33.8684 391.009 33.9319C389.495 33.9852 387.98 34.0108 386.468 34.101C385.93 34.1336 385.341 34.2055 384.878 34.4516C383.072 35.4121 381.152 35.443 379.196 35.2982C378.895 35.2758 378.527 35.0969 378.307 35.2118C376.57 36.1182 374.704 35.4733 372.93 35.7348C371.665 35.9216 370.451 36.4553 369.214 36.8335C369.217 36.9755 369.221 37.1184 369.224 37.2603C369.877 37.4069 370.528 37.5643 371.182 37.6997C373.711 38.2217 376.16 39.0445 378.845 38.805C381.375 38.579 383.942 38.7559 386.844 38.7559C386.322 39.0352 386.097 39.2448 385.851 39.2724C383.314 39.5581 380.775 39.8421 378.232 40.0606C377.452 40.1283 376.654 39.9859 375.865 39.9532C374.956 39.9149 374.033 39.7767 373.139 39.8813C369.515 40.3053 365.901 40.824 362.279 41.2648C361.138 41.4035 359.978 41.3858 358.83 41.4824C357.683 41.5786 356.523 41.6473 355.401 41.8821C354.541 42.0614 353.86 42.5788 353.983 43.8564C357.817 44.0039 361.599 43.6677 365.65 43.3026C364.714 44.5479 363.494 44.5666 362.472 44.7006C357.229 45.3842 351.971 45.9464 346.72 46.5539C346.479 46.5815 346.216 46.5735 346.007 46.6739C345.811 46.7692 345.53 46.9947 345.54 47.1455C345.558 47.4066 345.714 47.7829 345.919 47.8772C346.282 48.043 346.725 48.0841 347.136 48.0892C348.834 48.1098 350.532 48.0976 352.357 48.0976C352.031 48.7822 351.765 49.3421 351.458 49.986C352.945 50.7718 354.42 50.2956 355.829 50.3894C357.192 50.4791 358.567 50.4081 359.947 50.6364C356.635 51.5017 353.111 50.6981 349.872 51.9415C349.692 52.9543 350.141 53.2733 350.957 53.2863C352.297 53.3069 353.636 53.3601 354.975 53.3583C358.508 53.3517 362.041 53.2933 365.573 53.3223C366.535 53.3307 367.491 53.5908 368.454 53.7075C369.78 53.8696 371.107 54.1329 372.434 54.1287C377.056 54.1133 381.677 53.9905 386.298 53.9391C387.01 53.9312 387.725 54.0806 388.443 54.3267C386.179 55.1639 383.78 54.8394 381.465 55.1761C379.098 55.5188 376.703 55.6603 374.319 55.89C374.307 56.0521 374.296 56.2155 374.284 56.3775C374.699 56.462 375.114 56.6185 375.529 56.6199C378.564 56.6278 381.599 56.5872 384.635 56.6003C386.131 56.6063 387.66 56.3729 389.444 57.1055C385.711 57.3576 382.328 57.5864 378.8 57.825C379 59.5481 377.899 59.9795 376.506 60.1593C374.396 60.432 372.29 60.7351 370.188 61.0624C369.289 61.2025 368.38 61.3636 367.522 61.6535C367.02 61.8235 366.611 62.2662 366.228 62.7994C367.97 63.4153 369.696 63.1646 371.551 63.187C371.183 64.0873 370.468 64.0513 369.887 64.1106C367.889 64.3137 365.882 64.4351 363.883 64.6312C363.1 64.7088 362.318 64.8638 361.561 65.0739C361.355 65.1313 361.102 65.5334 361.124 65.7514C361.147 65.9737 361.459 66.3029 361.687 66.3417C362.4 66.4631 363.132 66.4701 364.191 66.5448C362.002 67.5907 359.857 67.3946 357.873 67.8961C355.934 68.3859 354.005 68.9159 352.09 69.5986C353.502 70.1921 354.9 69.8704 356.326 69.6911C357.812 69.5052 359.324 69.5244 360.915 69.7588C360.659 69.8937 360.409 70.1305 360.145 70.1459C358.029 70.2743 355.889 70.2126 353.794 70.4895C347.821 71.2796 341.791 70.9906 335.81 71.635C324.419 72.8621 312.967 73.1381 301.53 73.6256C299.342 73.718 297.148 73.6391 294.957 73.6802C294.175 73.6947 293.396 73.8287 292.616 73.9127C292.321 73.9445 292.025 74.036 291.734 74.0215C290.044 73.9365 288.354 73.7488 286.664 73.7404C279.783 73.7068 272.901 73.7428 266.019 73.7161C263.047 73.7049 260.075 73.6045 257.103 73.549C256.859 73.5448 256.605 73.5359 256.375 73.5999C252.721 74.6047 248.995 73.9828 245.307 74.0467C235.685 74.213 226.06 74.2326 216.437 74.3054C209.858 74.3544 203.278 74.3885 196.699 74.4385C192.322 74.4717 187.944 74.5328 183.565 74.5585C174.434 74.6127 165.302 74.6598 156.171 74.692C152.091 74.7079 148.01 74.6631 143.929 74.6897C142.98 74.6958 142.03 74.8802 141.078 74.983C140.846 75.893 141.178 76.3511 141.842 76.5131C142.425 76.6556 143.045 76.6742 143.65 76.6957C147.667 76.8381 151.684 76.9633 155.702 77.1048C155.917 77.1127 156.129 77.2122 156.344 77.6212C154.407 77.7547 152.471 77.9985 150.534 77.9999C145.545 78.0036 140.554 77.9093 135.563 77.8365C132.036 77.7856 128.505 77.7823 124.983 77.6212C119.151 77.3546 113.316 77.0716 107.496 76.6191C102.584 76.2386 97.6937 75.5825 92.7891 75.0918C85.2807 74.3404 77.7671 73.6349 70.2582 72.891C68.8061 72.7482 67.36 72.5334 65.9158 72.319C65.5236 72.2607 65.1492 72.0818 64.7664 71.9581C64.7645 71.8339 64.7622 71.7092 64.7603 71.5841C65.4239 71.5378 66.0945 71.4108 66.7521 71.4589C69.6606 71.6732 72.5654 71.9385 75.4721 72.1878C75.5924 72.1981 75.7145 72.2625 75.8306 72.2504C77.666 72.0697 79.5001 71.8801 81.2878 71.6966C80.4244 71.0223 78.2609 70.6483 74.238 70.3485C71.6894 70.1585 69.1547 69.8055 66.6112 69.5444C64.1776 69.2951 61.7408 69.0705 59.3059 68.8352C59.3021 68.6941 59.2979 68.5531 59.2946 68.4126C60.7375 68.2898 62.1807 68.1684 63.8922 68.0231C62.5514 66.3389 60.736 67.5394 59.2301 66.7348C60.7843 66.0933 62.4087 66.8044 63.8126 65.8047C62.6431 65.0482 61.482 65.3704 60.3706 65.3036C59.2188 65.235 58.0643 65.1159 56.9271 64.9245C55.8605 64.7447 54.7088 65.4708 53.7031 64.5626C58.5725 64.5593 63.3825 63.9126 68.2347 63.8239C68.251 63.6726 68.2674 63.5208 68.2838 63.3686C68.0086 63.2066 67.7493 62.9432 67.4559 62.8989C66.1512 62.7032 64.8394 62.5342 63.5253 62.4231C60.869 62.1975 58.2613 61.5882 55.5596 61.6619C53.6839 61.7128 51.8002 61.3449 49.9166 61.2305C48.5084 61.145 47.4138 60.5978 46.5101 59.2693C46.9341 59.0849 47.271 58.8304 47.6253 58.8038C50.049 58.6175 52.4756 58.4811 54.9012 58.3251C56.6608 58.2117 58.3764 58.1141 59.8782 56.8963C60.4585 56.4252 61.4731 56.4093 62.3038 56.3369C67.0857 55.9246 71.8705 55.5422 76.6566 55.1784C80.05 54.9211 83.4462 54.6792 86.8443 54.4939C87.8678 54.4383 88.903 54.6372 89.9335 54.6465C91.0833 54.6578 92.2379 54.6241 93.3844 54.535C94.085 54.4813 94.648 54.1586 94.7074 53.0496C91.9018 52.8824 89.1458 52.7176 86.3051 52.549C87.1719 51.2374 88.4481 50.7513 89.9059 50.5841C92.9061 50.2409 95.8793 49.6199 98.9264 49.738C99.428 49.7572 99.9363 49.6176 100.442 49.5512C100.449 49.4322 100.457 49.3126 100.465 49.1936C100.174 49.0824 99.875 48.8592 99.5914 48.8756C97.7157 48.9862 95.8437 49.1525 93.9699 49.2921C90.4525 49.5545 86.9355 49.8258 83.4162 50.0649C81.5981 50.1886 79.7762 50.3371 77.9571 50.3189C76.1376 50.3002 74.3143 50.1569 72.7068 49.0899C72.3862 48.8774 71.8897 48.9297 71.4755 48.855C67.9473 48.2204 64.4191 47.5873 60.8942 46.9382C60.7482 46.9116 60.6294 46.7314 60.4627 46.5927C61.0782 45.9072 61.6936 46.3461 62.3244 46.4442C64.5263 46.7855 66.7427 47.2964 68.9413 46.4363C69.4177 46.2495 69.8525 45.9567 70.2812 45.5005C65.956 45.4641 61.7474 44.9107 57.5556 43.7803C57.9323 43.6799 58.3025 43.5314 58.6849 43.4903C59.29 43.4259 59.9072 43.4768 60.51 43.3992C61.2466 43.3054 62.2584 43.6215 62.5074 42.569C62.7517 41.5408 61.6369 41.595 61.1357 41.156C61.0969 41.1224 61.0814 41.0631 61.0299 40.9716C61.3856 40.7022 61.7464 40.4285 62.3633 39.9607C61.4891 39.7426 60.8886 39.5922 60.1136 39.3985C60.306 39.066 60.4056 38.6336 60.6219 38.564C61.4872 38.2885 62.3904 38.1335 63.2768 37.9201C65.2039 37.455 67.1293 36.982 69.2792 36.4576C68.5201 35.5004 67.6427 35.3505 66.9945 35.4672C65.9087 35.6634 64.6321 35.3188 63.7462 36.3376C63.6488 36.4483 63.3456 36.4123 63.1425 36.3932C62.8659 36.3684 62.5392 36.1686 62.3263 36.2596C59.6513 37.4027 56.9435 36.7672 54.2652 36.3712C53.4434 36.2494 52.6913 35.6531 51.7216 35.1847C53.6619 34.3592 57.0263 33.6835 58.514 33.7381C59.5436 33.776 60.4908 33.4963 61.7965 32.8514C59.6236 32.2066 57.8369 33.0251 55.8896 32.7842C56.7319 31.6285 57.6852 30.8179 58.9591 30.6189C60.8142 30.3299 61.5939 28.6872 63.0292 27.8953C62.9993 27.7603 62.9698 27.6258 62.9398 27.4909C61.9584 27.4405 60.9364 27.539 60.0055 27.2952C59.0948 27.058 58.2768 26.4706 57.3726 26.0135C57.6852 25.1291 57.9632 24.3437 58.2534 23.5228C56.782 22.8195 56.256 24.8545 54.911 24.5416C54.6091 24.1027 54.2764 23.6171 53.9685 23.1693C54.6573 20.5315 57.2622 19.974 59.2198 18.702C59.1664 18.5923 59.1121 18.483 59.0578 18.3742C58.7916 18.3486 58.5234 18.2892 58.2604 18.3075C57.9688 18.328 57.6834 18.4209 57.3019 18.5013C57.0226 17.7322 56.7666 17.0252 56.475 16.2225C57.6768 15.7411 58.8524 15.2775 60.0214 14.7988C61.0936 14.3594 62.4784 15.1845 63.4452 13.9705C62.937 13.0889 62.068 13.2406 61.3393 13.1529C60.657 13.0707 59.9564 13.1351 59.187 12.8358C61.0014 12.0733 62.8546 11.3906 64.6227 10.5328C68.5314 8.63609 72.8219 8.27141 76.9781 7.41643C82.6427 6.25093 88.3409 5.22739 94.0532 4.32012C99.8848 3.39464 105.734 2.52704 111.606 1.91955C117.651 1.2943 123.731 1.02255 129.795 0.576622C130.969 0.489769 132.02 1.03375 133.274 0.893204C135.231 0.674202 137.255 1.08839 139.252 1.14957C140.336 1.18319 141.432 1.09026 142.513 0.966988C144.808 0.703629 147.096 0.380028 149.388 0.0886536C149.688 0.0508347 150.067 -0.0710373 150.286 0.057373C152.089 1.11687 153.982 0.361343 155.833 0.383759C156.523 0.391228 157.213 0.384689 157.903 0.384689C157.923 0.507034 157.943 0.630783 157.961 0.75312C157.267 1.08418 156.573 1.41618 155.878 1.74818C155.898 1.87006 155.917 1.99098 155.936 2.11239C156.733 2.16235 157.534 2.18804 158.328 2.26695C159.111 2.34493 159.886 2.55273 160.668 2.57327C163.279 2.64285 165.893 2.72176 168.502 2.66992C172.085 2.59895 175.664 2.36316 179.247 2.29172C181.723 2.24222 184.203 2.35008 186.68 2.38604C186.924 2.38978 187.169 2.40144 187.409 2.37576C192.799 1.79861 198.195 1.79113 203.604 2.0755C205.637 2.1829 207.686 1.97372 209.729 1.95737C214.458 1.91955 219.187 1.91209 223.917 1.89388C224.16 1.89201 224.409 1.87331 224.647 1.91207C232.385 3.13687 240.198 2.74043 247.98 2.95989C260.338 3.30823 272.699 3.54032 285.06 3.792C288.342 3.85877 291.626 3.82188 294.908 3.81954C296.214 3.81861 296.446 4.0843 296.429 5.3656C296.424 5.71487 296.753 6.06837 296.97 6.50029C296.75 6.51897 296.367 6.55351 295.985 6.5862C294.292 6.72955 292.6 6.8673 290.909 7.02233C290.672 7.04474 290.392 7.08537 290.216 7.22311C288.555 8.52262 286.71 8.21117 284.859 7.86843C284.097 7.72741 282.389 8.20791 281.477 8.66178C281.107 8.84529 280.513 8.84155 280.125 8.67765C278.914 8.16775 277.696 7.95482 276.074 8.19063C275.908 8.62815 275.721 9.11892 275.466 9.79272C276.378 9.92207 277.143 10.1126 277.912 10.1289C286.494 10.3082 295.077 10.4268 303.658 10.6416C306.391 10.7103 309.116 11.1081 311.85 11.201C316.167 11.3467 320.491 11.3201 324.809 11.4513C326.993 11.5176 329.17 11.8221 331.354 11.9243C336.037 12.141 340.722 12.3245 345.408 12.4702C350.764 12.6383 356.122 12.756 361.48 12.883C362.681 12.911 363.882 12.8872 365.016 12.8872C365.398 13.666 365.211 14.1026 364.512 14.225C364.038 14.3085 363.539 14.2441 363.058 14.3057C362.76 14.3454 362.476 14.4967 362.203 14.7526C364.185 15.4857 366.297 14.7918 368.276 15.2326C368.278 15.3783 368.281 15.5235 368.284 15.6692C367.533 15.7687 366.784 15.9097 366.029 15.9611C363.552 16.1306 361.072 16.2627 358.595 16.4247C358.173 16.4523 357.726 16.485 357.342 16.6419C355.253 17.4954 353.05 17.5417 350.865 17.4586C346.845 17.3049 342.87 17.7714 338.881 18.0871C337.366 18.2071 335.836 18.1169 334.316 18.1781C333.76 18.2001 333.211 18.3812 332.659 18.4891C332.661 18.6203 332.664 18.7511 332.665 18.8813C332.971 18.9841 333.274 19.1657 333.583 19.1769C339.169 19.3777 344.756 19.5528 350.342 19.7475C351.132 19.7751 351.922 19.9464 352.708 19.9217C353.794 19.8881 354.642 20.3382 355.153 21.1927C355.543 21.8418 355.991 21.9506 356.641 21.9454C357.796 21.937 358.953 21.9711 360.109 22.0169C360.986 22.0519 361.922 21.8427 362.546 22.828C362.71 23.0862 363.328 23.0965 363.747 23.1488C365.193 23.3281 366.651 23.6582 368.086 23.5882C369.858 23.5004 371.12 24.4721 372.436 25.2888C373.114 25.7095 373.715 25.8365 374.458 25.8636C377.986 25.9911 381.512 26.1643 385.038 26.3263C385.242 26.3357 385.445 26.3992 385.649 26.4379C385.653 26.5332 385.656 26.6294 385.661 26.7241Z" fill="url(#paint0_linear_1_2093)"/>
<path d="M326.692 14.0139C326.933 13.4223 327.079 13.0646 327.303 12.5146C325.671 12.3946 324.184 12.2386 322.693 12.1835C318.99 12.049 315.286 11.9258 311.581 11.8739C310.321 11.8571 309.057 12.0705 307.795 12.1803C307.674 12.1905 307.555 12.2241 307.433 12.2335C304.832 12.424 302.185 12.9811 299.644 12.6761C297.885 12.4651 296.351 13.1795 294.664 12.9829C293.044 12.7934 291.383 12.9605 289.741 12.9376C288.678 12.9222 287.616 12.8447 286.526 12.4978C286.848 12.3801 287.163 12.1938 287.494 12.1578C289.121 11.9785 290.759 11.8861 292.38 11.6666C293.223 11.5527 294.265 11.69 294.583 10.4652C294.631 10.2779 295.201 10.1098 295.52 10.1262C299.161 10.3176 302.797 10.6057 306.439 10.7523C312.339 10.99 318.241 11.1665 324.144 11.3047C325.119 11.3276 326.101 11.0241 327.062 10.6221C324.314 9.77968 321.527 9.80304 318.736 9.71712C315.94 9.63167 313.152 9.3244 310.36 9.12035C307.534 8.91349 304.707 8.71364 301.881 8.51145C301.873 8.38864 301.865 8.26679 301.857 8.14398C302.284 8.08421 302.712 7.96841 303.138 7.97262C308.005 8.02071 312.871 8.03471 317.736 8.16453C321.741 8.27286 325.742 8.58103 329.748 8.69123C331.752 8.74726 333.762 8.56096 335.768 8.48484C339.23 8.35363 342.69 8.172 346.152 8.1099C348.762 8.06273 351.375 8.16125 353.987 8.21728C354.574 8.22989 355.159 8.3373 355.745 8.40174C355.763 8.54042 355.78 8.67863 355.798 8.81731C354.48 9.15772 353.162 9.49859 351.666 9.88429C352.375 10.6646 353.214 10.5679 353.925 10.6211C360.958 11.1408 367.994 11.6176 375.03 12.1158C375.113 12.1219 375.189 12.2531 375.391 12.4394C375.041 12.6108 374.759 12.8088 374.447 12.8919C371.898 13.5699 369.314 13.6287 366.702 13.3588C365.631 13.2482 364.542 13.2033 363.468 13.2566C358.86 13.483 354.26 13.8809 349.635 13.7053C346.718 13.5956 343.796 13.5876 340.877 13.6142C339.184 13.6297 337.492 13.8809 335.799 13.8879C334.129 13.8939 332.451 14.3665 330.772 13.6581C330.233 13.4307 329.47 13.724 328.81 13.7875C328.167 13.85 327.525 13.9248 326.692 14.0139Z" fill="url(#paint1_linear_1_2093)"/>
<path d="M140.234 50V27.6H145.418V50H140.234ZM150.734 50V27.6H155.022L168.238 43.728H166.158V27.6H171.278V50H167.022L153.774 33.872H155.854V50H150.734ZM176.578 50V27.6H186.754C189.186 27.6 191.33 28.0693 193.186 29.008C195.042 29.9253 196.493 31.216 197.538 32.88C198.583 34.544 199.106 36.5173 199.106 38.8C199.106 41.0613 198.583 43.0347 197.538 44.72C196.493 46.384 195.042 47.6853 193.186 48.624C191.33 49.5413 189.186 50 186.754 50H176.578ZM181.762 45.744H186.498C187.991 45.744 189.282 45.4667 190.37 44.912C191.479 44.336 192.333 43.5253 192.93 42.48C193.549 41.4347 193.858 40.208 193.858 38.8C193.858 37.3707 193.549 36.144 192.93 35.12C192.333 34.0747 191.479 33.2747 190.37 32.72C189.282 32.144 187.991 31.856 186.498 31.856H181.762V45.744ZM208.455 50.256C206.983 50.256 205.565 50.0853 204.199 49.744C202.855 49.3813 201.789 48.9333 200.999 48.4L202.663 44.816C203.453 45.3067 204.381 45.712 205.447 46.032C206.535 46.3307 207.602 46.48 208.647 46.48C209.799 46.48 210.61 46.3413 211.079 46.064C211.57 45.7867 211.815 45.4027 211.815 44.912C211.815 44.5067 211.623 44.208 211.239 44.016C210.877 43.8027 210.386 43.6427 209.767 43.536C209.149 43.4293 208.466 43.3227 207.719 43.216C206.994 43.1093 206.258 42.9707 205.511 42.8C204.765 42.608 204.082 42.3307 203.463 41.968C202.845 41.6053 202.343 41.1147 201.959 40.496C201.597 39.8773 201.415 39.0773 201.415 38.096C201.415 37.008 201.725 36.048 202.343 35.216C202.983 34.384 203.901 33.7333 205.095 33.264C206.29 32.7733 207.719 32.528 209.383 32.528C210.557 32.528 211.751 32.656 212.967 32.912C214.183 33.168 215.197 33.5413 216.007 34.032L214.343 37.584C213.511 37.0933 212.669 36.7627 211.815 36.592C210.983 36.4 210.173 36.304 209.383 36.304C208.274 36.304 207.463 36.4533 206.951 36.752C206.439 37.0507 206.183 37.4347 206.183 37.904C206.183 38.3307 206.365 38.6507 206.727 38.864C207.111 39.0773 207.613 39.248 208.231 39.376C208.85 39.504 209.522 39.6213 210.247 39.728C210.994 39.8133 211.741 39.952 212.487 40.144C213.234 40.336 213.906 40.6133 214.503 40.976C215.122 41.3173 215.623 41.7973 216.007 42.416C216.391 43.0133 216.583 43.8027 216.583 44.784C216.583 45.8507 216.263 46.8 215.623 47.632C214.983 48.4427 214.055 49.0827 212.839 49.552C211.645 50.0213 210.183 50.256 208.455 50.256ZM219.663 50V32.784H224.655V50H219.663ZM222.159 30.384C221.242 30.384 220.495 30.1173 219.919 29.584C219.343 29.0507 219.055 28.3893 219.055 27.6C219.055 26.8107 219.343 26.1493 219.919 25.616C220.495 25.0827 221.242 24.816 222.159 24.816C223.077 24.816 223.823 25.072 224.399 25.584C224.975 26.0747 225.263 26.7147 225.263 27.504C225.263 28.336 224.975 29.0293 224.399 29.584C223.845 30.1173 223.098 30.384 222.159 30.384ZM237.384 56.464C235.763 56.464 234.195 56.2613 232.68 55.856C231.187 55.472 229.939 54.8853 228.936 54.096L230.92 50.512C231.646 51.1093 232.563 51.5787 233.672 51.92C234.803 52.2827 235.912 52.464 237 52.464C238.771 52.464 240.051 52.0693 240.84 51.28C241.651 50.4907 242.056 49.3173 242.056 47.76V45.168L242.376 40.848L242.312 36.496V32.784H247.048V47.12C247.048 50.32 246.216 52.6773 244.552 54.192C242.888 55.7067 240.499 56.464 237.384 56.464ZM236.616 49.168C235.016 49.168 233.566 48.8267 232.264 48.144C230.984 47.44 229.95 46.4693 229.16 45.232C228.392 43.9733 228.008 42.512 228.008 40.848C228.008 39.1627 228.392 37.7013 229.16 36.464C229.95 35.2053 230.984 34.2347 232.264 33.552C233.566 32.8693 235.016 32.528 236.616 32.528C238.067 32.528 239.347 32.8267 240.456 33.424C241.566 34 242.43 34.9067 243.048 36.144C243.667 37.36 243.976 38.928 243.976 40.848C243.976 42.7467 243.667 44.3147 243.048 45.552C242.43 46.768 241.566 47.6747 240.456 48.272C239.347 48.8693 238.067 49.168 236.616 49.168ZM237.608 45.072C238.483 45.072 239.262 44.9013 239.944 44.56C240.627 44.1973 241.16 43.696 241.544 43.056C241.928 42.416 242.12 41.68 242.12 40.848C242.12 39.9947 241.928 39.2587 241.544 38.64C241.16 38 240.627 37.5093 239.944 37.168C239.262 36.8053 238.483 36.624 237.608 36.624C236.734 36.624 235.955 36.8053 235.272 37.168C234.59 37.5093 234.046 38 233.64 38.64C233.256 39.2587 233.064 39.9947 233.064 40.848C233.064 41.68 233.256 42.416 233.64 43.056C234.046 43.696 234.59 44.1973 235.272 44.56C235.955 44.9013 236.734 45.072 237.608 45.072ZM251.695 50V26.256H256.687V37.552L255.567 36.112C256.185 34.96 257.071 34.0747 258.223 33.456C259.375 32.8373 260.687 32.528 262.159 32.528C263.524 32.528 264.74 32.8053 265.807 33.36C266.895 33.8933 267.748 34.7253 268.367 35.856C268.985 36.9653 269.295 38.3947 269.295 40.144V50H264.303V40.912C264.303 39.5253 263.993 38.5013 263.375 37.84C262.777 37.1787 261.924 36.848 260.815 36.848C260.025 36.848 259.311 37.0187 258.671 37.36C258.052 37.68 257.561 38.1813 257.199 38.864C256.857 39.5467 256.687 40.4213 256.687 41.488V50H251.695ZM280.86 50.256C278.833 50.256 277.254 49.744 276.124 48.72C274.993 47.6747 274.428 46.128 274.428 44.08V28.976H279.42V44.016C279.42 44.7413 279.612 45.3067 279.996 45.712C280.38 46.096 280.902 46.288 281.564 46.288C282.353 46.288 283.025 46.0747 283.58 45.648L284.924 49.168C284.412 49.5307 283.793 49.808 283.068 50C282.364 50.1707 281.628 50.256 280.86 50.256ZM271.772 36.624V32.784H283.708V36.624H271.772ZM293.518 50.256C292.046 50.256 290.627 50.0853 289.262 49.744C287.918 49.3813 286.851 48.9333 286.062 48.4L287.726 44.816C288.515 45.3067 289.443 45.712 290.51 46.032C291.598 46.3307 292.665 46.48 293.71 46.48C294.862 46.48 295.673 46.3413 296.142 46.064C296.633 45.7867 296.878 45.4027 296.878 44.912C296.878 44.5067 296.686 44.208 296.302 44.016C295.939 43.8027 295.449 43.6427 294.83 43.536C294.211 43.4293 293.529 43.3227 292.782 43.216C292.057 43.1093 291.321 42.9707 290.574 42.8C289.827 42.608 289.145 42.3307 288.526 41.968C287.907 41.6053 287.406 41.1147 287.022 40.496C286.659 39.8773 286.478 39.0773 286.478 38.096C286.478 37.008 286.787 36.048 287.406 35.216C288.046 34.384 288.963 33.7333 290.158 33.264C291.353 32.7733 292.782 32.528 294.446 32.528C295.619 32.528 296.814 32.656 298.03 32.912C299.246 33.168 300.259 33.5413 301.07 34.032L299.406 37.584C298.574 37.0933 297.731 36.7627 296.878 36.592C296.046 36.4 295.235 36.304 294.446 36.304C293.337 36.304 292.526 36.4533 292.014 36.752C291.502 37.0507 291.246 37.4347 291.246 37.904C291.246 38.3307 291.427 38.6507 291.79 38.864C292.174 39.0773 292.675 39.248 293.294 39.376C293.913 39.504 294.585 39.6213 295.31 39.728C296.057 39.8133 296.803 39.952 297.55 40.144C298.297 40.336 298.969 40.6133 299.566 40.976C300.185 41.3173 300.686 41.7973 301.07 42.416C301.454 43.0133 301.646 43.8027 301.646 44.784C301.646 45.8507 301.326 46.8 300.686 47.632C300.046 48.4427 299.118 49.0827 297.902 49.552C296.707 50.0213 295.246 50.256 293.518 50.256Z" fill="white"/>
<defs>
<linearGradient id="paint0_linear_1_2093" x1="46.5101" y1="78" x2="365.924" y2="-62.6162" gradientUnits="userSpaceOnUse">
<stop offset="0.298077" stop-color="#E04A00"/>
<stop offset="1" stop-color="#FF915C"/>
</linearGradient>
<linearGradient id="paint1_linear_1_2093" x1="286.526" y1="14.0479" x2="318.076" y2="-31.6221" gradientUnits="userSpaceOnUse">
<stop offset="0.298077" stop-color="#E04A00"/>
<stop offset="1" stop-color="#FF915C"/>
</linearGradient>
</defs>
</svg>
