<svg width="1440" height="704" viewBox="0 0 1440 704" fill="none" xmlns="http://www.w3.org/2000/svg">
<g clip-path="url(#clip0_1_2075)">
<rect width="1440" height="704" fill="#FFEDE4"/>
<path d="M108.839 56.4855L206.393 186.779L142.333 336.413L44.777 206.118L108.839 56.4855Z" stroke="white" stroke-miterlimit="10" stroke-linejoin="round"/>
<path d="M108.839 56.4849L206.394 186.778L368.009 167.442L270.454 37.1471L108.839 56.4849Z" stroke="white" stroke-miterlimit="10" stroke-linejoin="round"/>
<path d="M168.472 275.357L110.722 198.226L148.644 109.648L244.315 98.2007L302.065 175.331L264.143 263.909L168.472 275.357Z" fill="#FFDCCA"/>
<path d="M142.333 336.413L44.7773 206.118L108.839 56.4854L270.454 37.1475L368.009 167.443L303.949 317.074L142.333 336.413Z" stroke="white" stroke-miterlimit="10" stroke-linejoin="round"/>
<path d="M44.7773 206.118L206.393 186.779L270.454 37.1478L108.839 56.4857L44.7773 206.118Z" stroke="white" stroke-miterlimit="10" stroke-linejoin="round"/>
<path d="M206.394 186.778L303.949 317.073L368.01 167.442L270.454 37.147L206.394 186.778Z" stroke="white" stroke-miterlimit="10" stroke-linecap="round" stroke-linejoin="round"/>
<path d="M1497.31 455.698L1372.96 628.436L1161.18 607.109L1285.54 434.369L1497.31 455.698Z" stroke="white" stroke-miterlimit="10" stroke-linejoin="round"/>
<path d="M1497.31 455.698L1372.96 628.436L1460.37 822.504L1584.73 649.763L1497.31 455.698Z" stroke="white" stroke-miterlimit="10" stroke-linejoin="round"/>
<path d="M1247.59 615.811L1321.21 513.554L1446.57 526.179L1498.32 641.061L1424.7 743.318L1299.34 730.693L1247.59 615.811Z" fill="#FFE5D9"/>
<path d="M1161.18 607.11L1285.54 434.369L1497.31 455.698L1584.73 649.763L1460.37 822.504L1248.6 801.177L1161.18 607.11Z" stroke="white" stroke-miterlimit="10" stroke-linejoin="round"/>
<path d="M1285.54 434.369L1372.96 628.436L1584.73 649.764L1497.31 455.699L1285.54 434.369Z" stroke="white" stroke-miterlimit="10" stroke-linejoin="round"/>
<path d="M1372.96 628.436L1248.6 801.177L1460.37 822.504L1584.73 649.764L1372.96 628.436Z" stroke="white" stroke-miterlimit="10" stroke-linecap="round" stroke-linejoin="round"/>
<path d="M1208.45 216.337C1208.45 209.587 1202.97 204.115 1196.22 204.115C1189.47 204.115 1184 209.587 1184 216.337C1184 223.087 1189.47 228.56 1196.22 228.56C1202.97 228.56 1208.45 223.089 1208.45 216.337Z" stroke="#D9D9D9" stroke-opacity="0.4" stroke-miterlimit="10" stroke-linecap="round" stroke-linejoin="round"/>
<path d="M1472 57.5026C1472 39.5542 1457.23 25 1439 25C1420.77 25 1406 39.549 1406 57.5026C1406 75.4511 1420.77 90 1439 90C1457.23 90 1472 75.4511 1472 57.5026Z" stroke="#D9D9D9" stroke-opacity="0.4" stroke-miterlimit="10" stroke-linecap="round" stroke-linejoin="round"/>
</g>
<defs>
<clipPath id="clip0_1_2075">
<rect width="1440" height="704" fill="white"/>
</clipPath>
</defs>
</svg>
