<svg width="596" height="106" viewBox="0 0 596 106" fill="none" xmlns="http://www.w3.org/2000/svg">
<path d="M68.406 80.6008C70.9968 81.4629 75.7562 81.281 77.0336 80.3276C74.1575 80.2135 71.2795 79.7812 68.406 80.6008ZM522.395 36.2801C522.052 36.3523 521.709 36.476 521.363 36.4899C518.068 36.63 514.771 36.7124 511.479 36.9032C510.7 36.9476 509.69 37.0997 509.219 37.6069C508.081 38.8291 506.738 39.0294 505.219 39.113C503.141 39.2259 502.807 39.5308 501.649 41.7888C504.25 43.2874 507.133 42.2579 509.773 42.7948C509.447 43.0566 509.065 43.3628 508.334 43.9504C509.7 44.4538 510.722 45.0928 511.784 45.1701C514.72 45.3831 517.674 45.3609 520.62 45.4351C521.439 45.456 522.27 45.418 523.076 45.539C525.177 45.8554 527.098 45.2481 529.266 44.6357C528.837 44.0943 528.56 43.7438 528.108 43.1733C529.848 43.1733 531.425 43.1733 533 43.1733C532.284 45.8091 532.09 45.979 529.64 46.0652C527.589 46.1374 525.536 46.1723 523.488 46.2947C522.76 46.339 521.962 46.4366 521.334 46.7707C518.888 48.0747 516.288 48.1165 513.638 47.92C513.231 47.8896 512.733 47.6468 512.435 47.8027C510.081 49.0332 507.553 48.1577 505.151 48.5127C503.437 48.7663 501.792 49.4908 500.117 50.0043C500.121 50.197 500.127 50.391 500.131 50.5837C501.015 50.7828 501.896 50.9964 502.783 51.1802C506.209 51.8889 509.526 53.0059 513.162 52.6807C516.59 52.3739 520.066 52.6141 523.998 52.6141C523.29 52.9932 522.985 53.2778 522.653 53.3152C519.216 53.7032 515.777 54.0886 512.332 54.3853C511.276 54.4772 510.196 54.2839 509.126 54.2395C507.895 54.1875 506.644 53.9999 505.434 54.1419C500.525 54.7175 495.63 55.4218 490.724 56.0202C489.178 56.2084 487.607 56.1843 486.051 56.3156C484.498 56.4461 482.926 56.5393 481.406 56.8582C480.241 57.1016 479.319 57.804 479.486 59.5384C484.679 59.7387 489.803 59.2823 495.29 58.7866C494.022 60.4772 492.369 60.5026 490.984 60.6845C483.883 61.6125 476.761 62.3758 469.647 63.2005C469.322 63.2379 468.965 63.2271 468.682 63.3634C468.416 63.4927 468.036 63.7989 468.05 64.0037C468.074 64.358 468.285 64.869 468.563 64.997C469.055 65.222 469.655 65.2778 470.211 65.2848C472.511 65.3127 474.812 65.2962 477.284 65.2962C476.842 66.2255 476.482 66.9856 476.066 67.8598C478.08 68.9266 480.078 68.2801 481.986 68.4075C483.833 68.5292 485.695 68.4328 487.565 68.7428C483.079 69.9175 478.305 68.8265 473.917 70.5146C473.673 71.8896 474.283 72.3225 475.387 72.3403C477.202 72.3682 479.016 72.4404 480.83 72.4379C485.616 72.429 490.401 72.3498 495.185 72.3891C496.488 72.4005 497.784 72.7536 499.088 72.9121C500.883 73.132 502.682 73.4896 504.478 73.4839C510.739 73.4629 516.998 73.2962 523.258 73.2265C524.223 73.2157 525.191 73.4186 526.164 73.7526C523.097 74.8892 519.848 74.4487 516.712 74.9057C513.506 75.371 510.261 75.5631 507.032 75.875C507.016 76.0949 507.001 76.3168 506.984 76.5368C507.547 76.6515 508.109 76.8639 508.672 76.8658C512.783 76.8766 516.894 76.8214 521.005 76.8392C523.032 76.8474 525.103 76.5304 527.519 77.5251C522.464 77.8674 517.881 78.178 513.101 78.5019C513.373 80.841 511.881 81.4268 509.994 81.6708C507.137 82.041 504.283 82.4525 501.436 82.8968C500.218 83.087 498.987 83.3057 497.825 83.6994C497.146 83.9301 496.592 84.5311 496.073 85.255C498.431 86.0911 500.771 85.7507 503.283 85.7811C502.784 87.0033 501.816 86.9545 501.029 87.035C498.322 87.3108 495.604 87.4756 492.896 87.7418C491.836 87.8471 490.776 88.0575 489.751 88.3428C489.472 88.4208 489.129 88.9666 489.159 89.2626C489.19 89.5643 489.612 90.0112 489.921 90.0639C490.887 90.2287 491.879 90.2382 493.314 90.3396C490.348 91.7596 487.443 91.4933 484.755 92.1742C482.128 92.8391 479.516 93.5586 476.921 94.4854C478.835 95.2911 480.728 94.8544 482.66 94.6109C484.672 94.3586 486.721 94.3846 488.876 94.7028C488.528 94.886 488.19 95.2074 487.832 95.2284C484.966 95.4027 482.068 95.319 479.23 95.6949C471.14 96.7675 462.971 96.3751 454.87 97.2499C439.44 98.9158 423.928 99.2905 408.437 99.9523C405.472 100.078 402.5 99.9707 399.532 100.026C398.473 100.046 397.418 100.228 396.362 100.342C395.962 100.385 395.561 100.509 395.166 100.49C392.877 100.374 390.589 100.12 388.3 100.108C378.979 100.063 369.657 100.111 360.335 100.075C356.309 100.06 352.283 99.9238 348.257 99.8483C347.927 99.8426 347.583 99.8306 347.271 99.9174C342.323 101.282 337.275 100.437 332.279 100.524C319.246 100.75 306.209 100.776 293.173 100.875C284.262 100.942 275.35 100.988 266.438 101.056C260.508 101.101 254.579 101.184 248.647 101.219C236.279 101.292 223.909 101.356 211.541 101.4C206.014 101.422 200.486 101.361 194.959 101.397C193.672 101.405 192.386 101.656 191.097 101.795C190.782 103.031 191.232 103.652 192.131 103.872C192.921 104.066 193.761 104.091 194.58 104.12C200.021 104.314 205.463 104.483 210.905 104.676C211.196 104.686 211.484 104.821 211.775 105.377C209.152 105.558 206.528 105.889 203.906 105.891C197.147 105.896 190.387 105.768 183.626 105.669C178.848 105.6 174.066 105.595 169.295 105.377C161.395 105.015 153.492 104.631 145.608 104.016C138.954 103.5 132.33 102.609 125.687 101.943C115.517 100.923 105.339 99.9649 95.1679 98.9551C93.2009 98.7611 91.2421 98.4695 89.2859 98.1786C88.7546 98.0993 88.2475 97.8566 87.729 97.6886C87.7264 97.5199 87.7233 97.3507 87.7207 97.1808C88.6196 97.118 89.528 96.9456 90.4186 97.0109C94.3584 97.3019 98.2931 97.662 102.23 98.0005C102.393 98.0144 102.559 98.1019 102.716 98.0854C105.202 97.8401 107.686 97.5827 110.108 97.3336C108.938 96.4182 106.008 95.9104 100.559 95.5035C97.1065 95.2455 93.6732 94.7662 90.2278 94.4119C86.9315 94.0734 83.6307 93.7685 80.3325 93.449C80.3274 93.2575 80.3217 93.0661 80.3172 92.8753C82.2716 92.7085 84.2266 92.5437 86.5448 92.3466C84.7287 90.06 82.2697 91.6899 80.2298 90.5976C82.335 89.7266 84.5353 90.6921 86.4371 89.3349C84.8529 88.3079 83.2802 88.7453 81.7746 88.6547C80.2146 88.5615 78.6507 88.3998 77.1103 88.1399C75.6656 87.8959 74.1055 88.8816 72.7432 87.6487C79.3391 87.6442 85.8545 86.7662 92.4269 86.6458C92.4491 86.4404 92.4713 86.2344 92.4934 86.0277C92.1207 85.8078 91.7695 85.4502 91.3721 85.39C89.6047 85.1244 87.8278 84.8949 86.0478 84.7441C82.4497 84.4379 78.9176 83.6106 75.258 83.7108C72.7173 83.7799 70.1657 83.2803 67.6142 83.125C65.7068 83.009 64.2241 82.2661 63 80.4626C63.5743 80.2122 64.0307 79.8667 64.5106 79.8306C67.7936 79.5777 71.0805 79.3926 74.3661 79.1808C76.7496 79.0268 79.0735 78.8943 81.1077 77.2411C81.8938 76.6014 83.2681 76.5799 84.3933 76.4816C90.8706 75.9219 97.3518 75.4027 103.835 74.9089C108.431 74.5596 113.032 74.2312 117.634 73.9796C119.021 73.9041 120.423 74.1742 121.819 74.1869C123.376 74.2021 124.94 74.1564 126.493 74.0354C127.442 73.9625 128.205 73.5244 128.285 72.0189C124.485 71.7919 120.752 71.5682 116.904 71.3393C118.078 69.5587 119.807 68.8987 121.782 68.6718C125.846 68.2059 129.873 67.3628 134 67.5232C134.68 67.5491 135.368 67.3596 136.053 67.2696C136.063 67.1079 136.074 66.9457 136.084 66.784C135.69 66.6331 135.285 66.3301 134.901 66.3523C132.36 66.5026 129.825 66.7282 127.286 66.9178C122.522 67.274 117.758 67.6423 112.991 67.9669C110.528 68.1349 108.06 68.3365 105.596 68.3117C103.132 68.2864 100.662 68.0918 98.4846 66.6433C98.0503 66.3548 97.3778 66.4258 96.8167 66.3244C92.0377 65.4629 87.2586 64.6034 82.484 63.7222C82.2862 63.6861 82.1252 63.4414 81.8995 63.2531C82.7331 62.3225 83.5667 62.9184 84.4212 63.0515C87.4038 63.5149 90.406 64.2084 93.3841 63.0408C94.0294 62.7872 94.6183 62.3897 95.199 61.7704C89.3404 61.7209 83.6396 60.9698 77.9616 59.4351C78.4719 59.2988 78.9733 59.0972 79.4913 59.0414C80.3109 58.9539 81.147 59.023 81.9635 58.9178C82.9613 58.7904 84.3318 59.2195 84.6691 57.7907C85 56.3948 83.49 56.4683 82.8111 55.8725C82.7584 55.8268 82.7375 55.7463 82.6678 55.6221C83.1496 55.2563 83.6383 54.8848 84.4738 54.2496C83.2897 53.9536 82.4764 53.7495 81.4266 53.4864C81.6871 53.0351 81.8221 52.4481 82.115 52.3536C83.2871 51.9796 84.5106 51.7691 85.7112 51.4794C88.3217 50.8481 90.9296 50.2059 93.8418 49.494C92.8136 48.1945 91.625 47.991 90.747 48.1495C89.2763 48.4157 87.547 47.9479 86.347 49.3311C86.2152 49.4813 85.8044 49.4325 85.5293 49.4065C85.1546 49.3729 84.7122 49.1016 84.4237 49.2252C80.8003 50.7771 77.1325 49.9143 73.5046 49.3767C72.3914 49.2113 71.3727 48.4018 70.0593 47.766C72.6875 46.6452 77.2447 45.7279 79.2599 45.8021C80.6545 45.8534 81.9375 45.4737 83.7061 44.5983C80.7629 43.7229 78.3426 44.8341 75.7049 44.507C76.8459 42.9381 78.1372 41.8376 79.8627 41.5676C82.3756 41.1752 83.4317 38.9451 85.3759 37.8699C85.3353 37.6867 85.2954 37.5042 85.2548 37.321C83.9255 37.2525 82.541 37.3863 81.2802 37.0554C80.0466 36.7333 78.9385 35.9359 77.7138 35.3153C78.1372 34.1146 78.5138 33.0484 78.9068 31.934C76.9138 30.9793 76.2012 33.7419 74.3794 33.3172C73.9705 32.7213 73.5198 32.062 73.1027 31.4541C74.0358 27.8731 77.5642 27.1162 80.2158 25.3894C80.1435 25.2405 80.07 25.0922 79.9965 24.9445C79.6358 24.9096 79.2726 24.8291 78.9163 24.8538C78.5214 24.8817 78.1347 25.0078 77.618 25.1169C77.2396 24.0728 76.8928 23.1131 76.4979 22.0234C78.1258 21.3698 79.7182 20.7403 81.3017 20.0906C82.754 19.4941 84.6298 20.6142 85.9394 18.966C85.251 17.7692 84.0738 17.9752 83.0868 17.856C82.1626 17.7445 81.2136 17.8319 80.1714 17.4256C82.6291 16.3904 85.1394 15.4636 87.5343 14.2991C92.8288 11.7242 98.6405 11.2291 104.27 10.0684C111.943 8.48614 119.662 7.09662 127.399 5.86492C135.298 4.6085 143.221 3.43068 151.175 2.60596C159.364 1.75715 167.6 1.38822 175.814 0.782837C177.404 0.664929 178.827 1.40342 180.526 1.21262C183.177 0.91531 185.918 1.47761 188.623 1.56065C190.092 1.6063 191.576 1.48014 193.04 1.31278C196.148 0.955255 199.248 0.515946 202.353 0.120384C202.76 0.0690372 203.273 -0.0964072 203.569 0.077919C206.012 1.51627 208.575 0.490583 211.082 0.521011C212.017 0.531154 212.952 0.522278 213.887 0.522278C213.914 0.688363 213.941 0.85636 213.966 1.02245C213.025 1.47189 212.085 1.92261 211.144 2.37332C211.171 2.53877 211.196 2.70294 211.223 2.86776C212.302 2.93559 213.386 2.97046 214.462 3.07759C215.523 3.18345 216.573 3.46555 217.632 3.49344C221.169 3.58789 224.709 3.69501 228.244 3.62465C233.097 3.52829 237.945 3.20819 242.798 3.11121C246.152 3.04401 249.511 3.19045 252.867 3.23926C253.197 3.24433 253.528 3.26016 253.854 3.2253C261.154 2.44178 268.463 2.43163 275.79 2.81768C278.545 2.96348 281.32 2.6795 284.087 2.65731C290.493 2.60596 296.899 2.59583 303.305 2.57111C303.635 2.56857 303.972 2.5432 304.295 2.59581C314.776 4.25857 325.36 3.72036 335.9 4.0183C352.64 4.4912 369.384 4.80628 386.126 5.14796C390.572 5.23861 395.02 5.18852 399.467 5.18535C401.235 5.18408 401.55 5.54477 401.526 7.28423C401.519 7.7584 401.966 8.23829 402.259 8.82466C401.962 8.85002 401.443 8.89692 400.925 8.94129C398.632 9.1359 396.34 9.32291 394.049 9.53337C393.728 9.5638 393.349 9.61895 393.111 9.80595C390.861 11.5701 388.362 11.1473 385.854 10.682C384.822 10.4906 382.509 11.1429 381.273 11.759C380.773 12.0082 379.968 12.0031 379.442 11.7806C377.801 11.0884 376.151 10.7993 373.954 11.1194C373.73 11.7134 373.477 12.3797 373.131 13.2944C374.367 13.47 375.403 13.7286 376.445 13.7508C388.07 13.9942 399.695 14.1552 411.318 14.4468C415.021 14.54 418.712 15.0801 422.414 15.2063C428.263 15.404 434.119 15.3679 439.969 15.5461C442.927 15.6361 445.876 16.0494 448.834 16.1882C455.177 16.4823 461.524 16.7315 467.871 16.9292C475.126 17.1574 482.383 17.3172 489.641 17.4896C491.268 17.5277 492.895 17.4953 494.431 17.4953C494.949 18.5527 494.695 19.1454 493.748 19.3115C493.106 19.425 492.43 19.3375 491.779 19.4212C491.375 19.475 490.99 19.6804 490.62 20.0278C493.305 21.0231 496.166 20.0811 498.846 20.6795C498.849 20.8773 498.854 21.0744 498.857 21.2722C497.84 21.4072 496.826 21.5986 495.803 21.6684C492.448 21.8985 489.089 22.0779 485.733 22.2979C485.162 22.3353 484.556 22.3796 484.037 22.5926C481.207 23.7514 478.222 23.8142 475.263 23.7013C469.817 23.4928 464.433 24.1261 459.03 24.5546C456.978 24.7175 454.906 24.5951 452.846 24.6782C452.093 24.708 451.35 24.954 450.601 25.1004C450.605 25.2785 450.608 25.456 450.61 25.6329C451.025 25.7723 451.435 26.0189 451.853 26.0341C459.42 26.3067 466.987 26.5444 474.554 26.8088C475.625 26.8462 476.695 27.0788 477.759 27.0452C479.23 26.9996 480.378 27.6107 481.071 28.7707C481.598 29.6519 482.206 29.7996 483.087 29.7926C484.651 29.7812 486.218 29.8275 487.784 29.8896C488.972 29.9371 490.239 29.6532 491.086 30.9907C491.307 31.3413 492.145 31.3552 492.712 31.4262C494.67 31.6696 496.645 32.1178 498.589 32.0227C500.989 31.9036 502.698 33.2227 504.481 34.3314C505.4 34.9026 506.213 35.075 507.221 35.1118C511.999 35.2848 516.775 35.52 521.551 35.74C521.828 35.7527 522.103 35.8389 522.379 35.8915C522.384 36.0208 522.389 36.1514 522.395 36.2801Z" fill="url(#paint0_linear_76_122)"/>
<path d="M442.519 19.0256C442.846 18.2224 443.043 17.7368 443.347 16.9901C441.137 16.8272 439.122 16.6154 437.102 16.5406C432.086 16.358 427.069 16.1907 422.051 16.1203C420.344 16.0975 418.631 16.3872 416.922 16.5362C416.758 16.5501 416.597 16.5958 416.432 16.6084C412.909 16.8671 409.324 17.6233 405.881 17.2094C403.499 16.9229 401.421 17.8928 399.136 17.6259C396.941 17.3685 394.692 17.5955 392.467 17.5644C391.027 17.5435 389.589 17.4382 388.112 16.9672C388.549 16.8075 388.975 16.5546 389.423 16.5058C391.627 16.2623 393.847 16.1368 396.043 15.8389C397.184 15.6842 398.595 15.8706 399.026 14.2078C399.092 13.9536 399.864 13.7254 400.295 13.7476C405.227 14.0075 410.153 14.3986 415.086 14.5977C423.078 14.9203 431.072 15.16 439.068 15.3476C440.388 15.3787 441.719 14.9666 443.02 14.4208C439.298 13.2772 435.523 13.3089 431.743 13.1923C427.955 13.0763 424.178 12.6592 420.396 12.3821C416.569 12.1013 412.74 11.83 408.912 11.5555C408.901 11.3888 408.889 11.2234 408.879 11.0566C409.457 10.9755 410.037 10.8183 410.614 10.824C417.206 10.8893 423.798 10.9083 430.387 11.0845C435.813 11.2316 441.232 11.65 446.659 11.7996C449.373 11.8756 452.095 11.6227 454.813 11.5194C459.502 11.3413 464.189 11.0947 468.879 11.0104C472.415 10.9463 475.954 11.0801 479.491 11.1562C480.287 11.1733 481.08 11.3191 481.873 11.4066C481.897 11.5948 481.921 11.7825 481.945 11.9707C480.16 12.4329 478.373 12.8956 476.347 13.4192C477.308 14.4785 478.444 14.3473 479.407 14.4195C488.934 15.1251 498.465 15.7723 507.995 16.4487C508.108 16.4569 508.21 16.6351 508.484 16.888C508.01 17.1206 507.628 17.3894 507.206 17.5023C503.753 18.4227 500.253 18.5026 496.715 18.1362C495.264 17.986 493.789 17.9251 492.333 17.9973C486.092 18.3048 479.861 18.8449 473.596 18.6065C469.646 18.4576 465.687 18.4468 461.733 18.4829C459.44 18.5039 457.148 18.8449 454.854 18.8544C452.593 18.8626 450.32 19.5042 448.046 18.5425C447.315 18.2338 446.281 18.6319 445.388 18.7181C444.517 18.8031 443.647 18.9045 442.519 19.0256Z" fill="url(#paint1_linear_76_122)"/>
<path d="M213.192 66.3843C211.422 66.3843 209.779 66.0963 208.264 65.5203C206.771 64.9443 205.47 64.1336 204.36 63.0883C203.272 62.043 202.419 60.8163 201.8 59.4083C201.203 58.0003 200.904 56.4643 200.904 54.8003C200.904 53.1363 201.203 51.6003 201.8 50.1923C202.419 48.7843 203.283 47.5576 204.392 46.5123C205.502 45.467 206.803 44.6563 208.296 44.0803C209.79 43.5043 211.411 43.2163 213.16 43.2163C214.931 43.2163 216.552 43.5043 218.024 44.0803C219.518 44.6563 220.808 45.467 221.896 46.5123C223.006 47.5576 223.87 48.7843 224.488 50.1923C225.107 51.579 225.416 53.115 225.416 54.8003C225.416 56.4643 225.107 58.011 224.488 59.4403C223.87 60.8483 223.006 62.075 221.896 63.1203C220.808 64.1443 219.518 64.9443 218.024 65.5203C216.552 66.0963 214.942 66.3843 213.192 66.3843ZM213.16 61.9683C214.163 61.9683 215.08 61.7976 215.912 61.4563C216.766 61.115 217.512 60.6243 218.152 59.9843C218.792 59.3443 219.283 58.587 219.624 57.7123C219.987 56.8376 220.168 55.867 220.168 54.8003C220.168 53.7336 219.987 52.763 219.624 51.8883C219.283 51.0136 218.792 50.2563 218.152 49.6163C217.534 48.9763 216.798 48.4856 215.944 48.1443C215.091 47.803 214.163 47.6323 213.16 47.6323C212.158 47.6323 211.23 47.803 210.376 48.1443C209.544 48.4856 208.808 48.9763 208.168 49.6163C207.528 50.2563 207.027 51.0136 206.664 51.8883C206.323 52.763 206.152 53.7336 206.152 54.8003C206.152 55.8456 206.323 56.8163 206.664 57.7123C207.027 58.587 207.518 59.3443 208.136 59.9843C208.776 60.6243 209.523 61.115 210.376 61.4563C211.23 61.7976 212.158 61.9683 213.16 61.9683ZM236.224 66.2563C234.795 66.2563 233.515 65.979 232.384 65.4243C231.275 64.8696 230.411 64.027 229.792 62.8963C229.174 61.7443 228.864 60.283 228.864 58.5123V48.7843H233.856V57.7763C233.856 59.2056 234.155 60.2616 234.752 60.9443C235.371 61.6056 236.235 61.9363 237.344 61.9363C238.112 61.9363 238.795 61.7763 239.392 61.4563C239.99 61.115 240.459 60.603 240.8 59.9203C241.142 59.2163 241.312 58.3416 241.312 57.2963V48.7843H246.304V66.0003H241.568V61.2643L242.432 62.6403C241.856 63.835 241.003 64.7416 239.872 65.3603C238.763 65.9576 237.547 66.2563 236.224 66.2563ZM250.929 66.0003V48.7843H255.697V53.6483L255.025 52.2403C255.537 51.0243 256.358 50.107 257.489 49.4883C258.62 48.8483 259.996 48.5283 261.617 48.5283V53.1363C261.404 53.115 261.212 53.1043 261.041 53.1043C260.87 53.083 260.689 53.0723 260.497 53.0723C259.132 53.0723 258.022 53.467 257.169 54.2563C256.337 55.0243 255.921 56.2296 255.921 57.8723V66.0003H250.929ZM281.485 66.3843C279.693 66.3843 277.975 66.1496 276.333 65.6803C274.69 65.1896 273.367 64.5603 272.365 63.7923L274.125 59.8883C275.085 60.571 276.215 61.1363 277.517 61.5843C278.839 62.011 280.173 62.2243 281.517 62.2243C282.541 62.2243 283.362 62.1283 283.981 61.9363C284.621 61.723 285.09 61.435 285.389 61.0723C285.687 60.7096 285.837 60.2936 285.837 59.8243C285.837 59.227 285.602 58.7576 285.133 58.4163C284.663 58.0536 284.045 57.7656 283.277 57.5523C282.509 57.3176 281.655 57.1043 280.717 56.9123C279.799 56.699 278.871 56.443 277.933 56.1443C277.015 55.8456 276.173 55.4616 275.405 54.9923C274.637 54.523 274.007 53.9043 273.517 53.1363C273.047 52.3683 272.813 51.387 272.813 50.1923C272.813 48.9123 273.154 47.7496 273.837 46.7043C274.541 45.6376 275.586 44.795 276.973 44.1763C278.381 43.5363 280.141 43.2163 282.253 43.2163C283.661 43.2163 285.047 43.387 286.413 43.7283C287.778 44.0483 288.983 44.539 290.029 45.2003L288.429 49.1363C287.383 48.539 286.338 48.1016 285.293 47.8243C284.247 47.5256 283.223 47.3763 282.221 47.3763C281.218 47.3763 280.397 47.4936 279.757 47.7283C279.117 47.963 278.658 48.2723 278.381 48.6563C278.103 49.019 277.965 49.4456 277.965 49.9363C277.965 50.5123 278.199 50.9816 278.669 51.3443C279.138 51.6856 279.757 51.963 280.525 52.1763C281.293 52.3896 282.135 52.603 283.053 52.8163C283.991 53.0296 284.919 53.275 285.837 53.5523C286.775 53.8296 287.629 54.203 288.397 54.6723C289.165 55.1416 289.783 55.7603 290.253 56.5283C290.743 57.2963 290.989 58.267 290.989 59.4403C290.989 60.699 290.637 61.851 289.933 62.8963C289.229 63.9416 288.173 64.7843 286.765 65.4243C285.378 66.0643 283.618 66.3843 281.485 66.3843ZM302.723 66.2563C300.76 66.2563 299.032 65.8723 297.539 65.1043C296.067 64.3363 294.926 63.291 294.115 61.9683C293.304 60.6243 292.899 59.099 292.899 57.3923C292.899 55.6643 293.294 54.139 294.083 52.8163C294.894 51.4723 295.992 50.427 297.379 49.6803C298.766 48.9123 300.334 48.5283 302.083 48.5283C303.768 48.5283 305.283 48.891 306.627 49.6163C307.992 50.3203 309.07 51.3443 309.859 52.6883C310.648 54.011 311.043 55.6003 311.043 57.4563C311.043 57.6483 311.032 57.8723 311.011 58.1283C310.99 58.363 310.968 58.587 310.947 58.8003H296.963V55.8883H308.323L306.403 56.7523C306.403 55.8563 306.222 55.0776 305.859 54.4163C305.496 53.755 304.995 53.243 304.355 52.8803C303.715 52.4963 302.968 52.3043 302.115 52.3043C301.262 52.3043 300.504 52.4963 299.843 52.8803C299.203 53.243 298.702 53.7656 298.339 54.4483C297.976 55.1096 297.795 55.899 297.795 56.8163V57.5843C297.795 58.523 297.998 59.355 298.403 60.0803C298.83 60.7843 299.416 61.3283 300.163 61.7123C300.931 62.075 301.827 62.2563 302.851 62.2563C303.768 62.2563 304.568 62.1176 305.251 61.8403C305.955 61.563 306.595 61.147 307.171 60.5923L309.827 63.4723C309.038 64.3683 308.046 65.0616 306.851 65.5523C305.656 66.0216 304.28 66.2563 302.723 66.2563ZM322.687 66.2563C320.831 66.2563 319.177 65.883 317.727 65.1363C316.276 64.3683 315.135 63.3123 314.303 61.9683C313.492 60.6243 313.087 59.099 313.087 57.3923C313.087 55.6643 313.492 54.139 314.303 52.8163C315.135 51.4723 316.276 50.427 317.727 49.6803C319.177 48.9123 320.831 48.5283 322.687 48.5283C324.5 48.5283 326.079 48.9123 327.423 49.6803C328.767 50.427 329.759 51.5043 330.399 52.9123L326.527 54.9923C326.079 54.1816 325.513 53.5843 324.831 53.2003C324.169 52.8163 323.444 52.6243 322.655 52.6243C321.801 52.6243 321.033 52.8163 320.351 53.2003C319.668 53.5843 319.124 54.1283 318.719 54.8323C318.335 55.5363 318.143 56.3896 318.143 57.3923C318.143 58.395 318.335 59.2483 318.719 59.9523C319.124 60.6563 319.668 61.2003 320.351 61.5843C321.033 61.9683 321.801 62.1603 322.655 62.1603C323.444 62.1603 324.169 61.979 324.831 61.6163C325.513 61.2323 326.079 60.6243 326.527 59.7923L330.399 61.9043C329.759 63.291 328.767 64.3683 327.423 65.1363C326.079 65.883 324.5 66.2563 322.687 66.2563ZM340.563 66.2563C338.536 66.2563 336.957 65.7443 335.827 64.7203C334.696 63.675 334.131 62.1283 334.131 60.0803V44.9763H339.123V60.0163C339.123 60.7416 339.315 61.307 339.699 61.7123C340.083 62.0963 340.605 62.2883 341.267 62.2883C342.056 62.2883 342.728 62.075 343.283 61.6483L344.627 65.1683C344.115 65.531 343.496 65.8083 342.771 66.0003C342.067 66.171 341.331 66.2563 340.563 66.2563ZM331.475 53.0083V49.1683H343.411V53.0083H331.475ZM355.09 66.2563C353.255 66.2563 351.623 65.8723 350.194 65.1043C348.786 64.3363 347.666 63.291 346.834 61.9683C346.023 60.6243 345.618 59.099 345.618 57.3923C345.618 55.6643 346.023 54.139 346.834 52.8163C347.666 51.4723 348.786 50.427 350.194 49.6803C351.623 48.9123 353.255 48.5283 355.09 48.5283C356.903 48.5283 358.524 48.9123 359.954 49.6803C361.383 50.427 362.503 51.4616 363.314 52.7843C364.124 54.107 364.53 55.643 364.53 57.3923C364.53 59.099 364.124 60.6243 363.314 61.9683C362.503 63.291 361.383 64.3363 359.954 65.1043C358.524 65.8723 356.903 66.2563 355.09 66.2563ZM355.09 62.1603C355.922 62.1603 356.668 61.9683 357.33 61.5843C357.991 61.2003 358.514 60.6563 358.898 59.9523C359.282 59.227 359.474 58.3736 359.474 57.3923C359.474 56.3896 359.282 55.5363 358.898 54.8323C358.514 54.1283 357.991 53.5843 357.33 53.2003C356.668 52.8163 355.922 52.6243 355.09 52.6243C354.258 52.6243 353.511 52.8163 352.85 53.2003C352.188 53.5843 351.655 54.1283 351.25 54.8323C350.866 55.5363 350.674 56.3896 350.674 57.3923C350.674 58.3736 350.866 59.227 351.25 59.9523C351.655 60.6563 352.188 61.2003 352.85 61.5843C353.511 61.9683 354.258 62.1603 355.09 62.1603ZM367.867 66.0003V48.7843H372.635V53.6483L371.963 52.2403C372.475 51.0243 373.296 50.107 374.427 49.4883C375.557 48.8483 376.933 48.5283 378.555 48.5283V53.1363C378.341 53.115 378.149 53.1043 377.979 53.1043C377.808 53.083 377.627 53.0723 377.435 53.0723C376.069 53.0723 374.96 53.467 374.107 54.2563C373.275 55.0243 372.859 56.2296 372.859 57.8723V66.0003H367.867ZM387.44 66.2563C385.968 66.2563 384.549 66.0856 383.184 65.7443C381.84 65.3816 380.773 64.9336 379.984 64.4003L381.648 60.8163C382.437 61.307 383.365 61.7123 384.432 62.0323C385.52 62.331 386.586 62.4803 387.632 62.4803C388.784 62.4803 389.594 62.3416 390.064 62.0643C390.554 61.787 390.8 61.403 390.8 60.9123C390.8 60.507 390.608 60.2083 390.224 60.0163C389.861 59.803 389.37 59.643 388.752 59.5363C388.133 59.4296 387.45 59.323 386.704 59.2163C385.978 59.1096 385.242 58.971 384.496 58.8003C383.749 58.6083 383.066 58.331 382.448 57.9683C381.829 57.6056 381.328 57.115 380.944 56.4963C380.581 55.8776 380.4 55.0776 380.4 54.0963C380.4 53.0083 380.709 52.0483 381.328 51.2163C381.968 50.3843 382.885 49.7336 384.08 49.2643C385.274 48.7736 386.704 48.5283 388.368 48.5283C389.541 48.5283 390.736 48.6563 391.952 48.9123C393.168 49.1683 394.181 49.5416 394.992 50.0323L393.328 53.5843C392.496 53.0936 391.653 52.763 390.8 52.5923C389.968 52.4003 389.157 52.3043 388.368 52.3043C387.258 52.3043 386.448 52.4536 385.936 52.7523C385.424 53.051 385.168 53.435 385.168 53.9043C385.168 54.331 385.349 54.651 385.712 54.8643C386.096 55.0776 386.597 55.2483 387.216 55.3763C387.834 55.5043 388.506 55.6216 389.232 55.7283C389.978 55.8136 390.725 55.9523 391.472 56.1443C392.218 56.3363 392.89 56.6136 393.488 56.9763C394.106 57.3176 394.608 57.7976 394.992 58.4163C395.376 59.0136 395.568 59.803 395.568 60.7843C395.568 61.851 395.248 62.8003 394.608 63.6323C393.968 64.443 393.04 65.083 391.824 65.5523C390.629 66.0216 389.168 66.2563 387.44 66.2563Z" fill="white"/>
<defs>
<linearGradient id="paint0_linear_76_122" x1="63" y1="105.891" x2="495.975" y2="-84.2926" gradientUnits="userSpaceOnUse">
<stop offset="0.298077" stop-color="#E04A00"/>
<stop offset="1" stop-color="#FF915C"/>
</linearGradient>
<linearGradient id="paint1_linear_76_122" x1="388.112" y1="19.0716" x2="430.978" y2="-42.8392" gradientUnits="userSpaceOnUse">
<stop offset="0.298077" stop-color="#E04A00"/>
<stop offset="1" stop-color="#FF915C"/>
</linearGradient>
</defs>
</svg>
