<svg width="52" height="48" viewBox="0 0 52 48" fill="none" xmlns="http://www.w3.org/2000/svg">
<rect width="52" height="48" rx="24" fill="white" fill-opacity="0.4"/>
<path d="M33.5304 29.4698C33.2375 29.1769 32.7626 29.1769 32.4697 29.4698C32.1768 29.7626 32.1768 30.2375 32.4697 30.5304L33.0001 30.0001L33.5304 29.4698ZM36.4696 34.5304C36.7625 34.8233 37.2374 34.8233 37.5303 34.5304C37.8232 34.2375 37.8232 33.7626 37.5303 33.4697L37 34L36.4696 34.5304ZM23.3351 16.8023C23.7442 16.7375 24.0234 16.3533 23.9586 15.9442C23.8938 15.5351 23.5096 15.256 23.1005 15.3208L23.2178 16.0616L23.3351 16.8023ZM18.3208 20.1005C18.256 20.5096 18.5351 20.8938 18.9442 20.9586C19.3533 21.0234 19.7375 20.7443 19.8023 20.3351L19.0615 20.2178L18.3208 20.1005ZM33.0001 30.0001L32.4697 30.5304L36.4696 34.5304L37 34L37.5303 33.4697L33.5304 29.4698L33.0001 30.0001ZM25 31V30.25C20.4437 30.25 16.75 26.5563 16.75 22H16H15.25C15.25 27.3848 19.6152 31.75 25 31.75V31ZM34 22H33.25C33.25 26.5563 29.5563 30.25 25 30.25V31V31.75C30.3848 31.75 34.75 27.3848 34.75 22H34ZM25 13V13.75C29.5563 13.75 33.25 17.4437 33.25 22H34H34.75C34.75 16.6152 30.3848 12.25 25 12.25V13ZM25 13V12.25C19.6152 12.25 15.25 16.6152 15.25 22H16H16.75C16.75 17.4437 20.4437 13.75 25 13.75V13ZM23.2178 16.0616L23.1005 15.3208C20.6401 15.7105 18.7104 17.6401 18.3208 20.1005L19.0615 20.2178L19.8023 20.3351C20.0903 18.5166 21.5166 17.0903 23.3351 16.8023L23.2178 16.0616Z" fill="#E04A00"/>
</svg>
