<svg width="1440" height="2125" viewBox="0 0 1440 2125" fill="none" xmlns="http://www.w3.org/2000/svg">
<path d="M77.7113 1779.48L176.019 1909.78L111.464 2059.41L13.1543 1929.12L77.7113 1779.48Z" stroke="#FFAEAE" stroke-miterlimit="10" stroke-linejoin="round"/>
<path d="M77.7116 1779.48L176.02 1909.78L338.884 1890.44L240.575 1760.15L77.7116 1779.48Z" stroke="#FFAEAE" stroke-miterlimit="10" stroke-linejoin="round"/>
<path d="M137.805 1998.35L79.6086 1921.22L117.824 1832.65L214.235 1821.2L272.431 1898.33L234.216 1986.91L137.805 1998.35Z" fill="#FFDCCA"/>
<path d="M111.464 2059.41L13.1545 1929.12L77.7116 1779.48L240.575 1760.15L338.884 1890.44L274.329 2040.07L111.464 2059.41Z" stroke="#FFAEAE" stroke-miterlimit="10" stroke-linejoin="round"/>
<path d="M13.1545 1929.12L176.02 1909.78L240.575 1760.15L77.7116 1779.48L13.1545 1929.12Z" stroke="#FFAEAE" stroke-miterlimit="10" stroke-linejoin="round"/>
<path d="M176.02 1909.78L274.33 2040.07L338.885 1890.44L240.575 1760.15L176.02 1909.78Z" stroke="#FFAEAE" stroke-miterlimit="10" stroke-linecap="round" stroke-linejoin="round"/>
<rect width="630.485" height="634.387" rx="83" transform="matrix(-0.317295 -0.948327 0.949778 -0.312925 1262.47 1401.42)" fill="url(#paint0_linear_42_121)"/>
<g clip-path="url(#clip0_42_121)">
<rect x="208.996" y="-356" width="630" height="630" rx="83" transform="rotate(71.5786 208.996 -356)" fill="url(#paint1_linear_42_121)"/>
</g>
<defs>
<linearGradient id="paint0_linear_42_121" x1="450.282" y1="279.324" x2="621.758" y2="45.1692" gradientUnits="userSpaceOnUse">
<stop stop-color="white"/>
<stop offset="1" stop-color="#FFEADF"/>
</linearGradient>
<linearGradient id="paint1_linear_42_121" x1="607.889" y1="-186.548" x2="828.902" y2="-312.143" gradientUnits="userSpaceOnUse">
<stop stop-color="white"/>
<stop offset="1" stop-color="#FFEADF"/>
</linearGradient>
<clipPath id="clip0_42_121">
<rect width="1451.13" height="780" fill="white" transform="translate(0.278206)"/>
</clipPath>
</defs>
</svg>
